<svg xmlns="http://www.w3.org/2000/svg" xmlns:xlink="http://www.w3.org/1999/xlink" width="500" zoomAndPan="magnify" viewBox="0 0 375 74.999997" height="100" preserveAspectRatio="xMidYMid meet" version="1.0"><defs><g/><clipPath id="a4739a58f1"><path d="M 0 4.632812 L 86.25 4.632812 L 86.25 75 L 0 75 Z M 0 4.632812 " clip-rule="nonzero"/></clipPath></defs><g clip-path="url(#a4739a58f1)"><path fill="#ffffff" d="M 69.886719 47.925781 L 61.445312 47.925781 L 86.246094 4.6875 L 54.863281 4.6875 L 43.125 25.148438 L 31.382812 4.6875 L 0 4.6875 L 27.429688 52.5 L 14.472656 75.09375 L 85.484375 75.09375 Z M 27.9375 67.257812 L 31.925781 60.304688 L 35.917969 67.257812 Z M 44.910156 67.257812 L 13.464844 12.46875 L 26.867188 12.46875 L 43.125 40.800781 L 59.378906 12.46875 L 72.78125 12.46875 L 48.800781 54.289062 L 48.800781 55.707031 L 65.371094 55.707031 L 72.019531 67.257812 Z M 44.910156 67.257812 " fill-opacity="1" fill-rule="nonzero"/></g><g fill="#ffffff" fill-opacity="1"><g transform="translate(95.497771, 40.345784)"><g><path d="M 21.953125 -11.515625 L 21.953125 0 L 12.9375 0 L 12.9375 -11.25 L -0.25 -35.65625 L 8.8125 -35.65625 L 17.421875 -20.125 L 25.828125 -35.65625 L 34.890625 -35.65625 Z M 21.953125 -11.515625 "/></g></g></g><g fill="#ffffff" fill-opacity="1"><g transform="translate(138.493784, 40.345784)"><g><path d="M 27.25 -6.578125 L 11.671875 -6.578125 L 9.0625 0 L -0.25 0 L 15.125 -35.65625 L 24.453125 -35.65625 L 39.46875 0 L 29.796875 0 Z M 24.609375 -13.453125 L 19.515625 -26.640625 L 14.3125 -13.453125 Z M 24.609375 -13.453125 "/></g></g></g><g fill="#ffffff" fill-opacity="1"><g transform="translate(186.074649, 40.345784)"><g><path d="M 17.265625 -36.0625 C 22.597656 -36.0625 27.285156 -34.738281 31.328125 -32.09375 L 27.90625 -25.015625 C 26.039062 -26.097656 24.035156 -26.988281 21.890625 -27.6875 C 19.753906 -28.382812 17.957031 -28.734375 16.5 -28.734375 C 13.882812 -28.734375 12.578125 -27.863281 12.578125 -26.125 C 12.578125 -25.007812 13.222656 -24.109375 14.515625 -23.421875 C 15.804688 -22.742188 17.375 -22.160156 19.21875 -21.671875 C 21.070312 -21.179688 22.925781 -20.585938 24.78125 -19.890625 C 26.632812 -19.191406 28.203125 -18.0625 29.484375 -16.5 C 30.773438 -14.9375 31.421875 -12.96875 31.421875 -10.59375 C 31.421875 -7.164062 30.078125 -4.488281 27.390625 -2.5625 C 24.710938 -0.644531 21.304688 0.3125 17.171875 0.3125 C 14.210938 0.3125 11.289062 -0.195312 8.40625 -1.21875 C 5.519531 -2.238281 3.003906 -3.632812 0.859375 -5.40625 L 4.375 -12.375 C 6.175781 -10.8125 8.300781 -9.53125 10.75 -8.53125 C 13.195312 -7.53125 15.367188 -7.03125 17.265625 -7.03125 C 18.722656 -7.03125 19.859375 -7.289062 20.671875 -7.8125 C 21.492188 -8.34375 21.90625 -9.117188 21.90625 -10.140625 C 21.90625 -11.117188 21.4375 -11.9375 20.5 -12.59375 C 19.5625 -13.257812 18.394531 -13.753906 17 -14.078125 C 15.613281 -14.398438 14.101562 -14.832031 12.46875 -15.375 C 10.84375 -15.925781 9.332031 -16.523438 7.9375 -17.171875 C 6.550781 -17.816406 5.390625 -18.84375 4.453125 -20.25 C 3.523438 -21.65625 3.0625 -23.34375 3.0625 -25.3125 C 3.0625 -28.570312 4.359375 -31.175781 6.953125 -33.125 C 9.546875 -35.082031 12.984375 -36.0625 17.265625 -36.0625 Z M 17.265625 -36.0625 "/></g></g></g><g fill="#ffffff" fill-opacity="1"><g transform="translate(227.236717, 40.345784)"><g><path d="M 17.265625 -36.0625 C 22.597656 -36.0625 27.285156 -34.738281 31.328125 -32.09375 L 27.90625 -25.015625 C 26.039062 -26.097656 24.035156 -26.988281 21.890625 -27.6875 C 19.753906 -28.382812 17.957031 -28.734375 16.5 -28.734375 C 13.882812 -28.734375 12.578125 -27.863281 12.578125 -26.125 C 12.578125 -25.007812 13.222656 -24.109375 14.515625 -23.421875 C 15.804688 -22.742188 17.375 -22.160156 19.21875 -21.671875 C 21.070312 -21.179688 22.925781 -20.585938 24.78125 -19.890625 C 26.632812 -19.191406 28.203125 -18.0625 29.484375 -16.5 C 30.773438 -14.9375 31.421875 -12.96875 31.421875 -10.59375 C 31.421875 -7.164062 30.078125 -4.488281 27.390625 -2.5625 C 24.710938 -0.644531 21.304688 0.3125 17.171875 0.3125 C 14.210938 0.3125 11.289062 -0.195312 8.40625 -1.21875 C 5.519531 -2.238281 3.003906 -3.632812 0.859375 -5.40625 L 4.375 -12.375 C 6.175781 -10.8125 8.300781 -9.53125 10.75 -8.53125 C 13.195312 -7.53125 15.367188 -7.03125 17.265625 -7.03125 C 18.722656 -7.03125 19.859375 -7.289062 20.671875 -7.8125 C 21.492188 -8.34375 21.90625 -9.117188 21.90625 -10.140625 C 21.90625 -11.117188 21.4375 -11.9375 20.5 -12.59375 C 19.5625 -13.257812 18.394531 -13.753906 17 -14.078125 C 15.613281 -14.398438 14.101562 -14.832031 12.46875 -15.375 C 10.84375 -15.925781 9.332031 -16.523438 7.9375 -17.171875 C 6.550781 -17.816406 5.390625 -18.84375 4.453125 -20.25 C 3.523438 -21.65625 3.0625 -23.34375 3.0625 -25.3125 C 3.0625 -28.570312 4.359375 -31.175781 6.953125 -33.125 C 9.546875 -35.082031 12.984375 -36.0625 17.265625 -36.0625 Z M 17.265625 -36.0625 "/></g></g></g><g fill="#ffffff" fill-opacity="1"><g transform="translate(268.398785, 40.345784)"><g><path d="M 12.625 0 L 3.5625 0 L 3.5625 -35.65625 L 12.625 -35.65625 Z M 12.625 0 "/></g></g></g><g fill="#ffffff" fill-opacity="1"><g transform="translate(292.953477, 40.345784)"><g><path d="M 36.46875 0 L 28.46875 0 L 12.078125 -21.953125 L 12.078125 0 L 3.5625 0 L 3.5625 -35.65625 L 11.5625 -35.65625 L 28.015625 -13.65625 L 28.015625 -35.65625 L 36.46875 -35.65625 Z M 36.46875 0 "/></g></g></g><g fill="#ffffff" fill-opacity="1"><g transform="translate(341.349421, 40.345784)"><g><path d="M 31.484375 -28.53125 L 12.625 -28.53125 L 12.625 -21.4375 L 29.640625 -21.4375 L 29.640625 -14.3125 L 12.625 -14.3125 L 12.625 -7.125 L 32.046875 -7.125 L 32.046875 0 L 3.5625 0 L 3.5625 -35.65625 L 31.484375 -35.65625 Z M 31.484375 -28.53125 "/></g></g></g><path fill="#ffffff" d="M 95.496094 56.875 L 374.292969 56.875 L 374.292969 76.421875 L 95.496094 76.421875 L 95.496094 56.875 " fill-opacity="1" fill-rule="nonzero"/><g fill="#332c54" fill-opacity="1"><g transform="translate(95.497771, 70.949521)"><g><path d="M 6.671875 -9.875 L 6.671875 -8.828125 L 2.375 -8.828125 L 2.375 -5.5 L 5.859375 -5.5 L 5.859375 -4.453125 L 2.375 -4.453125 L 2.375 0 L 1.09375 0 L 1.09375 -9.875 Z M 6.671875 -9.875 "/></g></g></g><g fill="#332c54" fill-opacity="1"><g transform="translate(109.304099, 70.949521)"><g><path d="M 7.984375 -7.765625 L 7.984375 0 L 6.6875 0 L 6.6875 -1.140625 C 6.445312 -0.742188 6.101562 -0.4375 5.65625 -0.21875 C 5.21875 0 4.734375 0.109375 4.203125 0.109375 C 3.597656 0.109375 3.054688 -0.015625 2.578125 -0.265625 C 2.097656 -0.515625 1.71875 -0.890625 1.4375 -1.390625 C 1.15625 -1.890625 1.015625 -2.5 1.015625 -3.21875 L 1.015625 -7.765625 L 2.296875 -7.765625 L 2.296875 -3.390625 C 2.296875 -2.617188 2.488281 -2.023438 2.875 -1.609375 C 3.257812 -1.203125 3.789062 -1 4.46875 -1 C 5.15625 -1 5.695312 -1.210938 6.09375 -1.640625 C 6.488281 -2.066406 6.6875 -2.6875 6.6875 -3.5 L 6.6875 -7.765625 Z M 7.984375 -7.765625 "/></g></g></g><g fill="#332c54" fill-opacity="1"><g transform="translate(125.037657, 70.949521)"><g><path d="M 2.375 -10.484375 L 2.375 0 L 1.09375 0 L 1.09375 -10.484375 Z M 2.375 -10.484375 "/></g></g></g><g fill="#332c54" fill-opacity="1"><g transform="translate(135.18793, 70.949521)"><g><path d="M 2.375 -10.484375 L 2.375 0 L 1.09375 0 L 1.09375 -10.484375 Z M 2.375 -10.484375 "/></g></g></g><g fill="#332c54" fill-opacity="1"><g transform="translate(145.338202, 70.949521)"><g><path d="M 6.484375 -5.734375 L 6.484375 -4.640625 L 0.828125 -4.640625 L 0.828125 -5.734375 Z M 6.484375 -5.734375 "/></g></g></g><g fill="#332c54" fill-opacity="1"><g transform="translate(159.810561, 70.949521)"><g><path d="M 4.21875 0.09375 C 3.570312 0.09375 2.988281 -0.0195312 2.46875 -0.25 C 1.957031 -0.476562 1.554688 -0.796875 1.265625 -1.203125 C 0.972656 -1.617188 0.820312 -2.097656 0.8125 -2.640625 L 2.1875 -2.640625 C 2.226562 -2.171875 2.414062 -1.773438 2.75 -1.453125 C 3.09375 -1.140625 3.582031 -0.984375 4.21875 -0.984375 C 4.832031 -0.984375 5.316406 -1.132812 5.671875 -1.4375 C 6.023438 -1.75 6.203125 -2.148438 6.203125 -2.640625 C 6.203125 -3.015625 6.097656 -3.316406 5.890625 -3.546875 C 5.679688 -3.785156 5.421875 -3.96875 5.109375 -4.09375 C 4.796875 -4.21875 4.378906 -4.351562 3.859375 -4.5 C 3.203125 -4.664062 2.675781 -4.832031 2.28125 -5 C 1.894531 -5.164062 1.5625 -5.429688 1.28125 -5.796875 C 1 -6.160156 0.859375 -6.648438 0.859375 -7.265625 C 0.859375 -7.804688 0.992188 -8.285156 1.265625 -8.703125 C 1.546875 -9.117188 1.929688 -9.4375 2.421875 -9.65625 C 2.921875 -9.882812 3.492188 -10 4.140625 -10 C 5.066406 -10 5.820312 -9.765625 6.40625 -9.296875 C 7 -8.835938 7.332031 -8.226562 7.40625 -7.46875 L 6 -7.46875 C 5.945312 -7.84375 5.742188 -8.175781 5.390625 -8.46875 C 5.046875 -8.757812 4.585938 -8.90625 4.015625 -8.90625 C 3.472656 -8.90625 3.03125 -8.765625 2.6875 -8.484375 C 2.351562 -8.203125 2.1875 -7.8125 2.1875 -7.3125 C 2.1875 -6.957031 2.285156 -6.664062 2.484375 -6.4375 C 2.691406 -6.207031 2.941406 -6.03125 3.234375 -5.90625 C 3.535156 -5.789062 3.957031 -5.660156 4.5 -5.515625 C 5.144531 -5.335938 5.664062 -5.160156 6.0625 -4.984375 C 6.457031 -4.804688 6.796875 -4.535156 7.078125 -4.171875 C 7.367188 -3.804688 7.515625 -3.3125 7.515625 -2.6875 C 7.515625 -2.207031 7.382812 -1.753906 7.125 -1.328125 C 6.875 -0.898438 6.5 -0.554688 6 -0.296875 C 5.5 -0.0351562 4.90625 0.09375 4.21875 0.09375 Z M 4.21875 0.09375 "/></g></g></g><g fill="#332c54" fill-opacity="1"><g transform="translate(174.793064, 70.949521)"><g><path d="M 2.671875 -6.703125 L 2.671875 -2.125 C 2.671875 -1.75 2.75 -1.484375 2.90625 -1.328125 C 3.0625 -1.171875 3.335938 -1.09375 3.734375 -1.09375 L 4.6875 -1.09375 L 4.6875 0 L 3.53125 0 C 2.8125 0 2.269531 -0.160156 1.90625 -0.484375 C 1.550781 -0.816406 1.375 -1.363281 1.375 -2.125 L 1.375 -6.703125 L 0.375 -6.703125 L 0.375 -7.765625 L 1.375 -7.765625 L 1.375 -9.71875 L 2.671875 -9.71875 L 2.671875 -7.765625 L 4.6875 -7.765625 L 4.6875 -6.703125 Z M 2.671875 -6.703125 "/></g></g></g><g fill="#332c54" fill-opacity="1"><g transform="translate(186.615484, 70.949521)"><g><path d="M 0.609375 -3.90625 C 0.609375 -4.707031 0.769531 -5.40625 1.09375 -6 C 1.414062 -6.601562 1.859375 -7.066406 2.421875 -7.390625 C 2.984375 -7.722656 3.609375 -7.890625 4.296875 -7.890625 C 4.972656 -7.890625 5.5625 -7.742188 6.0625 -7.453125 C 6.5625 -7.160156 6.9375 -6.789062 7.1875 -6.34375 L 7.1875 -7.765625 L 8.484375 -7.765625 L 8.484375 0 L 7.1875 0 L 7.1875 -1.453125 C 6.925781 -0.992188 6.539062 -0.613281 6.03125 -0.3125 C 5.53125 -0.0195312 4.945312 0.125 4.28125 0.125 C 3.59375 0.125 2.96875 -0.0390625 2.40625 -0.375 C 1.851562 -0.71875 1.414062 -1.195312 1.09375 -1.8125 C 0.769531 -2.425781 0.609375 -3.125 0.609375 -3.90625 Z M 7.1875 -3.890625 C 7.1875 -4.484375 7.066406 -4.992188 6.828125 -5.421875 C 6.585938 -5.859375 6.265625 -6.191406 5.859375 -6.421875 C 5.460938 -6.660156 5.023438 -6.78125 4.546875 -6.78125 C 4.066406 -6.78125 3.628906 -6.664062 3.234375 -6.4375 C 2.835938 -6.207031 2.519531 -5.875 2.28125 -5.4375 C 2.039062 -5.007812 1.921875 -4.5 1.921875 -3.90625 C 1.921875 -3.3125 2.039062 -2.796875 2.28125 -2.359375 C 2.519531 -1.921875 2.835938 -1.582031 3.234375 -1.34375 C 3.628906 -1.113281 4.066406 -1 4.546875 -1 C 5.023438 -1 5.460938 -1.113281 5.859375 -1.34375 C 6.265625 -1.582031 6.585938 -1.921875 6.828125 -2.359375 C 7.066406 -2.796875 7.1875 -3.304688 7.1875 -3.890625 Z M 7.1875 -3.890625 "/></g></g></g><g fill="#332c54" fill-opacity="1"><g transform="translate(202.859185, 70.949521)"><g><path d="M 0.609375 -3.890625 C 0.609375 -4.703125 0.769531 -5.40625 1.09375 -6 C 1.414062 -6.601562 1.859375 -7.066406 2.421875 -7.390625 C 2.992188 -7.722656 3.648438 -7.890625 4.390625 -7.890625 C 5.347656 -7.890625 6.132812 -7.65625 6.75 -7.1875 C 7.375 -6.726562 7.785156 -6.085938 7.984375 -5.265625 L 6.59375 -5.265625 C 6.457031 -5.742188 6.195312 -6.117188 5.8125 -6.390625 C 5.4375 -6.660156 4.960938 -6.796875 4.390625 -6.796875 C 3.648438 -6.796875 3.050781 -6.539062 2.59375 -6.03125 C 2.144531 -5.53125 1.921875 -4.816406 1.921875 -3.890625 C 1.921875 -2.960938 2.144531 -2.242188 2.59375 -1.734375 C 3.050781 -1.222656 3.648438 -0.96875 4.390625 -0.96875 C 4.960938 -0.96875 5.4375 -1.097656 5.8125 -1.359375 C 6.1875 -1.617188 6.445312 -2 6.59375 -2.5 L 7.984375 -2.5 C 7.773438 -1.695312 7.359375 -1.054688 6.734375 -0.578125 C 6.109375 -0.109375 5.328125 0.125 4.390625 0.125 C 3.648438 0.125 2.992188 -0.0351562 2.421875 -0.359375 C 1.859375 -0.691406 1.414062 -1.160156 1.09375 -1.765625 C 0.769531 -2.367188 0.609375 -3.078125 0.609375 -3.890625 Z M 0.609375 -3.890625 "/></g></g></g><g fill="#332c54" fill-opacity="1"><g transform="translate(218.125111, 70.949521)"><g><path d="M 5.421875 0 L 2.375 -3.421875 L 2.375 0 L 1.09375 0 L 1.09375 -10.484375 L 2.375 -10.484375 L 2.375 -4.328125 L 5.375 -7.765625 L 7.171875 -7.765625 L 3.515625 -3.890625 L 7.1875 0 Z M 5.421875 0 "/></g></g></g><g fill="#332c54" fill-opacity="1"><g transform="translate(232.08732, 70.949521)"><g/></g></g><g fill="#332c54" fill-opacity="1"><g transform="translate(242.535177, 70.949521)"><g><path d="M 4.171875 -9.875 C 5.242188 -9.875 6.175781 -9.671875 6.96875 -9.265625 C 7.757812 -8.867188 8.363281 -8.296875 8.78125 -7.546875 C 9.195312 -6.804688 9.40625 -5.929688 9.40625 -4.921875 C 9.40625 -3.910156 9.195312 -3.03125 8.78125 -2.28125 C 8.363281 -1.539062 7.757812 -0.972656 6.96875 -0.578125 C 6.175781 -0.191406 5.242188 0 4.171875 0 L 1.09375 0 L 1.09375 -9.875 Z M 4.171875 -1.0625 C 5.441406 -1.0625 6.410156 -1.398438 7.078125 -2.078125 C 7.753906 -2.753906 8.09375 -3.703125 8.09375 -4.921875 C 8.09375 -6.148438 7.753906 -7.109375 7.078125 -7.796875 C 6.398438 -8.484375 5.429688 -8.828125 4.171875 -8.828125 L 2.375 -8.828125 L 2.375 -1.0625 Z M 4.171875 -1.0625 "/></g></g></g><g fill="#332c54" fill-opacity="1"><g transform="translate(259.21819, 70.949521)"><g><path d="M 8.171875 -4.1875 C 8.171875 -3.9375 8.160156 -3.675781 8.140625 -3.40625 L 1.921875 -3.40625 C 1.972656 -2.632812 2.234375 -2.035156 2.703125 -1.609375 C 3.179688 -1.179688 3.765625 -0.96875 4.453125 -0.96875 C 5.003906 -0.96875 5.46875 -1.097656 5.84375 -1.359375 C 6.21875 -1.617188 6.476562 -1.960938 6.625 -2.390625 L 8.015625 -2.390625 C 7.804688 -1.648438 7.390625 -1.046875 6.765625 -0.578125 C 6.148438 -0.109375 5.378906 0.125 4.453125 0.125 C 3.710938 0.125 3.050781 -0.0351562 2.46875 -0.359375 C 1.882812 -0.691406 1.425781 -1.160156 1.09375 -1.765625 C 0.769531 -2.378906 0.609375 -3.085938 0.609375 -3.890625 C 0.609375 -4.703125 0.769531 -5.410156 1.09375 -6.015625 C 1.414062 -6.617188 1.863281 -7.082031 2.4375 -7.40625 C 3.019531 -7.726562 3.691406 -7.890625 4.453125 -7.890625 C 5.191406 -7.890625 5.84375 -7.726562 6.40625 -7.40625 C 6.96875 -7.09375 7.398438 -6.65625 7.703125 -6.09375 C 8.015625 -5.53125 8.171875 -4.894531 8.171875 -4.1875 Z M 6.84375 -4.453125 C 6.84375 -4.941406 6.734375 -5.363281 6.515625 -5.71875 C 6.296875 -6.070312 6 -6.335938 5.625 -6.515625 C 5.257812 -6.703125 4.847656 -6.796875 4.390625 -6.796875 C 3.742188 -6.796875 3.191406 -6.585938 2.734375 -6.171875 C 2.273438 -5.765625 2.007812 -5.191406 1.9375 -4.453125 Z M 6.84375 -4.453125 "/></g></g></g><g fill="#332c54" fill-opacity="1"><g transform="translate(274.668337, 70.949521)"><g><path d="M 3.984375 -1.1875 L 6.390625 -7.765625 L 7.765625 -7.765625 L 4.71875 0 L 3.21875 0 L 0.171875 -7.765625 L 1.5625 -7.765625 Z M 3.984375 -1.1875 "/></g></g></g><g fill="#332c54" fill-opacity="1"><g transform="translate(289.282393, 70.949521)"><g><path d="M 8.171875 -4.1875 C 8.171875 -3.9375 8.160156 -3.675781 8.140625 -3.40625 L 1.921875 -3.40625 C 1.972656 -2.632812 2.234375 -2.035156 2.703125 -1.609375 C 3.179688 -1.179688 3.765625 -0.96875 4.453125 -0.96875 C 5.003906 -0.96875 5.46875 -1.097656 5.84375 -1.359375 C 6.21875 -1.617188 6.476562 -1.960938 6.625 -2.390625 L 8.015625 -2.390625 C 7.804688 -1.648438 7.390625 -1.046875 6.765625 -0.578125 C 6.148438 -0.109375 5.378906 0.125 4.453125 0.125 C 3.710938 0.125 3.050781 -0.0351562 2.46875 -0.359375 C 1.882812 -0.691406 1.425781 -1.160156 1.09375 -1.765625 C 0.769531 -2.378906 0.609375 -3.085938 0.609375 -3.890625 C 0.609375 -4.703125 0.769531 -5.410156 1.09375 -6.015625 C 1.414062 -6.617188 1.863281 -7.082031 2.4375 -7.40625 C 3.019531 -7.726562 3.691406 -7.890625 4.453125 -7.890625 C 5.191406 -7.890625 5.84375 -7.726562 6.40625 -7.40625 C 6.96875 -7.09375 7.398438 -6.65625 7.703125 -6.09375 C 8.015625 -5.53125 8.171875 -4.894531 8.171875 -4.1875 Z M 6.84375 -4.453125 C 6.84375 -4.941406 6.734375 -5.363281 6.515625 -5.71875 C 6.296875 -6.070312 6 -6.335938 5.625 -6.515625 C 5.257812 -6.703125 4.847656 -6.796875 4.390625 -6.796875 C 3.742188 -6.796875 3.191406 -6.585938 2.734375 -6.171875 C 2.273438 -5.765625 2.007812 -5.191406 1.9375 -4.453125 Z M 6.84375 -4.453125 "/></g></g></g><g fill="#332c54" fill-opacity="1"><g transform="translate(304.73254, 70.949521)"><g><path d="M 2.375 -10.484375 L 2.375 0 L 1.09375 0 L 1.09375 -10.484375 Z M 2.375 -10.484375 "/></g></g></g><g fill="#332c54" fill-opacity="1"><g transform="translate(314.882807, 70.949521)"><g><path d="M 4.484375 0.125 C 3.753906 0.125 3.09375 -0.0351562 2.5 -0.359375 C 1.90625 -0.691406 1.441406 -1.160156 1.109375 -1.765625 C 0.773438 -2.378906 0.609375 -3.085938 0.609375 -3.890625 C 0.609375 -4.691406 0.78125 -5.394531 1.125 -6 C 1.46875 -6.613281 1.9375 -7.082031 2.53125 -7.40625 C 3.125 -7.726562 3.789062 -7.890625 4.53125 -7.890625 C 5.269531 -7.890625 5.9375 -7.726562 6.53125 -7.40625 C 7.125 -7.082031 7.59375 -6.617188 7.9375 -6.015625 C 8.28125 -5.410156 8.453125 -4.703125 8.453125 -3.890625 C 8.453125 -3.085938 8.273438 -2.378906 7.921875 -1.765625 C 7.566406 -1.160156 7.085938 -0.691406 6.484375 -0.359375 C 5.878906 -0.0351562 5.210938 0.125 4.484375 0.125 Z M 4.484375 -1 C 4.941406 -1 5.375 -1.109375 5.78125 -1.328125 C 6.1875 -1.546875 6.515625 -1.875 6.765625 -2.3125 C 7.015625 -2.75 7.140625 -3.273438 7.140625 -3.890625 C 7.140625 -4.515625 7.015625 -5.046875 6.765625 -5.484375 C 6.523438 -5.921875 6.207031 -6.242188 5.8125 -6.453125 C 5.414062 -6.671875 4.984375 -6.78125 4.515625 -6.78125 C 4.046875 -6.78125 3.613281 -6.671875 3.21875 -6.453125 C 2.832031 -6.242188 2.519531 -5.921875 2.28125 -5.484375 C 2.039062 -5.046875 1.921875 -4.515625 1.921875 -3.890625 C 1.921875 -3.265625 2.035156 -2.734375 2.265625 -2.296875 C 2.503906 -1.859375 2.816406 -1.53125 3.203125 -1.3125 C 3.585938 -1.101562 4.015625 -1 4.484375 -1 Z M 4.484375 -1 "/></g></g></g><g fill="#332c54" fill-opacity="1"><g transform="translate(330.616359, 70.949521)"><g><path d="M 2.375 -6.328125 C 2.632812 -6.773438 3.015625 -7.144531 3.515625 -7.4375 C 4.023438 -7.738281 4.613281 -7.890625 5.28125 -7.890625 C 5.976562 -7.890625 6.601562 -7.722656 7.15625 -7.390625 C 7.71875 -7.066406 8.160156 -6.601562 8.484375 -6 C 8.804688 -5.40625 8.96875 -4.707031 8.96875 -3.90625 C 8.96875 -3.125 8.804688 -2.425781 8.484375 -1.8125 C 8.160156 -1.195312 7.71875 -0.71875 7.15625 -0.375 C 6.601562 -0.0390625 5.976562 0.125 5.28125 0.125 C 4.625 0.125 4.039062 -0.0195312 3.53125 -0.3125 C 3.03125 -0.613281 2.644531 -0.988281 2.375 -1.4375 L 2.375 3.6875 L 1.09375 3.6875 L 1.09375 -7.765625 L 2.375 -7.765625 Z M 7.65625 -3.90625 C 7.65625 -4.5 7.535156 -5.007812 7.296875 -5.4375 C 7.054688 -5.875 6.734375 -6.207031 6.328125 -6.4375 C 5.929688 -6.664062 5.492188 -6.78125 5.015625 -6.78125 C 4.546875 -6.78125 4.109375 -6.660156 3.703125 -6.421875 C 3.304688 -6.191406 2.984375 -5.859375 2.734375 -5.421875 C 2.492188 -4.984375 2.375 -4.472656 2.375 -3.890625 C 2.375 -3.304688 2.492188 -2.796875 2.734375 -2.359375 C 2.984375 -1.921875 3.304688 -1.582031 3.703125 -1.34375 C 4.109375 -1.113281 4.546875 -1 5.015625 -1 C 5.492188 -1 5.929688 -1.113281 6.328125 -1.34375 C 6.734375 -1.582031 7.054688 -1.921875 7.296875 -2.359375 C 7.535156 -2.796875 7.65625 -3.3125 7.65625 -3.90625 Z M 7.65625 -3.90625 "/></g></g></g><g fill="#332c54" fill-opacity="1"><g transform="translate(346.860055, 70.949521)"><g><path d="M 8.171875 -4.1875 C 8.171875 -3.9375 8.160156 -3.675781 8.140625 -3.40625 L 1.921875 -3.40625 C 1.972656 -2.632812 2.234375 -2.035156 2.703125 -1.609375 C 3.179688 -1.179688 3.765625 -0.96875 4.453125 -0.96875 C 5.003906 -0.96875 5.46875 -1.097656 5.84375 -1.359375 C 6.21875 -1.617188 6.476562 -1.960938 6.625 -2.390625 L 8.015625 -2.390625 C 7.804688 -1.648438 7.390625 -1.046875 6.765625 -0.578125 C 6.148438 -0.109375 5.378906 0.125 4.453125 0.125 C 3.710938 0.125 3.050781 -0.0351562 2.46875 -0.359375 C 1.882812 -0.691406 1.425781 -1.160156 1.09375 -1.765625 C 0.769531 -2.378906 0.609375 -3.085938 0.609375 -3.890625 C 0.609375 -4.703125 0.769531 -5.410156 1.09375 -6.015625 C 1.414062 -6.617188 1.863281 -7.082031 2.4375 -7.40625 C 3.019531 -7.726562 3.691406 -7.890625 4.453125 -7.890625 C 5.191406 -7.890625 5.84375 -7.726562 6.40625 -7.40625 C 6.96875 -7.09375 7.398438 -6.65625 7.703125 -6.09375 C 8.015625 -5.53125 8.171875 -4.894531 8.171875 -4.1875 Z M 6.84375 -4.453125 C 6.84375 -4.941406 6.734375 -5.363281 6.515625 -5.71875 C 6.296875 -6.070312 6 -6.335938 5.625 -6.515625 C 5.257812 -6.703125 4.847656 -6.796875 4.390625 -6.796875 C 3.742188 -6.796875 3.191406 -6.585938 2.734375 -6.171875 C 2.273438 -5.765625 2.007812 -5.191406 1.9375 -4.453125 Z M 6.84375 -4.453125 "/></g></g></g><g fill="#332c54" fill-opacity="1"><g transform="translate(362.310202, 70.949521)"><g><path d="M 2.375 -6.5 C 2.601562 -6.945312 2.925781 -7.289062 3.34375 -7.53125 C 3.769531 -7.78125 4.285156 -7.90625 4.890625 -7.90625 L 4.890625 -6.578125 L 4.546875 -6.578125 C 3.097656 -6.578125 2.375 -5.789062 2.375 -4.21875 L 2.375 0 L 1.09375 0 L 1.09375 -7.765625 L 2.375 -7.765625 Z M 2.375 -6.5 "/></g></g></g></svg>