<svg xmlns="http://www.w3.org/2000/svg" xmlns:xlink="http://www.w3.org/1999/xlink" width="435" zoomAndPan="magnify" viewBox="0 0 326.25 374.999991" height="500" preserveAspectRatio="xMidYMid meet" version="1.0"><defs><g/><clipPath id="285d7d6278"><path d="M 0.375 0.429688 L 324.941406 0.429688 L 324.941406 266 L 0.375 266 Z M 0.375 0.429688 " clip-rule="nonzero"/></clipPath><clipPath id="a641badb7c"><path d="M 277 361 L 287 361 L 287 374.570312 L 277 374.570312 Z M 277 361 " clip-rule="nonzero"/></clipPath></defs><g clip-path="url(#285d7d6278)"><path fill="#ffffff" d="M 263.371094 163.542969 L 231.605469 163.542969 L 324.921875 0.617188 L 206.835938 0.617188 L 162.652344 77.714844 L 118.46875 0.617188 L 0.375 0.617188 L 103.601562 180.78125 L 54.832031 265.914062 L 322.058594 265.914062 Z M 105.5 236.398438 L 120.519531 210.1875 L 135.542969 236.398438 Z M 169.371094 236.398438 L 51.042969 29.945312 L 101.472656 29.945312 L 162.652344 136.703125 L 223.832031 29.945312 L 274.261719 29.945312 L 184.015625 187.523438 L 184.015625 192.871094 L 246.375 192.871094 L 271.390625 236.390625 L 169.371094 236.390625 Z M 169.371094 236.398438 " fill-opacity="1" fill-rule="nonzero"/></g><g fill="#ffffff" fill-opacity="1"><g transform="translate(6.325392, 370.087687)"><g><path d="M 7.671875 -11.359375 L 7.671875 -10.15625 L 2.734375 -10.15625 L 2.734375 -6.328125 L 6.75 -6.328125 L 6.75 -5.125 L 2.734375 -5.125 L 2.734375 0 L 1.25 0 L 1.25 -11.359375 Z M 7.671875 -11.359375 "/></g></g></g><g fill="#ffffff" fill-opacity="1"><g transform="translate(22.197546, 370.087687)"><g><path d="M 9.171875 -8.9375 L 9.171875 0 L 7.6875 0 L 7.6875 -1.3125 C 7.40625 -0.863281 7.007812 -0.507812 6.5 -0.25 C 6 0 5.445312 0.125 4.84375 0.125 C 4.144531 0.125 3.519531 -0.015625 2.96875 -0.296875 C 2.414062 -0.585938 1.976562 -1.019531 1.65625 -1.59375 C 1.332031 -2.164062 1.171875 -2.867188 1.171875 -3.703125 L 1.171875 -8.9375 L 2.640625 -8.9375 L 2.640625 -3.890625 C 2.640625 -3.015625 2.859375 -2.335938 3.296875 -1.859375 C 3.742188 -1.390625 4.359375 -1.15625 5.140625 -1.15625 C 5.929688 -1.15625 6.550781 -1.398438 7 -1.890625 C 7.457031 -2.378906 7.6875 -3.09375 7.6875 -4.03125 L 7.6875 -8.9375 Z M 9.171875 -8.9375 "/></g></g></g><g fill="#ffffff" fill-opacity="1"><g transform="translate(40.285513, 370.087687)"><g><path d="M 2.734375 -12.0625 L 2.734375 0 L 1.25 0 L 1.25 -12.0625 Z M 2.734375 -12.0625 "/></g></g></g><g fill="#ffffff" fill-opacity="1"><g transform="translate(51.954147, 370.087687)"><g><path d="M 2.734375 -12.0625 L 2.734375 0 L 1.25 0 L 1.25 -12.0625 Z M 2.734375 -12.0625 "/></g></g></g><g fill="#ffffff" fill-opacity="1"><g transform="translate(63.62278, 370.087687)"><g><path d="M 7.4375 -6.59375 L 7.4375 -5.34375 L 0.9375 -5.34375 L 0.9375 -6.59375 Z M 7.4375 -6.59375 "/></g></g></g><g fill="#ffffff" fill-opacity="1"><g transform="translate(80.260689, 370.087687)"><g><path d="M 4.859375 0.109375 C 4.109375 0.109375 3.4375 -0.0195312 2.84375 -0.28125 C 2.25 -0.550781 1.78125 -0.921875 1.4375 -1.390625 C 1.101562 -1.867188 0.929688 -2.414062 0.921875 -3.03125 L 2.515625 -3.03125 C 2.566406 -2.5 2.785156 -2.050781 3.171875 -1.6875 C 3.554688 -1.320312 4.117188 -1.140625 4.859375 -1.140625 C 5.566406 -1.140625 6.125 -1.316406 6.53125 -1.671875 C 6.9375 -2.023438 7.140625 -2.476562 7.140625 -3.03125 C 7.140625 -3.46875 7.019531 -3.820312 6.78125 -4.09375 C 6.539062 -4.363281 6.238281 -4.566406 5.875 -4.703125 C 5.519531 -4.847656 5.039062 -5.003906 4.4375 -5.171875 C 3.6875 -5.359375 3.082031 -5.550781 2.625 -5.75 C 2.175781 -5.945312 1.789062 -6.253906 1.46875 -6.671875 C 1.15625 -7.085938 1 -7.648438 1 -8.359375 C 1 -8.984375 1.15625 -9.53125 1.46875 -10 C 1.78125 -10.476562 2.222656 -10.847656 2.796875 -11.109375 C 3.367188 -11.367188 4.023438 -11.5 4.765625 -11.5 C 5.828125 -11.5 6.695312 -11.234375 7.375 -10.703125 C 8.050781 -10.171875 8.429688 -9.46875 8.515625 -8.59375 L 6.890625 -8.59375 C 6.835938 -9.019531 6.609375 -9.398438 6.203125 -9.734375 C 5.804688 -10.066406 5.273438 -10.234375 4.609375 -10.234375 C 3.992188 -10.234375 3.488281 -10.070312 3.09375 -9.75 C 2.707031 -9.425781 2.515625 -8.976562 2.515625 -8.40625 C 2.515625 -8 2.628906 -7.660156 2.859375 -7.390625 C 3.085938 -7.128906 3.375 -6.929688 3.71875 -6.796875 C 4.0625 -6.660156 4.546875 -6.507812 5.171875 -6.34375 C 5.921875 -6.132812 6.519531 -5.925781 6.96875 -5.71875 C 7.425781 -5.519531 7.816406 -5.210938 8.140625 -4.796875 C 8.472656 -4.378906 8.640625 -3.8125 8.640625 -3.09375 C 8.640625 -2.539062 8.488281 -2.019531 8.1875 -1.53125 C 7.894531 -1.039062 7.460938 -0.644531 6.890625 -0.34375 C 6.316406 -0.0390625 5.640625 0.109375 4.859375 0.109375 Z M 4.859375 0.109375 "/></g></g></g><g fill="#ffffff" fill-opacity="1"><g transform="translate(97.485143, 370.087687)"><g><path d="M 3.0625 -7.703125 L 3.0625 -2.4375 C 3.0625 -2.007812 3.15625 -1.703125 3.34375 -1.515625 C 3.53125 -1.335938 3.847656 -1.25 4.296875 -1.25 L 5.390625 -1.25 L 5.390625 0 L 4.0625 0 C 3.226562 0 2.601562 -0.1875 2.1875 -0.5625 C 1.78125 -0.945312 1.578125 -1.570312 1.578125 -2.4375 L 1.578125 -7.703125 L 0.421875 -7.703125 L 0.421875 -8.9375 L 1.578125 -8.9375 L 1.578125 -11.171875 L 3.0625 -11.171875 L 3.0625 -8.9375 L 5.390625 -8.9375 L 5.390625 -7.703125 Z M 3.0625 -7.703125 "/></g></g></g><g fill="#ffffff" fill-opacity="1"><g transform="translate(111.076333, 370.087687)"><g><path d="M 0.703125 -4.5 C 0.703125 -5.40625 0.882812 -6.203125 1.25 -6.890625 C 1.625 -7.585938 2.132812 -8.125 2.78125 -8.5 C 3.425781 -8.882812 4.144531 -9.078125 4.9375 -9.078125 C 5.71875 -9.078125 6.394531 -8.90625 6.96875 -8.5625 C 7.550781 -8.226562 7.984375 -7.804688 8.265625 -7.296875 L 8.265625 -8.9375 L 9.765625 -8.9375 L 9.765625 0 L 8.265625 0 L 8.265625 -1.65625 C 7.972656 -1.132812 7.535156 -0.703125 6.953125 -0.359375 C 6.367188 -0.0234375 5.691406 0.140625 4.921875 0.140625 C 4.128906 0.140625 3.410156 -0.0507812 2.765625 -0.4375 C 2.128906 -0.832031 1.625 -1.378906 1.25 -2.078125 C 0.882812 -2.785156 0.703125 -3.59375 0.703125 -4.5 Z M 8.265625 -4.484375 C 8.265625 -5.148438 8.128906 -5.734375 7.859375 -6.234375 C 7.585938 -6.734375 7.21875 -7.117188 6.75 -7.390625 C 6.289062 -7.660156 5.785156 -7.796875 5.234375 -7.796875 C 4.679688 -7.796875 4.175781 -7.660156 3.71875 -7.390625 C 3.257812 -7.128906 2.894531 -6.75 2.625 -6.25 C 2.351562 -5.757812 2.21875 -5.175781 2.21875 -4.5 C 2.21875 -3.8125 2.351562 -3.210938 2.625 -2.703125 C 2.894531 -2.203125 3.257812 -1.816406 3.71875 -1.546875 C 4.175781 -1.285156 4.679688 -1.15625 5.234375 -1.15625 C 5.785156 -1.15625 6.289062 -1.285156 6.75 -1.546875 C 7.21875 -1.816406 7.585938 -2.203125 7.859375 -2.703125 C 8.128906 -3.210938 8.265625 -3.804688 8.265625 -4.484375 Z M 8.265625 -4.484375 "/></g></g></g><g fill="#ffffff" fill-opacity="1"><g transform="translate(129.750843, 370.087687)"><g><path d="M 0.703125 -4.484375 C 0.703125 -5.398438 0.882812 -6.203125 1.25 -6.890625 C 1.625 -7.585938 2.140625 -8.125 2.796875 -8.5 C 3.453125 -8.882812 4.203125 -9.078125 5.046875 -9.078125 C 6.148438 -9.078125 7.054688 -8.8125 7.765625 -8.28125 C 8.472656 -7.75 8.941406 -7.007812 9.171875 -6.0625 L 7.578125 -6.0625 C 7.421875 -6.601562 7.125 -7.03125 6.6875 -7.34375 C 6.25 -7.664062 5.703125 -7.828125 5.046875 -7.828125 C 4.203125 -7.828125 3.519531 -7.535156 3 -6.953125 C 2.476562 -6.367188 2.21875 -5.546875 2.21875 -4.484375 C 2.21875 -3.410156 2.476562 -2.578125 3 -1.984375 C 3.519531 -1.398438 4.203125 -1.109375 5.046875 -1.109375 C 5.703125 -1.109375 6.242188 -1.257812 6.671875 -1.5625 C 7.109375 -1.863281 7.410156 -2.300781 7.578125 -2.875 L 9.171875 -2.875 C 8.929688 -1.957031 8.453125 -1.222656 7.734375 -0.671875 C 7.023438 -0.128906 6.128906 0.140625 5.046875 0.140625 C 4.203125 0.140625 3.453125 -0.046875 2.796875 -0.421875 C 2.140625 -0.804688 1.625 -1.34375 1.25 -2.03125 C 0.882812 -2.726562 0.703125 -3.546875 0.703125 -4.484375 Z M 0.703125 -4.484375 "/></g></g></g><g fill="#ffffff" fill-opacity="1"><g transform="translate(147.301163, 370.087687)"><g><path d="M 6.234375 0 L 2.734375 -3.9375 L 2.734375 0 L 1.25 0 L 1.25 -12.0625 L 2.734375 -12.0625 L 2.734375 -4.96875 L 6.171875 -8.9375 L 8.25 -8.9375 L 4.046875 -4.484375 L 8.265625 0 Z M 6.234375 0 "/></g></g></g><g fill="#ffffff" fill-opacity="1"><g transform="translate(163.352538, 370.087687)"><g/></g></g><g fill="#ffffff" fill-opacity="1"><g transform="translate(175.363315, 370.087687)"><g><path d="M 4.796875 -11.359375 C 6.035156 -11.359375 7.109375 -11.125 8.015625 -10.65625 C 8.921875 -10.195312 9.613281 -9.539062 10.09375 -8.6875 C 10.582031 -7.832031 10.828125 -6.820312 10.828125 -5.65625 C 10.828125 -4.488281 10.582031 -3.476562 10.09375 -2.625 C 9.613281 -1.78125 8.921875 -1.128906 8.015625 -0.671875 C 7.109375 -0.222656 6.035156 0 4.796875 0 L 1.25 0 L 1.25 -11.359375 Z M 4.796875 -1.21875 C 6.253906 -1.21875 7.367188 -1.601562 8.140625 -2.375 C 8.921875 -3.15625 9.3125 -4.25 9.3125 -5.65625 C 9.3125 -7.070312 8.921875 -8.175781 8.140625 -8.96875 C 7.359375 -9.757812 6.242188 -10.15625 4.796875 -10.15625 L 2.734375 -10.15625 L 2.734375 -1.21875 Z M 4.796875 -1.21875 "/></g></g></g><g fill="#ffffff" fill-opacity="1"><g transform="translate(194.54288, 370.087687)"><g><path d="M 9.40625 -4.8125 C 9.40625 -4.53125 9.390625 -4.226562 9.359375 -3.90625 L 2.21875 -3.90625 C 2.269531 -3.03125 2.566406 -2.34375 3.109375 -1.84375 C 3.660156 -1.351562 4.332031 -1.109375 5.125 -1.109375 C 5.757812 -1.109375 6.289062 -1.253906 6.71875 -1.546875 C 7.144531 -1.847656 7.445312 -2.25 7.625 -2.75 L 9.21875 -2.75 C 8.976562 -1.894531 8.5 -1.195312 7.78125 -0.65625 C 7.070312 -0.125 6.1875 0.140625 5.125 0.140625 C 4.269531 0.140625 3.507812 -0.046875 2.84375 -0.421875 C 2.175781 -0.804688 1.648438 -1.347656 1.265625 -2.046875 C 0.890625 -2.742188 0.703125 -3.554688 0.703125 -4.484375 C 0.703125 -5.398438 0.882812 -6.207031 1.25 -6.90625 C 1.625 -7.601562 2.144531 -8.140625 2.8125 -8.515625 C 3.476562 -8.890625 4.25 -9.078125 5.125 -9.078125 C 5.96875 -9.078125 6.710938 -8.890625 7.359375 -8.515625 C 8.015625 -8.148438 8.519531 -7.644531 8.875 -7 C 9.226562 -6.351562 9.40625 -5.625 9.40625 -4.8125 Z M 7.875 -5.125 C 7.875 -5.6875 7.75 -6.171875 7.5 -6.578125 C 7.25 -6.984375 6.90625 -7.289062 6.46875 -7.5 C 6.039062 -7.71875 5.566406 -7.828125 5.046875 -7.828125 C 4.296875 -7.828125 3.65625 -7.585938 3.125 -7.109375 C 2.601562 -6.628906 2.304688 -5.96875 2.234375 -5.125 Z M 7.875 -5.125 "/></g></g></g><g fill="#ffffff" fill-opacity="1"><g transform="translate(212.304995, 370.087687)"><g><path d="M 4.578125 -1.375 L 7.34375 -8.9375 L 8.9375 -8.9375 L 5.421875 0 L 3.703125 0 L 0.203125 -8.9375 L 1.796875 -8.9375 Z M 4.578125 -1.375 "/></g></g></g><g fill="#ffffff" fill-opacity="1"><g transform="translate(229.105832, 370.087687)"><g><path d="M 9.40625 -4.8125 C 9.40625 -4.53125 9.390625 -4.226562 9.359375 -3.90625 L 2.21875 -3.90625 C 2.269531 -3.03125 2.566406 -2.34375 3.109375 -1.84375 C 3.660156 -1.351562 4.332031 -1.109375 5.125 -1.109375 C 5.757812 -1.109375 6.289062 -1.253906 6.71875 -1.546875 C 7.144531 -1.847656 7.445312 -2.25 7.625 -2.75 L 9.21875 -2.75 C 8.976562 -1.894531 8.5 -1.195312 7.78125 -0.65625 C 7.070312 -0.125 6.1875 0.140625 5.125 0.140625 C 4.269531 0.140625 3.507812 -0.046875 2.84375 -0.421875 C 2.175781 -0.804688 1.648438 -1.347656 1.265625 -2.046875 C 0.890625 -2.742188 0.703125 -3.554688 0.703125 -4.484375 C 0.703125 -5.398438 0.882812 -6.207031 1.25 -6.90625 C 1.625 -7.601562 2.144531 -8.140625 2.8125 -8.515625 C 3.476562 -8.890625 4.25 -9.078125 5.125 -9.078125 C 5.96875 -9.078125 6.710938 -8.890625 7.359375 -8.515625 C 8.015625 -8.148438 8.519531 -7.644531 8.875 -7 C 9.226562 -6.351562 9.40625 -5.625 9.40625 -4.8125 Z M 7.875 -5.125 C 7.875 -5.6875 7.75 -6.171875 7.5 -6.578125 C 7.25 -6.984375 6.90625 -7.289062 6.46875 -7.5 C 6.039062 -7.71875 5.566406 -7.828125 5.046875 -7.828125 C 4.296875 -7.828125 3.65625 -7.585938 3.125 -7.109375 C 2.601562 -6.628906 2.304688 -5.96875 2.234375 -5.125 Z M 7.875 -5.125 "/></g></g></g><g fill="#ffffff" fill-opacity="1"><g transform="translate(246.867946, 370.087687)"><g><path d="M 2.734375 -12.0625 L 2.734375 0 L 1.25 0 L 1.25 -12.0625 Z M 2.734375 -12.0625 "/></g></g></g><g fill="#ffffff" fill-opacity="1"><g transform="translate(258.536574, 370.087687)"><g><path d="M 5.15625 0.140625 C 4.3125 0.140625 3.550781 -0.046875 2.875 -0.421875 C 2.195312 -0.804688 1.664062 -1.347656 1.28125 -2.046875 C 0.894531 -2.742188 0.703125 -3.554688 0.703125 -4.484375 C 0.703125 -5.390625 0.898438 -6.191406 1.296875 -6.890625 C 1.691406 -7.597656 2.226562 -8.140625 2.90625 -8.515625 C 3.59375 -8.890625 4.363281 -9.078125 5.21875 -9.078125 C 6.0625 -9.078125 6.828125 -8.890625 7.515625 -8.515625 C 8.203125 -8.140625 8.742188 -7.601562 9.140625 -6.90625 C 9.535156 -6.207031 9.734375 -5.398438 9.734375 -4.484375 C 9.734375 -3.554688 9.523438 -2.742188 9.109375 -2.046875 C 8.703125 -1.347656 8.148438 -0.804688 7.453125 -0.421875 C 6.765625 -0.046875 6 0.140625 5.15625 0.140625 Z M 5.15625 -1.15625 C 5.6875 -1.15625 6.179688 -1.28125 6.640625 -1.53125 C 7.109375 -1.78125 7.488281 -2.15625 7.78125 -2.65625 C 8.070312 -3.15625 8.21875 -3.765625 8.21875 -4.484375 C 8.21875 -5.203125 8.070312 -5.8125 7.78125 -6.3125 C 7.5 -6.8125 7.128906 -7.179688 6.671875 -7.421875 C 6.222656 -7.671875 5.734375 -7.796875 5.203125 -7.796875 C 4.660156 -7.796875 4.160156 -7.671875 3.703125 -7.421875 C 3.253906 -7.179688 2.894531 -6.8125 2.625 -6.3125 C 2.351562 -5.8125 2.21875 -5.203125 2.21875 -4.484375 C 2.21875 -3.753906 2.347656 -3.140625 2.609375 -2.640625 C 2.878906 -2.140625 3.234375 -1.765625 3.671875 -1.515625 C 4.117188 -1.273438 4.613281 -1.15625 5.15625 -1.15625 Z M 5.15625 -1.15625 "/></g></g></g><g clip-path="url(#a641badb7c)"><g fill="#ffffff" fill-opacity="1"><g transform="translate(276.624535, 370.087687)"><g><path d="M 2.734375 -7.28125 C 3.023438 -7.789062 3.460938 -8.21875 4.046875 -8.5625 C 4.628906 -8.90625 5.304688 -9.078125 6.078125 -9.078125 C 6.867188 -9.078125 7.585938 -8.882812 8.234375 -8.5 C 8.878906 -8.125 9.382812 -7.585938 9.75 -6.890625 C 10.125 -6.203125 10.3125 -5.40625 10.3125 -4.5 C 10.3125 -3.59375 10.125 -2.785156 9.75 -2.078125 C 9.382812 -1.378906 8.878906 -0.832031 8.234375 -0.4375 C 7.585938 -0.0507812 6.867188 0.140625 6.078125 0.140625 C 5.316406 0.140625 4.644531 -0.0234375 4.0625 -0.359375 C 3.476562 -0.703125 3.035156 -1.128906 2.734375 -1.640625 L 2.734375 4.234375 L 1.25 4.234375 L 1.25 -8.9375 L 2.734375 -8.9375 Z M 8.796875 -4.5 C 8.796875 -5.175781 8.660156 -5.757812 8.390625 -6.25 C 8.117188 -6.75 7.75 -7.128906 7.28125 -7.390625 C 6.820312 -7.660156 6.316406 -7.796875 5.765625 -7.796875 C 5.222656 -7.796875 4.71875 -7.660156 4.25 -7.390625 C 3.789062 -7.117188 3.421875 -6.726562 3.140625 -6.21875 C 2.867188 -5.71875 2.734375 -5.140625 2.734375 -4.484375 C 2.734375 -3.804688 2.867188 -3.210938 3.140625 -2.703125 C 3.421875 -2.203125 3.789062 -1.816406 4.25 -1.546875 C 4.71875 -1.285156 5.222656 -1.15625 5.765625 -1.15625 C 6.316406 -1.15625 6.820312 -1.285156 7.28125 -1.546875 C 7.75 -1.816406 8.117188 -2.203125 8.390625 -2.703125 C 8.660156 -3.210938 8.796875 -3.8125 8.796875 -4.5 Z M 8.796875 -4.5 "/></g></g></g></g><g fill="#ffffff" fill-opacity="1"><g transform="translate(295.299037, 370.087687)"><g><path d="M 9.40625 -4.8125 C 9.40625 -4.53125 9.390625 -4.226562 9.359375 -3.90625 L 2.21875 -3.90625 C 2.269531 -3.03125 2.566406 -2.34375 3.109375 -1.84375 C 3.660156 -1.351562 4.332031 -1.109375 5.125 -1.109375 C 5.757812 -1.109375 6.289062 -1.253906 6.71875 -1.546875 C 7.144531 -1.847656 7.445312 -2.25 7.625 -2.75 L 9.21875 -2.75 C 8.976562 -1.894531 8.5 -1.195312 7.78125 -0.65625 C 7.070312 -0.125 6.1875 0.140625 5.125 0.140625 C 4.269531 0.140625 3.507812 -0.046875 2.84375 -0.421875 C 2.175781 -0.804688 1.648438 -1.347656 1.265625 -2.046875 C 0.890625 -2.742188 0.703125 -3.554688 0.703125 -4.484375 C 0.703125 -5.398438 0.882812 -6.207031 1.25 -6.90625 C 1.625 -7.601562 2.144531 -8.140625 2.8125 -8.515625 C 3.476562 -8.890625 4.25 -9.078125 5.125 -9.078125 C 5.96875 -9.078125 6.710938 -8.890625 7.359375 -8.515625 C 8.015625 -8.148438 8.519531 -7.644531 8.875 -7 C 9.226562 -6.351562 9.40625 -5.625 9.40625 -4.8125 Z M 7.875 -5.125 C 7.875 -5.6875 7.75 -6.171875 7.5 -6.578125 C 7.25 -6.984375 6.90625 -7.289062 6.46875 -7.5 C 6.039062 -7.71875 5.566406 -7.828125 5.046875 -7.828125 C 4.296875 -7.828125 3.65625 -7.585938 3.125 -7.109375 C 2.601562 -6.628906 2.304688 -5.96875 2.234375 -5.125 Z M 7.875 -5.125 "/></g></g></g><g fill="#ffffff" fill-opacity="1"><g transform="translate(313.061151, 370.087687)"><g><path d="M 2.734375 -7.484375 C 2.992188 -7.992188 3.363281 -8.390625 3.84375 -8.671875 C 4.332031 -8.953125 4.925781 -9.09375 5.625 -9.09375 L 5.625 -7.5625 L 5.234375 -7.5625 C 3.566406 -7.5625 2.734375 -6.660156 2.734375 -4.859375 L 2.734375 0 L 1.25 0 L 1.25 -8.9375 L 2.734375 -8.9375 Z M 2.734375 -7.484375 "/></g></g></g><g fill="#ffffff" fill-opacity="1"><g transform="translate(5.893191, 336.391991)"><g><path d="M 24.578125 -12.890625 L 24.578125 0 L 14.484375 0 L 14.484375 -12.609375 L -0.28125 -39.921875 L 9.859375 -39.921875 L 19.5 -22.53125 L 28.921875 -39.921875 L 39.0625 -39.921875 Z M 24.578125 -12.890625 "/></g></g></g><g fill="#ffffff" fill-opacity="1"><g transform="translate(54.032083, 336.391991)"><g><path d="M 30.515625 -7.359375 L 13.0625 -7.359375 L 10.15625 0 L -0.28125 0 L 16.9375 -39.921875 L 27.375 -39.921875 L 44.203125 0 L 33.359375 0 Z M 27.546875 -15.0625 L 21.84375 -29.828125 L 16.03125 -15.0625 Z M 27.546875 -15.0625 "/></g></g></g><g fill="#ffffff" fill-opacity="1"><g transform="translate(107.304044, 336.391991)"><g><path d="M 19.328125 -40.375 C 25.296875 -40.375 30.546875 -38.890625 35.078125 -35.921875 L 31.25 -28 C 29.15625 -29.21875 26.910156 -30.21875 24.515625 -31 C 22.128906 -31.78125 20.117188 -32.171875 18.484375 -32.171875 C 15.554688 -32.171875 14.09375 -31.195312 14.09375 -29.25 C 14.09375 -28 14.8125 -26.992188 16.25 -26.234375 C 17.695312 -25.472656 19.457031 -24.816406 21.53125 -24.265625 C 23.601562 -23.710938 25.675781 -23.046875 27.75 -22.265625 C 29.820312 -21.484375 31.578125 -20.21875 33.015625 -18.46875 C 34.460938 -16.726562 35.1875 -14.523438 35.1875 -11.859375 C 35.1875 -8.023438 33.679688 -5.03125 30.671875 -2.875 C 27.671875 -0.726562 23.851562 0.34375 19.21875 0.34375 C 15.90625 0.34375 12.632812 -0.222656 9.40625 -1.359375 C 6.175781 -2.503906 3.363281 -4.066406 0.96875 -6.046875 L 4.90625 -13.859375 C 6.914062 -12.109375 9.289062 -10.671875 12.03125 -9.546875 C 14.769531 -8.429688 17.203125 -7.875 19.328125 -7.875 C 20.960938 -7.875 22.234375 -8.164062 23.140625 -8.75 C 24.054688 -9.34375 24.515625 -10.207031 24.515625 -11.34375 C 24.515625 -12.445312 23.992188 -13.367188 22.953125 -14.109375 C 21.910156 -14.859375 20.609375 -15.410156 19.046875 -15.765625 C 17.484375 -16.128906 15.789062 -16.613281 13.96875 -17.21875 C 12.144531 -17.832031 10.453125 -18.5 8.890625 -19.21875 C 7.335938 -19.9375 6.035156 -21.082031 4.984375 -22.65625 C 3.941406 -24.238281 3.421875 -26.132812 3.421875 -28.34375 C 3.421875 -31.988281 4.875 -34.90625 7.78125 -37.09375 C 10.6875 -39.28125 14.535156 -40.375 19.328125 -40.375 Z M 19.328125 -40.375 "/></g></g></g><g fill="#ffffff" fill-opacity="1"><g transform="translate(153.38972, 336.391991)"><g><path d="M 19.328125 -40.375 C 25.296875 -40.375 30.546875 -38.890625 35.078125 -35.921875 L 31.25 -28 C 29.15625 -29.21875 26.910156 -30.21875 24.515625 -31 C 22.128906 -31.78125 20.117188 -32.171875 18.484375 -32.171875 C 15.554688 -32.171875 14.09375 -31.195312 14.09375 -29.25 C 14.09375 -28 14.8125 -26.992188 16.25 -26.234375 C 17.695312 -25.472656 19.457031 -24.816406 21.53125 -24.265625 C 23.601562 -23.710938 25.675781 -23.046875 27.75 -22.265625 C 29.820312 -21.484375 31.578125 -20.21875 33.015625 -18.46875 C 34.460938 -16.726562 35.1875 -14.523438 35.1875 -11.859375 C 35.1875 -8.023438 33.679688 -5.03125 30.671875 -2.875 C 27.671875 -0.726562 23.851562 0.34375 19.21875 0.34375 C 15.90625 0.34375 12.632812 -0.222656 9.40625 -1.359375 C 6.175781 -2.503906 3.363281 -4.066406 0.96875 -6.046875 L 4.90625 -13.859375 C 6.914062 -12.109375 9.289062 -10.671875 12.03125 -9.546875 C 14.769531 -8.429688 17.203125 -7.875 19.328125 -7.875 C 20.960938 -7.875 22.234375 -8.164062 23.140625 -8.75 C 24.054688 -9.34375 24.515625 -10.207031 24.515625 -11.34375 C 24.515625 -12.445312 23.992188 -13.367188 22.953125 -14.109375 C 21.910156 -14.859375 20.609375 -15.410156 19.046875 -15.765625 C 17.484375 -16.128906 15.789062 -16.613281 13.96875 -17.21875 C 12.144531 -17.832031 10.453125 -18.5 8.890625 -19.21875 C 7.335938 -19.9375 6.035156 -21.082031 4.984375 -22.65625 C 3.941406 -24.238281 3.421875 -26.132812 3.421875 -28.34375 C 3.421875 -31.988281 4.875 -34.90625 7.78125 -37.09375 C 10.6875 -39.28125 14.535156 -40.375 19.328125 -40.375 Z M 19.328125 -40.375 "/></g></g></g><g fill="#ffffff" fill-opacity="1"><g transform="translate(199.475397, 336.391991)"><g><path d="M 14.140625 0 L 3.984375 0 L 3.984375 -39.921875 L 14.140625 -39.921875 Z M 14.140625 0 "/></g></g></g><g fill="#ffffff" fill-opacity="1"><g transform="translate(226.967954, 336.391991)"><g><path d="M 40.828125 0 L 31.875 0 L 13.515625 -24.578125 L 13.515625 0 L 3.984375 0 L 3.984375 -39.921875 L 12.953125 -39.921875 L 31.359375 -15.28125 L 31.359375 -39.921875 L 40.828125 -39.921875 Z M 40.828125 0 "/></g></g></g><g fill="#ffffff" fill-opacity="1"><g transform="translate(281.15247, 336.391991)"><g><path d="M 35.25 -31.9375 L 14.140625 -31.9375 L 14.140625 -24.015625 L 33.1875 -24.015625 L 33.1875 -16.03125 L 14.140625 -16.03125 L 14.140625 -7.984375 L 35.875 -7.984375 L 35.875 0 L 3.984375 0 L 3.984375 -39.921875 L 35.25 -39.921875 Z M 35.25 -31.9375 "/></g></g></g></svg>