<svg xmlns="http://www.w3.org/2000/svg" xmlns:xlink="http://www.w3.org/1999/xlink" width="500" zoomAndPan="magnify" viewBox="0 0 375 299.999988" height="400" preserveAspectRatio="xMidYMid meet" version="1.0"><defs><clipPath id="41f6a4216e"><path d="M 4.015625 0 L 370.765625 0 L 370.765625 300 L 4.015625 300 Z M 4.015625 0 " clip-rule="nonzero"/></clipPath></defs><g clip-path="url(#41f6a4216e)"><path fill="#332c54" d="M 301.191406 184.210938 L 265.296875 184.210938 L 370.738281 0.21875 L 237.304688 0.21875 L 187.382812 87.285156 L 137.457031 0.21875 L 4.015625 0.21875 L 120.65625 203.679688 L 65.550781 299.824219 L 367.507812 299.824219 Z M 122.800781 266.488281 L 139.773438 236.886719 L 156.746094 266.488281 Z M 194.976562 266.488281 L 61.265625 33.339844 L 118.25 33.339844 L 187.378906 153.898438 L 256.511719 33.339844 L 313.496094 33.339844 L 211.523438 211.292969 L 211.523438 217.332031 L 281.988281 217.332031 L 310.253906 266.480469 L 194.976562 266.480469 Z M 194.976562 266.488281 " fill-opacity="1" fill-rule="nonzero"/></g></svg>