<svg xmlns="http://www.w3.org/2000/svg" xmlns:xlink="http://www.w3.org/1999/xlink" width="100" zoomAndPan="magnify" viewBox="0 0 75 74.999997" height="100" preserveAspectRatio="xMidYMid meet" version="1.0"><defs><g/><clipPath id="8a895a452c"><path d="M 57.007812 18 L 74.953125 18 L 74.953125 58.15625 L 57.007812 58.15625 Z M 57.007812 18 " clip-rule="nonzero"/></clipPath><clipPath id="5fe6e7ca30"><path d="M 61.0625 54.8125 L 65.144531 54.8125 L 65.144531 58.378906 L 61.0625 58.378906 Z M 61.0625 54.8125 " clip-rule="nonzero"/></clipPath><clipPath id="af2b3f97c3"><path d="M 63.105469 54.8125 C 61.976562 54.8125 61.0625 55.609375 61.0625 56.59375 C 61.0625 57.578125 61.976562 58.378906 63.105469 58.378906 C 64.230469 58.378906 65.144531 57.578125 65.144531 56.59375 C 65.144531 55.609375 64.230469 54.8125 63.105469 54.8125 " clip-rule="nonzero"/></clipPath><clipPath id="66b999ba3e"><path d="M 61.0625 54.8125 L 65.121094 54.8125 L 65.121094 58.402344 L 61.0625 58.402344 Z M 61.0625 54.8125 " clip-rule="nonzero"/></clipPath><clipPath id="a4594c1ed9"><path d="M 63.089844 54.8125 C 61.972656 54.8125 61.0625 55.617188 61.0625 56.609375 C 61.0625 57.597656 61.972656 58.402344 63.089844 58.402344 C 64.210938 58.402344 65.117188 57.597656 65.117188 56.609375 C 65.117188 55.617188 64.210938 54.8125 63.089844 54.8125 " clip-rule="nonzero"/></clipPath></defs><g fill="#355efc" fill-opacity="1"><g transform="translate(1.427306, 57.874169)"><g><path d="M 1.90625 0.046875 C 1.613281 0.046875 1.347656 -0.00390625 1.109375 -0.109375 C 0.878906 -0.210938 0.695312 -0.359375 0.5625 -0.546875 C 0.4375 -0.734375 0.367188 -0.945312 0.359375 -1.1875 L 0.984375 -1.1875 C 1.003906 -0.976562 1.085938 -0.800781 1.234375 -0.65625 C 1.390625 -0.519531 1.613281 -0.453125 1.90625 -0.453125 C 2.1875 -0.453125 2.40625 -0.519531 2.5625 -0.65625 C 2.726562 -0.789062 2.8125 -0.96875 2.8125 -1.1875 C 2.8125 -1.363281 2.765625 -1.503906 2.671875 -1.609375 C 2.578125 -1.710938 2.457031 -1.789062 2.3125 -1.84375 C 2.164062 -1.90625 1.976562 -1.96875 1.75 -2.03125 C 1.445312 -2.101562 1.207031 -2.175781 1.03125 -2.25 C 0.851562 -2.332031 0.703125 -2.457031 0.578125 -2.625 C 0.453125 -2.789062 0.390625 -3.007812 0.390625 -3.28125 C 0.390625 -3.53125 0.453125 -3.75 0.578125 -3.9375 C 0.703125 -4.125 0.875 -4.265625 1.09375 -4.359375 C 1.320312 -4.460938 1.582031 -4.515625 1.875 -4.515625 C 2.289062 -4.515625 2.628906 -4.410156 2.890625 -4.203125 C 3.160156 -3.992188 3.3125 -3.71875 3.34375 -3.375 L 2.703125 -3.375 C 2.679688 -3.539062 2.59375 -3.6875 2.4375 -3.8125 C 2.28125 -3.945312 2.070312 -4.015625 1.8125 -4.015625 C 1.570312 -4.015625 1.375 -3.953125 1.21875 -3.828125 C 1.0625 -3.703125 0.984375 -3.53125 0.984375 -3.3125 C 0.984375 -3.144531 1.03125 -3.007812 1.125 -2.90625 C 1.21875 -2.800781 1.332031 -2.722656 1.46875 -2.671875 C 1.601562 -2.617188 1.789062 -2.554688 2.03125 -2.484375 C 2.320312 -2.410156 2.554688 -2.332031 2.734375 -2.25 C 2.921875 -2.175781 3.078125 -2.054688 3.203125 -1.890625 C 3.328125 -1.722656 3.390625 -1.5 3.390625 -1.21875 C 3.390625 -1 3.332031 -0.789062 3.21875 -0.59375 C 3.101562 -0.40625 2.929688 -0.25 2.703125 -0.125 C 2.484375 -0.0078125 2.21875 0.046875 1.90625 0.046875 Z M 1.90625 0.046875 "/></g></g></g><g fill="#355efc" fill-opacity="1"><g transform="translate(8.037377, 57.874169)"><g><path d="M 3.703125 -1.890625 C 3.703125 -1.773438 3.691406 -1.65625 3.671875 -1.53125 L 0.875 -1.53125 C 0.894531 -1.1875 1.007812 -0.914062 1.21875 -0.71875 C 1.4375 -0.53125 1.703125 -0.4375 2.015625 -0.4375 C 2.265625 -0.4375 2.472656 -0.492188 2.640625 -0.609375 C 2.804688 -0.722656 2.925781 -0.878906 3 -1.078125 L 3.625 -1.078125 C 3.53125 -0.742188 3.34375 -0.46875 3.0625 -0.25 C 2.78125 -0.0390625 2.429688 0.0625 2.015625 0.0625 C 1.679688 0.0625 1.378906 -0.0078125 1.109375 -0.15625 C 0.847656 -0.3125 0.644531 -0.523438 0.5 -0.796875 C 0.351562 -1.078125 0.28125 -1.398438 0.28125 -1.765625 C 0.28125 -2.128906 0.351562 -2.445312 0.5 -2.71875 C 0.644531 -2.988281 0.847656 -3.195312 1.109375 -3.34375 C 1.367188 -3.488281 1.671875 -3.5625 2.015625 -3.5625 C 2.347656 -3.5625 2.640625 -3.488281 2.890625 -3.34375 C 3.148438 -3.195312 3.347656 -3 3.484375 -2.75 C 3.628906 -2.5 3.703125 -2.210938 3.703125 -1.890625 Z M 3.09375 -2.015625 C 3.09375 -2.234375 3.039062 -2.421875 2.9375 -2.578125 C 2.84375 -2.742188 2.710938 -2.867188 2.546875 -2.953125 C 2.378906 -3.035156 2.191406 -3.078125 1.984375 -3.078125 C 1.691406 -3.078125 1.441406 -2.984375 1.234375 -2.796875 C 1.023438 -2.609375 0.90625 -2.347656 0.875 -2.015625 Z M 3.09375 -2.015625 "/></g></g></g><g fill="#355efc" fill-opacity="1"><g transform="translate(14.858573, 57.874169)"><g><path d="M 1.078125 -2.9375 C 1.179688 -3.132812 1.328125 -3.289062 1.515625 -3.40625 C 1.703125 -3.519531 1.929688 -3.578125 2.203125 -3.578125 L 2.203125 -2.96875 L 2.0625 -2.96875 C 1.40625 -2.96875 1.078125 -2.613281 1.078125 -1.90625 L 1.078125 0 L 0.5 0 L 0.5 -3.515625 L 1.078125 -3.515625 Z M 1.078125 -2.9375 "/></g></g></g><g fill="#355efc" fill-opacity="1"><g transform="translate(20.099531, 57.874169)"><g><path d="M 1.796875 -0.53125 L 2.890625 -3.515625 L 3.515625 -3.515625 L 2.140625 0 L 1.453125 0 L 0.078125 -3.515625 L 0.703125 -3.515625 Z M 1.796875 -0.53125 "/></g></g></g><g fill="#355efc" fill-opacity="1"><g transform="translate(26.54326, 57.874169)"><g><path d="M 0.796875 -4.078125 C 0.679688 -4.078125 0.582031 -4.113281 0.5 -4.1875 C 0.425781 -4.269531 0.390625 -4.367188 0.390625 -4.484375 C 0.390625 -4.585938 0.425781 -4.675781 0.5 -4.75 C 0.582031 -4.832031 0.679688 -4.875 0.796875 -4.875 C 0.898438 -4.875 0.988281 -4.832031 1.0625 -4.75 C 1.132812 -4.675781 1.171875 -4.585938 1.171875 -4.484375 C 1.171875 -4.367188 1.132812 -4.269531 1.0625 -4.1875 C 0.988281 -4.113281 0.898438 -4.078125 0.796875 -4.078125 Z M 1.078125 -3.515625 L 1.078125 0 L 0.5 0 L 0.5 -3.515625 Z M 1.078125 -3.515625 "/></g></g></g><g fill="#355efc" fill-opacity="1"><g transform="translate(30.971707, 57.874169)"><g><path d="M 0.28125 -1.765625 C 0.28125 -2.128906 0.351562 -2.445312 0.5 -2.71875 C 0.644531 -2.988281 0.84375 -3.195312 1.09375 -3.34375 C 1.351562 -3.488281 1.648438 -3.5625 1.984375 -3.5625 C 2.421875 -3.5625 2.773438 -3.457031 3.046875 -3.25 C 3.328125 -3.039062 3.515625 -2.753906 3.609375 -2.390625 L 2.984375 -2.390625 C 2.921875 -2.597656 2.800781 -2.765625 2.625 -2.890625 C 2.457031 -3.015625 2.242188 -3.078125 1.984375 -3.078125 C 1.648438 -3.078125 1.378906 -2.960938 1.171875 -2.734375 C 0.972656 -2.503906 0.875 -2.179688 0.875 -1.765625 C 0.875 -1.335938 0.972656 -1.007812 1.171875 -0.78125 C 1.378906 -0.550781 1.648438 -0.4375 1.984375 -0.4375 C 2.242188 -0.4375 2.457031 -0.492188 2.625 -0.609375 C 2.800781 -0.734375 2.921875 -0.90625 2.984375 -1.125 L 3.609375 -1.125 C 3.515625 -0.769531 3.328125 -0.484375 3.046875 -0.265625 C 2.765625 -0.046875 2.410156 0.0625 1.984375 0.0625 C 1.648438 0.0625 1.351562 -0.0078125 1.09375 -0.15625 C 0.84375 -0.3125 0.644531 -0.523438 0.5 -0.796875 C 0.351562 -1.066406 0.28125 -1.390625 0.28125 -1.765625 Z M 0.28125 -1.765625 "/></g></g></g><g fill="#355efc" fill-opacity="1"><g transform="translate(37.709732, 57.874169)"><g><path d="M 3.703125 -1.890625 C 3.703125 -1.773438 3.691406 -1.65625 3.671875 -1.53125 L 0.875 -1.53125 C 0.894531 -1.1875 1.007812 -0.914062 1.21875 -0.71875 C 1.4375 -0.53125 1.703125 -0.4375 2.015625 -0.4375 C 2.265625 -0.4375 2.472656 -0.492188 2.640625 -0.609375 C 2.804688 -0.722656 2.925781 -0.878906 3 -1.078125 L 3.625 -1.078125 C 3.53125 -0.742188 3.34375 -0.46875 3.0625 -0.25 C 2.78125 -0.0390625 2.429688 0.0625 2.015625 0.0625 C 1.679688 0.0625 1.378906 -0.0078125 1.109375 -0.15625 C 0.847656 -0.3125 0.644531 -0.523438 0.5 -0.796875 C 0.351562 -1.078125 0.28125 -1.398438 0.28125 -1.765625 C 0.28125 -2.128906 0.351562 -2.445312 0.5 -2.71875 C 0.644531 -2.988281 0.847656 -3.195312 1.109375 -3.34375 C 1.367188 -3.488281 1.671875 -3.5625 2.015625 -3.5625 C 2.347656 -3.5625 2.640625 -3.488281 2.890625 -3.34375 C 3.148438 -3.195312 3.347656 -3 3.484375 -2.75 C 3.628906 -2.5 3.703125 -2.210938 3.703125 -1.890625 Z M 3.09375 -2.015625 C 3.09375 -2.234375 3.039062 -2.421875 2.9375 -2.578125 C 2.84375 -2.742188 2.710938 -2.867188 2.546875 -2.953125 C 2.378906 -3.035156 2.191406 -3.078125 1.984375 -3.078125 C 1.691406 -3.078125 1.441406 -2.984375 1.234375 -2.796875 C 1.023438 -2.609375 0.90625 -2.347656 0.875 -2.015625 Z M 3.09375 -2.015625 "/></g></g></g><g fill="#355efc" fill-opacity="1"><g transform="translate(44.530928, 57.874169)"><g/></g></g><g fill="#355efc" fill-opacity="1"><g transform="translate(49.093729, 57.874169)"><g><path d="M 3.484375 -3.15625 C 3.484375 -2.78125 3.351562 -2.46875 3.09375 -2.21875 C 2.84375 -1.976562 2.457031 -1.859375 1.9375 -1.859375 L 1.078125 -1.859375 L 1.078125 0 L 0.5 0 L 0.5 -4.46875 L 1.9375 -4.46875 C 2.4375 -4.46875 2.816406 -4.34375 3.078125 -4.09375 C 3.347656 -3.851562 3.484375 -3.539062 3.484375 -3.15625 Z M 1.9375 -2.34375 C 2.257812 -2.34375 2.5 -2.410156 2.65625 -2.546875 C 2.8125 -2.691406 2.890625 -2.894531 2.890625 -3.15625 C 2.890625 -3.707031 2.570312 -3.984375 1.9375 -3.984375 L 1.078125 -3.984375 L 1.078125 -2.34375 Z M 1.9375 -2.34375 "/></g></g></g><g fill="#355efc" fill-opacity="1"><g transform="translate(55.652618, 57.874169)"><g><path d="M 1.078125 -2.9375 C 1.179688 -3.132812 1.328125 -3.289062 1.515625 -3.40625 C 1.703125 -3.519531 1.929688 -3.578125 2.203125 -3.578125 L 2.203125 -2.96875 L 2.0625 -2.96875 C 1.40625 -2.96875 1.078125 -2.613281 1.078125 -1.90625 L 1.078125 0 L 0.5 0 L 0.5 -3.515625 L 1.078125 -3.515625 Z M 1.078125 -2.9375 "/></g></g></g><g fill="#355efc" fill-opacity="1"><g transform="translate(60.891639, 57.874169)"><g/></g></g><g fill="#355efc" fill-opacity="1"><g transform="translate(65.45444, 57.874169)"><g/></g></g><g fill="#355efc" fill-opacity="1"><g transform="translate(70.017241, 57.874169)"><g/></g></g><g fill="#355efc" fill-opacity="1"><g transform="translate(0.0000015, 50.543206)"><g><path d="M 1.390625 -10.453125 C 1.390625 -12.523438 1.820312 -14.363281 2.6875 -15.96875 C 3.550781 -17.570312 4.726562 -18.816406 6.21875 -19.703125 C 7.707031 -20.597656 9.351562 -21.046875 11.15625 -21.046875 C 12.789062 -21.046875 14.210938 -20.722656 15.421875 -20.078125 C 16.640625 -19.441406 17.613281 -18.648438 18.34375 -17.703125 L 18.34375 -20.703125 L 22.65625 -20.703125 L 22.65625 0 L 18.34375 0 L 18.34375 -3.078125 C 17.613281 -2.097656 16.617188 -1.28125 15.359375 -0.625 C 14.109375 0.0195312 12.679688 0.34375 11.078125 0.34375 C 9.304688 0.34375 7.679688 -0.113281 6.203125 -1.03125 C 4.722656 -1.945312 3.550781 -3.222656 2.6875 -4.859375 C 1.820312 -6.503906 1.390625 -8.367188 1.390625 -10.453125 Z M 18.34375 -10.375 C 18.34375 -11.800781 18.046875 -13.039062 17.453125 -14.09375 C 16.867188 -15.144531 16.097656 -15.945312 15.140625 -16.5 C 14.191406 -17.050781 13.164062 -17.328125 12.0625 -17.328125 C 10.957031 -17.328125 9.925781 -17.054688 8.96875 -16.515625 C 8.019531 -15.972656 7.25 -15.179688 6.65625 -14.140625 C 6.070312 -13.109375 5.78125 -11.878906 5.78125 -10.453125 C 5.78125 -9.023438 6.070312 -7.769531 6.65625 -6.6875 C 7.25 -5.613281 8.03125 -4.789062 9 -4.21875 C 9.96875 -3.65625 10.988281 -3.375 12.0625 -3.375 C 13.164062 -3.375 14.191406 -3.648438 15.140625 -4.203125 C 16.097656 -4.753906 16.867188 -5.5625 17.453125 -6.625 C 18.046875 -7.695312 18.34375 -8.945312 18.34375 -10.375 Z M 18.34375 -10.375 "/></g></g></g><g fill="#355efc" fill-opacity="1"><g transform="translate(25.475289, 50.543206)"><g><path d="M 7.109375 -27.8125 L 7.109375 0 L 2.8125 0 L 2.8125 -27.8125 Z M 7.109375 -27.8125 "/></g></g></g><g fill="#355efc" fill-opacity="1"><g transform="translate(35.394871, 50.543206)"><g><path d="M 7.109375 -27.8125 L 7.109375 0 L 2.8125 0 L 2.8125 -27.8125 Z M 7.109375 -27.8125 "/></g></g></g><g fill="#355efc" fill-opacity="1"><g transform="translate(45.314453, 50.543206)"><g><path d="M 11.796875 0.34375 C 9.847656 0.34375 8.082031 -0.0976562 6.5 -0.984375 C 4.925781 -1.878906 3.6875 -3.132812 2.78125 -4.75 C 1.875 -6.363281 1.421875 -8.238281 1.421875 -10.375 C 1.421875 -12.476562 1.882812 -14.34375 2.8125 -15.96875 C 3.738281 -17.59375 5.003906 -18.84375 6.609375 -19.71875 C 8.210938 -20.601562 10.003906 -21.046875 11.984375 -21.046875 C 13.960938 -21.046875 15.753906 -20.601562 17.359375 -19.71875 C 18.960938 -18.84375 20.226562 -17.59375 21.15625 -15.96875 C 22.082031 -14.34375 22.546875 -12.476562 22.546875 -10.375 C 22.546875 -8.269531 22.066406 -6.398438 21.109375 -4.765625 C 20.160156 -3.140625 18.863281 -1.878906 17.21875 -0.984375 C 15.582031 -0.0976562 13.773438 0.34375 11.796875 0.34375 Z M 11.796875 -3.375 C 12.898438 -3.375 13.929688 -3.632812 14.890625 -4.15625 C 15.859375 -4.6875 16.644531 -5.476562 17.25 -6.53125 C 17.851562 -7.582031 18.15625 -8.863281 18.15625 -10.375 C 18.15625 -11.875 17.863281 -13.144531 17.28125 -14.1875 C 16.707031 -15.226562 15.941406 -16.007812 14.984375 -16.53125 C 14.035156 -17.0625 13.007812 -17.328125 11.90625 -17.328125 C 10.8125 -17.328125 9.789062 -17.0625 8.84375 -16.53125 C 7.90625 -16.007812 7.160156 -15.226562 6.609375 -14.1875 C 6.054688 -13.144531 5.78125 -11.875 5.78125 -10.375 C 5.78125 -8.144531 6.347656 -6.421875 7.484375 -5.203125 C 8.628906 -3.984375 10.066406 -3.375 11.796875 -3.375 Z M 11.796875 -3.375 "/></g></g></g><g clip-path="url(#8a895a452c)"><path fill="#355efc" d="M 59.210938 23.191406 C 61.003906 23.78125 62.671875 24.625 64.210938 25.714844 C 65.753906 26.804688 67.097656 28.097656 68.246094 29.59375 C 69.4375 31.144531 70.371094 32.832031 71.050781 34.660156 C 71.726562 36.492188 72.121094 38.378906 72.230469 40.328125 C 72.335938 42.34375 72.144531 44.332031 71.652344 46.289062 C 71.160156 48.246094 70.390625 50.089844 69.34375 51.816406 C 68.257812 53.597656 66.9375 55.179688 65.375 56.5625 C 63.816406 57.945312 62.085938 59.070312 60.1875 59.933594 C 62.226562 59.246094 64.121094 58.273438 65.867188 57.015625 C 67.613281 55.761719 69.136719 54.273438 70.4375 52.558594 C 71.777344 50.789062 72.828125 48.863281 73.585938 46.777344 C 74.34375 44.695312 74.777344 42.542969 74.882812 40.328125 C 74.992188 38.046875 74.761719 35.796875 74.191406 33.585938 C 73.621094 31.375 72.734375 29.296875 71.535156 27.351562 C 70.300781 25.347656 68.796875 23.574219 67.03125 22.023438 C 65.261719 20.472656 63.300781 19.21875 61.15625 18.257812 L 61.113281 18.257812 C 60.792969 18.113281 60.453125 18.035156 60.101562 18.027344 C 59.75 18.015625 59.40625 18.074219 59.078125 18.203125 C 58.746094 18.328125 58.453125 18.511719 58.195312 18.753906 C 57.941406 18.996094 57.742188 19.28125 57.597656 19.601562 C 57.453125 19.925781 57.375 20.261719 57.367188 20.613281 C 57.355469 20.96875 57.414062 21.308594 57.539062 21.636719 C 57.667969 21.96875 57.851562 22.261719 58.09375 22.515625 C 58.335938 22.773438 58.621094 22.972656 58.941406 23.117188 C 59.03125 23.125 59.125 23.160156 59.210938 23.191406 Z M 59.210938 23.191406 " fill-opacity="1" fill-rule="nonzero"/></g><g clip-path="url(#5fe6e7ca30)"><g clip-path="url(#af2b3f97c3)"><path fill="#355efc" d="M 61.0625 54.8125 L 65.144531 54.8125 L 65.144531 58.378906 L 61.0625 58.378906 Z M 61.0625 54.8125 " fill-opacity="1" fill-rule="nonzero"/></g></g><g clip-path="url(#66b999ba3e)"><g clip-path="url(#a4594c1ed9)"><path stroke-linecap="butt" transform="matrix(0.15511, 0, 0, 0.157217, 61.063653, 54.812995)" fill="none" stroke-linejoin="miter" d="M 13.062911 -0.00314548 C 5.860372 -0.00314548 -0.00743028 5.11517 -0.00743028 11.426103 C -0.00743028 17.71219 5.860372 22.830506 13.062911 22.830506 C 20.290634 22.830506 26.133253 17.71219 26.133253 11.426103 C 26.133253 5.11517 20.290634 -0.00314548 13.062911 -0.00314548 " stroke="#355efc" stroke-width="28.83832" stroke-opacity="1" stroke-miterlimit="4"/></g></g></svg>