<svg xmlns="http://www.w3.org/2000/svg" xmlns:xlink="http://www.w3.org/1999/xlink" width="100" zoomAndPan="magnify" viewBox="0 0 75 74.999997" height="100" preserveAspectRatio="xMidYMid meet" version="1.0"><defs><g/><clipPath id="c5d18323b9"><path d="M 0 32.488281 L 75 32.488281 L 75 69.050781 L 0 69.050781 Z M 0 32.488281 " clip-rule="nonzero"/></clipPath><clipPath id="2c13ff9d63"><path d="M 20.929688 6.042969 L 43.539062 6.042969 L 43.539062 51.042969 L 20.929688 51.042969 Z M 20.929688 6.042969 " clip-rule="nonzero"/></clipPath><clipPath id="0ceb88b6fc"><path d="M 41.605469 22.8125 L 71.535156 22.8125 L 71.535156 34.464844 L 41.605469 34.464844 Z M 41.605469 22.8125 " clip-rule="nonzero"/></clipPath><clipPath id="0680add352"><path d="M 22.265625 7.222656 L 43.613281 7.222656 L 43.613281 49.410156 L 22.265625 49.410156 Z M 22.265625 7.222656 " clip-rule="nonzero"/></clipPath><clipPath id="5f0231a1ce"><path d="M 41.789062 22.945312 L 70.046875 22.945312 L 70.046875 33.867188 L 41.789062 33.867188 Z M 41.789062 22.945312 " clip-rule="nonzero"/></clipPath></defs><g clip-path="url(#c5d18323b9)"><path fill="#264289" d="M 62.035156 43.269531 C 59.589844 43.269531 57.34375 43.957031 55.386719 45.132812 C 54.117188 39.449219 49.035156 35.230469 42.875 35.230469 C 40.628906 35.230469 38.574219 35.820312 36.71875 36.800781 C 34.371094 34.152344 30.949219 32.488281 27.140625 32.488281 C 20.6875 32.488281 15.410156 37.191406 14.527344 43.464844 C 14.039062 43.367188 13.550781 43.367188 12.964844 43.367188 C 5.925781 43.367188 0.160156 49.152344 0.160156 56.210938 C 0.160156 63.265625 5.925781 69.050781 12.964844 69.050781 L 62.035156 69.050781 C 69.074219 69.050781 74.839844 63.265625 74.839844 56.210938 C 74.839844 49.054688 69.074219 43.269531 62.035156 43.269531 Z M 62.035156 43.269531 " fill-opacity="1" fill-rule="nonzero"/></g><g clip-path="url(#2c13ff9d63)"><path fill="#264289" d="M 31.28125 9.640625 C 31.28125 9.644531 31.242188 9.667969 31.199219 9.699219 C 31.03125 9.8125 30.648438 9.9375 30.261719 9.996094 L 30.214844 10.003906 L 30.191406 10.003906 L 30.144531 10.011719 L 30.121094 10.011719 L 30.097656 10.015625 L 30.074219 10.015625 L 30.054688 10.019531 L 30.027344 10.019531 L 30.007812 10.023438 L 29.941406 10.023438 L 29.917969 10.027344 L 29.789062 10.027344 L 29.769531 10.023438 L 29.707031 10.023438 L 29.6875 10.019531 L 29.667969 10.019531 L 29.648438 10.015625 L 29.628906 10.015625 L 29.609375 10.011719 L 29.589844 10.011719 L 29.570312 10.007812 C 29.285156 9.964844 29.085938 9.867188 29.074219 9.742188 C 29.070312 9.71875 29.238281 9.644531 29.386719 9.570312 C 29.992188 9.246094 30.828125 8.660156 30.738281 7.867188 C 30.734375 7.816406 30.714844 7.785156 30.695312 7.785156 L 30.691406 7.78125 L 30.6875 7.78125 L 30.6875 7.785156 C 30.675781 7.785156 30.664062 7.789062 30.652344 7.800781 C 30.292969 8.128906 29.421875 8.542969 28.820312 8.632812 C 28.808594 8.636719 28.796875 8.636719 28.789062 8.636719 L 28.785156 8.636719 C 28.777344 8.640625 28.765625 8.640625 28.757812 8.640625 C 28.746094 8.640625 28.734375 8.644531 28.722656 8.644531 C 28.714844 8.644531 28.703125 8.644531 28.691406 8.648438 C 28.683594 8.648438 28.671875 8.648438 28.664062 8.648438 C 28.652344 8.648438 28.644531 8.648438 28.632812 8.648438 C 28.625 8.648438 28.613281 8.648438 28.605469 8.648438 C 28.59375 8.648438 28.585938 8.648438 28.578125 8.648438 C 28.570312 8.648438 28.558594 8.648438 28.550781 8.648438 C 28.539062 8.648438 28.574219 8.574219 28.625 8.457031 C 28.769531 8.128906 28.886719 7.828125 28.953125 7.46875 C 29.011719 7.132812 29.058594 6.476562 28.828125 6.191406 C 28.808594 6.167969 28.785156 6.144531 28.761719 6.128906 C 28.757812 6.125 28.753906 6.125 28.75 6.121094 L 28.746094 6.121094 C 28.734375 6.125 28.726562 6.144531 28.714844 6.199219 C 28.582031 6.742188 27.808594 8.011719 27.292969 8.105469 C 27.28125 8.109375 27.269531 8.109375 27.257812 8.109375 C 27.246094 8.109375 27.234375 8.113281 27.222656 8.113281 C 27.210938 8.109375 27.203125 8.109375 27.191406 8.109375 C 27.003906 8.082031 26.867188 7.859375 26.828125 7.335938 C 26.824219 7.28125 26.796875 6.949219 26.742188 6.636719 C 26.691406 6.335938 26.617188 6.054688 26.523438 6.042969 C 26.519531 6.042969 26.519531 6.042969 26.515625 6.042969 L 26.511719 6.042969 C 26.5 6.046875 26.492188 6.050781 26.480469 6.058594 C 26.378906 6.128906 26.257812 6.449219 26.097656 6.910156 C 25.382812 8.976562 25.042969 8.191406 24.671875 6.515625 C 24.667969 6.488281 24.601562 6.167969 24.578125 6.164062 C 24.539062 6.171875 24.492188 6.226562 24.445312 6.3125 C 24.113281 6.886719 24.003906 7.621094 23.964844 8.273438 C 23.925781 8.957031 23.8125 8.867188 23.449219 8.324219 C 23.195312 7.949219 22.980469 7.445312 22.9375 7.113281 C 22.933594 7.070312 22.933594 7.015625 22.914062 7.015625 L 22.910156 7.015625 C 22.890625 7.019531 22.875 7.035156 22.859375 7.054688 C 22.460938 7.507812 22.628906 8.6875 22.730469 9.242188 C 22.789062 9.539062 22.75 9.660156 22.667969 9.671875 C 22.664062 9.671875 22.660156 9.671875 22.65625 9.671875 C 22.65625 9.671875 22.652344 9.671875 22.648438 9.671875 C 22.644531 9.671875 22.640625 9.671875 22.636719 9.671875 C 22.507812 9.652344 22.3125 9.421875 22.210938 9.195312 C 22.121094 8.988281 22.078125 8.824219 22.046875 8.605469 C 22.042969 8.605469 22.042969 8.605469 22.039062 8.609375 C 21.972656 8.699219 21.875 9.039062 21.851562 9.15625 C 21.652344 10.097656 21.820312 10.839844 22.589844 10.941406 C 22.882812 10.980469 23.703125 10.820312 24.085938 10.800781 C 24.847656 10.753906 25.539062 10.824219 26.273438 10.988281 C 26.925781 11.136719 27.628906 11.425781 28.316406 11.527344 C 28.332031 11.527344 28.347656 11.53125 28.363281 11.53125 C 28.378906 11.535156 28.394531 11.535156 28.410156 11.539062 C 28.425781 11.539062 28.441406 11.542969 28.457031 11.542969 L 28.503906 11.546875 C 28.519531 11.550781 28.535156 11.550781 28.550781 11.550781 C 28.566406 11.550781 28.582031 11.554688 28.597656 11.554688 C 28.613281 11.554688 28.628906 11.554688 28.640625 11.554688 L 28.644531 11.554688 C 28.660156 11.558594 28.675781 11.558594 28.6875 11.558594 C 28.707031 11.558594 28.722656 11.558594 28.734375 11.558594 C 28.75 11.558594 28.769531 11.558594 28.78125 11.558594 C 28.796875 11.558594 28.8125 11.558594 28.828125 11.558594 C 28.84375 11.558594 28.859375 11.558594 28.875 11.554688 C 28.890625 11.554688 28.90625 11.554688 28.921875 11.554688 C 28.9375 11.554688 28.953125 11.550781 28.96875 11.550781 C 28.984375 11.550781 28.996094 11.546875 29.015625 11.546875 C 29.027344 11.546875 29.042969 11.542969 29.058594 11.542969 C 29.074219 11.539062 29.089844 11.539062 29.105469 11.535156 C 29.152344 11.527344 29.199219 11.519531 29.242188 11.507812 C 30.949219 11.136719 31.4375 9.664062 31.289062 9.640625 C 31.289062 9.640625 31.285156 9.640625 31.28125 9.640625 Z M 23.941406 14.109375 C 23.960938 14.445312 23.890625 14.808594 23.710938 15.171875 C 23.648438 15.304688 23.582031 15.433594 23.507812 15.558594 C 22.195312 17.722656 22.839844 18.855469 23.667969 18.960938 C 23.683594 18.960938 23.699219 18.964844 23.714844 18.964844 C 23.734375 18.964844 23.75 18.964844 23.765625 18.96875 C 23.78125 18.96875 23.796875 18.96875 23.8125 18.96875 C 23.832031 18.96875 23.847656 18.964844 23.863281 18.964844 C 23.882812 18.964844 23.898438 18.960938 23.914062 18.960938 C 23.929688 18.960938 23.945312 18.957031 23.964844 18.953125 C 24.082031 18.9375 24.195312 18.898438 24.304688 18.839844 C 24.949219 18.507812 25.398438 17.417969 24.699219 15.617188 C 24.464844 15.007812 24.230469 14.503906 23.941406 14.109375 Z M 20.929688 12.316406 L 20.933594 12.316406 L 20.933594 12.3125 L 20.9375 12.3125 C 20.957031 12.3125 20.980469 12.3125 21 12.308594 L 21.003906 12.308594 C 21.011719 12.308594 21.023438 12.308594 21.035156 12.308594 C 21.046875 12.308594 21.058594 12.308594 21.070312 12.308594 L 21.097656 12.304688 C 22.527344 12.269531 23.8125 13.230469 24.5625 14.394531 C 26.132812 16.832031 25.472656 20.457031 24.773438 23.054688 C 24.398438 24.433594 24.085938 25.816406 23.882812 27.183594 C 22.859375 34.136719 25.378906 39.5625 32.339844 41.9375 C 34.070312 42.527344 34.847656 43.40625 35.164062 45.226562 C 35.320312 46.144531 35.332031 47.253906 35.230469 48.683594 C 35.21875 48.878906 35.195312 49.050781 35.167969 49.199219 C 35.007812 50.007812 34.398438 50.296875 33.707031 50.390625 C 33.492188 50.421875 33.269531 50.429688 33.050781 50.433594 C 32.230469 50.4375 31.5 50.367188 30.667969 50.515625 C 30.378906 50.570312 30.097656 50.644531 29.824219 50.75 C 29.558594 50.855469 29.320312 50.992188 29.222656 51.042969 C 29.222656 51.046875 29.503906 51.003906 29.871094 50.957031 C 30.699219 50.855469 31.457031 50.828125 32.285156 50.910156 C 33.167969 50.992188 33.855469 51.046875 34.734375 50.8125 C 34.820312 50.792969 34.902344 50.765625 34.980469 50.746094 C 35.894531 50.460938 36.074219 50.488281 36.96875 50.769531 C 37.246094 50.859375 37.5625 50.9375 37.835938 50.925781 C 37.894531 50.925781 37.949219 50.921875 37.949219 50.921875 C 37.945312 50.910156 37.824219 50.851562 37.785156 50.835938 C 37.085938 50.519531 36.554688 50.003906 36.421875 49.226562 C 36.398438 49.082031 36.382812 48.925781 36.371094 48.761719 C 36.246094 47.347656 36.277344 46.191406 36.460938 45.183594 C 36.671875 44.03125 36.941406 43.253906 37.441406 42.625 C 37.976562 41.957031 38.757812 41.523438 39.605469 40.96875 C 41.46875 39.746094 43.046875 37.964844 43.449219 35.695312 C 43.484375 35.480469 43.511719 35.261719 43.523438 35.039062 C 41.226562 41.972656 31.023438 41.914062 30.121094 33.757812 C 30.050781 33.132812 30.042969 32.574219 30.054688 32.128906 C 32.347656 40.847656 40.964844 37.578125 40.890625 37.578125 C 35.976562 37.578125 32.53125 34.992188 31.539062 30.253906 C 31.519531 30.152344 31.496094 30.046875 31.476562 29.941406 C 32.910156 33.535156 36.054688 35.628906 40.9375 34.722656 C 36.929688 34.695312 33.589844 31.835938 32.789062 28.035156 C 33.917969 30.609375 36.324219 32.355469 40.1875 32.582031 C 38.730469 32.210938 37.457031 31.476562 36.445312 30.496094 C 33.957031 28.09375 33.742188 24.917969 33.300781 21.730469 C 33.058594 19.964844 32.746094 18.324219 32.054688 16.652344 C 31.558594 15.457031 30.894531 14.347656 30.015625 13.449219 C 28.808594 12.210938 27.246094 11.476562 25.582031 11.242188 C 24.738281 11.121094 23.734375 11.125 22.859375 11.300781 C 22.121094 11.453125 21.453125 11.730469 21.027344 12.171875 C 20.980469 12.21875 20.941406 12.269531 20.929688 12.3125 C 20.929688 12.3125 20.929688 12.3125 20.929688 12.316406 " fill-opacity="1" fill-rule="evenodd"/></g><path fill="#264289" d="M 41.898438 35.039062 C 43.664062 26.742188 50.710938 25.234375 55.578125 31.402344 C 50.417969 27.472656 44.816406 29.628906 41.898438 35.039062 " fill-opacity="1" fill-rule="nonzero"/><path fill="#264289" d="M 67.359375 13.335938 C 67.804688 14.414062 67.882812 15.945312 67.621094 17.175781 C 66.675781 21.585938 62.835938 23.230469 58.90625 23.210938 C 57.078125 23.203125 55.375 22.816406 53.683594 22.507812 C 48.542969 21.578125 43.15625 22.578125 41.742188 28.378906 C 41.480469 29.453125 41.367188 30.6875 41.425781 32.105469 C 40.804688 30.464844 40.519531 28.878906 40.527344 27.410156 C 40.546875 22.515625 43.808594 18.96875 48.714844 18.875 C 50.167969 18.847656 51.671875 19.089844 53.160156 19.429688 C 57.234375 20.363281 63.941406 22.015625 66.5625 17.425781 C 67.160156 16.386719 67.457031 15.136719 67.390625 13.761719 C 67.386719 13.621094 67.375 13.476562 67.359375 13.335938 " fill-opacity="1" fill-rule="evenodd"/><g clip-path="url(#0ceb88b6fc)"><path fill="#264289" d="M 71.492188 22.824219 C 71.652344 23.980469 71.34375 25.480469 70.785156 26.609375 C 68.769531 30.636719 64.644531 31.261719 60.84375 30.25 C 59.078125 29.777344 57.523438 28.976562 55.964844 28.25 C 51.222656 26.054688 45.753906 25.664062 42.945312 30.921875 C 42.421875 31.894531 42.003906 33.058594 41.703125 34.449219 C 41.515625 32.703125 41.632812 31.097656 42.007812 29.679688 C 43.246094 24.945312 47.289062 22.335938 52.058594 23.480469 C 53.472656 23.820312 54.867188 24.4375 56.222656 25.140625 C 60.0625 27.136719 65.316406 30.410156 69.320312 26.933594 C 70.429688 25.972656 71.207031 24.578125 71.492188 22.824219 " fill-opacity="1" fill-rule="evenodd"/></g><path fill="#264289" d="M 42.140625 35.394531 C 46.398438 28.070312 53.5625 28.859375 56.265625 36.25 C 52.585938 30.890625 46.597656 31.175781 42.140625 35.394531 " fill-opacity="1" fill-rule="nonzero"/><g fill="#ffffff" fill-opacity="1"><g transform="translate(3.673528, 61.097269)"><g><path d="M 0.671875 -5.09375 C 0.671875 -6.113281 0.878906 -7.015625 1.296875 -7.796875 C 1.722656 -8.578125 2.300781 -9.179688 3.03125 -9.609375 C 3.757812 -10.046875 4.566406 -10.265625 5.453125 -10.265625 C 6.242188 -10.265625 6.9375 -10.109375 7.53125 -9.796875 C 8.125 -9.492188 8.597656 -9.109375 8.953125 -8.640625 L 8.953125 -10.109375 L 11.0625 -10.109375 L 11.0625 0 L 8.953125 0 L 8.953125 -1.5 C 8.597656 -1.019531 8.113281 -0.617188 7.5 -0.296875 C 6.882812 0.015625 6.1875 0.171875 5.40625 0.171875 C 4.539062 0.171875 3.742188 -0.0507812 3.015625 -0.5 C 2.296875 -0.945312 1.722656 -1.570312 1.296875 -2.375 C 0.878906 -3.175781 0.671875 -4.082031 0.671875 -5.09375 Z M 8.953125 -5.0625 C 8.953125 -5.757812 8.804688 -6.363281 8.515625 -6.875 C 8.234375 -7.394531 7.859375 -7.785156 7.390625 -8.046875 C 6.929688 -8.316406 6.429688 -8.453125 5.890625 -8.453125 C 5.347656 -8.453125 4.84375 -8.320312 4.375 -8.0625 C 3.914062 -7.800781 3.539062 -7.414062 3.25 -6.90625 C 2.96875 -6.394531 2.828125 -5.789062 2.828125 -5.09375 C 2.828125 -4.394531 2.96875 -3.78125 3.25 -3.25 C 3.539062 -2.726562 3.921875 -2.332031 4.390625 -2.0625 C 4.859375 -1.789062 5.359375 -1.65625 5.890625 -1.65625 C 6.429688 -1.65625 6.929688 -1.785156 7.390625 -2.046875 C 7.859375 -2.316406 8.234375 -2.710938 8.515625 -3.234375 C 8.804688 -3.753906 8.953125 -4.363281 8.953125 -5.0625 Z M 8.953125 -5.0625 "/></g></g></g><g fill="#ffffff" fill-opacity="1"><g transform="translate(16.105701, 61.097269)"><g><path d="M 3.46875 -8.625 C 3.820312 -9.082031 4.300781 -9.46875 4.90625 -9.78125 C 5.519531 -10.101562 6.210938 -10.265625 6.984375 -10.265625 C 7.867188 -10.265625 8.675781 -10.046875 9.40625 -9.609375 C 10.132812 -9.179688 10.703125 -8.578125 11.109375 -7.796875 C 11.523438 -7.015625 11.734375 -6.113281 11.734375 -5.09375 C 11.734375 -4.082031 11.523438 -3.175781 11.109375 -2.375 C 10.703125 -1.570312 10.132812 -0.945312 9.40625 -0.5 C 8.675781 -0.0507812 7.867188 0.171875 6.984375 0.171875 C 6.210938 0.171875 5.523438 0.015625 4.921875 -0.296875 C 4.328125 -0.609375 3.84375 -1 3.46875 -1.46875 L 3.46875 4.8125 L 1.375 4.8125 L 1.375 -10.109375 L 3.46875 -10.109375 Z M 9.609375 -5.09375 C 9.609375 -5.789062 9.460938 -6.394531 9.171875 -6.90625 C 8.890625 -7.414062 8.515625 -7.800781 8.046875 -8.0625 C 7.578125 -8.320312 7.070312 -8.453125 6.53125 -8.453125 C 6 -8.453125 5.5 -8.316406 5.03125 -8.046875 C 4.5625 -7.785156 4.179688 -7.394531 3.890625 -6.875 C 3.609375 -6.363281 3.46875 -5.757812 3.46875 -5.0625 C 3.46875 -4.363281 3.609375 -3.753906 3.890625 -3.234375 C 4.179688 -2.710938 4.5625 -2.316406 5.03125 -2.046875 C 5.5 -1.785156 6 -1.65625 6.53125 -1.65625 C 7.070312 -1.65625 7.578125 -1.789062 8.046875 -2.0625 C 8.515625 -2.332031 8.890625 -2.726562 9.171875 -3.25 C 9.460938 -3.78125 9.609375 -4.394531 9.609375 -5.09375 Z M 9.609375 -5.09375 "/></g></g></g><g fill="#ffffff" fill-opacity="1"><g transform="translate(28.537873, 61.097269)"><g><path d="M 3.46875 -8.625 C 3.820312 -9.082031 4.300781 -9.46875 4.90625 -9.78125 C 5.519531 -10.101562 6.210938 -10.265625 6.984375 -10.265625 C 7.867188 -10.265625 8.675781 -10.046875 9.40625 -9.609375 C 10.132812 -9.179688 10.703125 -8.578125 11.109375 -7.796875 C 11.523438 -7.015625 11.734375 -6.113281 11.734375 -5.09375 C 11.734375 -4.082031 11.523438 -3.175781 11.109375 -2.375 C 10.703125 -1.570312 10.132812 -0.945312 9.40625 -0.5 C 8.675781 -0.0507812 7.867188 0.171875 6.984375 0.171875 C 6.210938 0.171875 5.523438 0.015625 4.921875 -0.296875 C 4.328125 -0.609375 3.84375 -1 3.46875 -1.46875 L 3.46875 4.8125 L 1.375 4.8125 L 1.375 -10.109375 L 3.46875 -10.109375 Z M 9.609375 -5.09375 C 9.609375 -5.789062 9.460938 -6.394531 9.171875 -6.90625 C 8.890625 -7.414062 8.515625 -7.800781 8.046875 -8.0625 C 7.578125 -8.320312 7.070312 -8.453125 6.53125 -8.453125 C 6 -8.453125 5.5 -8.316406 5.03125 -8.046875 C 4.5625 -7.785156 4.179688 -7.394531 3.890625 -6.875 C 3.609375 -6.363281 3.46875 -5.757812 3.46875 -5.0625 C 3.46875 -4.363281 3.609375 -3.753906 3.890625 -3.234375 C 4.179688 -2.710938 4.5625 -2.316406 5.03125 -2.046875 C 5.5 -1.785156 6 -1.65625 6.53125 -1.65625 C 7.070312 -1.65625 7.578125 -1.789062 8.046875 -2.0625 C 8.515625 -2.332031 8.890625 -2.726562 9.171875 -3.25 C 9.460938 -3.78125 9.609375 -4.394531 9.609375 -5.09375 Z M 9.609375 -5.09375 "/></g></g></g><g fill="#ffffff" fill-opacity="1"><g transform="translate(40.970045, 61.097269)"><g><path d="M 0.828125 -11.46875 L 0.828125 -13.375 L 4.640625 -13.375 L 4.640625 0 L 2.53125 0 L 2.53125 -11.46875 Z M 0.828125 -11.46875 "/></g></g></g><g fill="#ffffff" fill-opacity="1"><g transform="translate(47.387832, 61.097269)"><g><path d="M 2.25 -2.84375 C 3.425781 -3.851562 4.351562 -4.6875 5.03125 -5.34375 C 5.707031 -6 6.269531 -6.679688 6.71875 -7.390625 C 7.175781 -8.097656 7.40625 -8.804688 7.40625 -9.515625 C 7.40625 -10.253906 7.226562 -10.832031 6.875 -11.25 C 6.53125 -11.664062 5.988281 -11.875 5.25 -11.875 C 4.519531 -11.875 3.957031 -11.644531 3.5625 -11.1875 C 3.164062 -10.726562 2.957031 -10.113281 2.9375 -9.34375 L 0.921875 -9.34375 C 0.953125 -10.726562 1.367188 -11.789062 2.171875 -12.53125 C 2.972656 -13.269531 3.992188 -13.640625 5.234375 -13.640625 C 6.566406 -13.640625 7.609375 -13.273438 8.359375 -12.546875 C 9.109375 -11.816406 9.484375 -10.835938 9.484375 -9.609375 C 9.484375 -8.734375 9.257812 -7.890625 8.8125 -7.078125 C 8.363281 -6.265625 7.832031 -5.535156 7.21875 -4.890625 C 6.601562 -4.242188 5.816406 -3.5 4.859375 -2.65625 L 4.03125 -1.921875 L 9.84375 -1.921875 L 9.84375 -0.1875 L 0.9375 -0.1875 L 0.9375 -1.703125 Z M 2.25 -2.84375 "/></g></g></g><g fill="#ffffff" fill-opacity="1"><g transform="translate(57.96801, 61.097269)"><g><path d="M 1.0625 -10.078125 C 1.132812 -11.210938 1.570312 -12.097656 2.375 -12.734375 C 3.175781 -13.367188 4.203125 -13.6875 5.453125 -13.6875 C 6.304688 -13.6875 7.046875 -13.53125 7.671875 -13.21875 C 8.296875 -12.914062 8.765625 -12.5 9.078125 -11.96875 C 9.398438 -11.445312 9.5625 -10.859375 9.5625 -10.203125 C 9.5625 -9.441406 9.359375 -8.789062 8.953125 -8.25 C 8.546875 -7.71875 8.0625 -7.359375 7.5 -7.171875 L 7.5 -7.09375 C 8.21875 -6.875 8.78125 -6.472656 9.1875 -5.890625 C 9.59375 -5.316406 9.796875 -4.578125 9.796875 -3.671875 C 9.796875 -2.953125 9.628906 -2.3125 9.296875 -1.75 C 8.972656 -1.1875 8.484375 -0.738281 7.828125 -0.40625 C 7.179688 -0.0820312 6.40625 0.078125 5.5 0.078125 C 4.175781 0.078125 3.085938 -0.257812 2.234375 -0.9375 C 1.390625 -1.625 0.9375 -2.601562 0.875 -3.875 L 2.890625 -3.875 C 2.941406 -3.21875 3.191406 -2.6875 3.640625 -2.28125 C 4.097656 -1.875 4.710938 -1.671875 5.484375 -1.671875 C 6.234375 -1.671875 6.804688 -1.875 7.203125 -2.28125 C 7.609375 -2.6875 7.8125 -3.21875 7.8125 -3.875 C 7.8125 -4.726562 7.539062 -5.332031 7 -5.6875 C 6.457031 -6.050781 5.625 -6.234375 4.5 -6.234375 L 4.015625 -6.234375 L 4.015625 -7.96875 L 4.515625 -7.96875 C 5.503906 -7.976562 6.257812 -8.140625 6.78125 -8.453125 C 7.300781 -8.773438 7.5625 -9.273438 7.5625 -9.953125 C 7.5625 -10.546875 7.367188 -11.015625 6.984375 -11.359375 C 6.609375 -11.710938 6.070312 -11.890625 5.375 -11.890625 C 4.6875 -11.890625 4.148438 -11.710938 3.765625 -11.359375 C 3.390625 -11.015625 3.164062 -10.585938 3.09375 -10.078125 Z M 1.0625 -10.078125 "/></g></g></g><g clip-path="url(#0680add352)"><path fill="#ffffff" d="M 32.039062 10.597656 C 32.039062 10.597656 32.003906 10.621094 31.960938 10.652344 C 31.804688 10.757812 31.441406 10.875 31.078125 10.929688 L 31.054688 10.929688 L 31.03125 10.933594 L 31.011719 10.9375 L 30.988281 10.941406 L 30.96875 10.941406 L 30.945312 10.945312 L 30.921875 10.945312 L 30.902344 10.949219 L 30.878906 10.949219 L 30.859375 10.953125 L 30.816406 10.953125 L 30.792969 10.957031 L 30.59375 10.957031 L 30.574219 10.953125 L 30.535156 10.953125 L 30.515625 10.949219 L 30.496094 10.949219 L 30.480469 10.945312 L 30.460938 10.945312 L 30.441406 10.941406 L 30.425781 10.941406 C 30.15625 10.898438 29.96875 10.804688 29.957031 10.691406 C 29.953125 10.667969 30.113281 10.601562 30.25 10.527344 C 30.820312 10.226562 31.609375 9.679688 31.527344 8.933594 C 31.523438 8.886719 31.507812 8.855469 31.484375 8.855469 L 31.484375 8.851562 L 31.476562 8.851562 L 31.476562 8.855469 C 31.46875 8.855469 31.457031 8.859375 31.445312 8.871094 C 31.105469 9.175781 30.285156 9.566406 29.714844 9.652344 C 29.707031 9.652344 29.695312 9.652344 29.6875 9.65625 L 29.683594 9.65625 C 29.675781 9.65625 29.664062 9.65625 29.65625 9.660156 C 29.644531 9.660156 29.632812 9.660156 29.625 9.660156 C 29.617188 9.664062 29.605469 9.664062 29.597656 9.664062 C 29.585938 9.664062 29.578125 9.664062 29.566406 9.667969 C 29.558594 9.667969 29.550781 9.667969 29.539062 9.667969 C 29.53125 9.667969 29.519531 9.667969 29.511719 9.667969 C 29.503906 9.667969 29.496094 9.667969 29.488281 9.667969 C 29.480469 9.667969 29.46875 9.667969 29.460938 9.667969 C 29.453125 9.664062 29.484375 9.59375 29.53125 9.484375 C 29.667969 9.175781 29.777344 8.898438 29.839844 8.5625 C 29.894531 8.246094 29.941406 7.628906 29.722656 7.363281 C 29.703125 7.339844 29.683594 7.320312 29.660156 7.300781 C 29.65625 7.300781 29.652344 7.296875 29.648438 7.296875 C 29.632812 7.296875 29.625 7.320312 29.617188 7.371094 C 29.492188 7.878906 28.761719 9.066406 28.273438 9.15625 C 28.261719 9.160156 28.25 9.160156 28.242188 9.160156 C 28.230469 9.160156 28.21875 9.164062 28.210938 9.164062 C 28.199219 9.160156 28.1875 9.160156 28.179688 9.160156 C 28.003906 9.132812 27.875 8.925781 27.835938 8.433594 C 27.832031 8.382812 27.804688 8.074219 27.753906 7.777344 C 27.707031 7.496094 27.636719 7.234375 27.546875 7.222656 C 27.546875 7.222656 27.542969 7.222656 27.542969 7.222656 L 27.539062 7.222656 C 27.527344 7.226562 27.515625 7.230469 27.507812 7.238281 C 27.410156 7.304688 27.296875 7.605469 27.144531 8.035156 C 26.46875 9.972656 26.152344 9.238281 25.800781 7.667969 C 25.792969 7.640625 25.730469 7.339844 25.710938 7.335938 C 25.675781 7.34375 25.628906 7.394531 25.585938 7.472656 C 25.269531 8.015625 25.167969 8.699219 25.132812 9.3125 C 25.09375 9.953125 24.988281 9.871094 24.644531 9.359375 C 24.40625 9.007812 24.203125 8.535156 24.164062 8.226562 C 24.15625 8.183594 24.160156 8.136719 24.140625 8.132812 L 24.136719 8.132812 C 24.121094 8.140625 24.101562 8.152344 24.085938 8.167969 C 23.710938 8.59375 23.871094 9.699219 23.96875 10.222656 C 24.019531 10.5 23.984375 10.613281 23.90625 10.625 C 23.902344 10.625 23.898438 10.625 23.898438 10.625 C 23.894531 10.625 23.890625 10.625 23.886719 10.625 C 23.886719 10.625 23.882812 10.625 23.878906 10.625 C 23.757812 10.605469 23.570312 10.390625 23.476562 10.175781 C 23.390625 9.984375 23.347656 9.828125 23.320312 9.625 C 23.320312 9.625 23.316406 9.625 23.3125 9.628906 C 23.25 9.714844 23.160156 10.03125 23.136719 10.140625 C 22.949219 11.023438 23.105469 11.722656 23.835938 11.816406 C 24.109375 11.851562 24.886719 11.703125 25.246094 11.679688 C 25.964844 11.640625 26.621094 11.703125 27.3125 11.859375 C 27.929688 11.996094 28.589844 12.269531 29.242188 12.363281 C 29.253906 12.363281 29.269531 12.367188 29.28125 12.367188 L 29.285156 12.367188 C 29.296875 12.371094 29.3125 12.371094 29.328125 12.375 C 29.34375 12.375 29.359375 12.378906 29.375 12.378906 L 29.417969 12.382812 C 29.429688 12.386719 29.445312 12.386719 29.460938 12.386719 C 29.476562 12.386719 29.492188 12.390625 29.503906 12.390625 C 29.519531 12.390625 29.535156 12.390625 29.546875 12.390625 L 29.550781 12.390625 C 29.5625 12.394531 29.578125 12.394531 29.59375 12.394531 C 29.609375 12.394531 29.621094 12.394531 29.636719 12.394531 C 29.652344 12.394531 29.667969 12.394531 29.679688 12.394531 C 29.695312 12.394531 29.710938 12.394531 29.726562 12.394531 C 29.738281 12.394531 29.753906 12.394531 29.769531 12.390625 C 29.78125 12.390625 29.796875 12.390625 29.8125 12.390625 C 29.828125 12.390625 29.839844 12.386719 29.855469 12.386719 C 29.871094 12.386719 29.882812 12.382812 29.898438 12.382812 C 29.914062 12.382812 29.929688 12.378906 29.941406 12.378906 C 29.957031 12.375 29.96875 12.375 29.984375 12.371094 C 30.027344 12.363281 30.074219 12.355469 30.113281 12.347656 C 31.726562 12 32.1875 10.617188 32.046875 10.597656 C 32.046875 10.597656 32.042969 10.597656 32.039062 10.597656 Z M 25.109375 14.785156 C 25.128906 15.101562 25.058594 15.4375 24.894531 15.78125 C 24.832031 15.90625 24.769531 16.027344 24.699219 16.144531 C 23.460938 18.171875 24.070312 19.234375 24.851562 19.332031 C 24.867188 19.335938 24.882812 19.335938 24.898438 19.335938 C 24.914062 19.339844 24.929688 19.339844 24.941406 19.339844 C 24.957031 19.339844 24.972656 19.339844 24.988281 19.339844 C 25.003906 19.339844 25.023438 19.339844 25.039062 19.339844 C 25.050781 19.335938 25.066406 19.335938 25.082031 19.335938 C 25.097656 19.332031 25.113281 19.328125 25.132812 19.328125 C 25.242188 19.308594 25.351562 19.273438 25.453125 19.222656 C 26.0625 18.910156 26.488281 17.886719 25.828125 16.195312 C 25.605469 15.628906 25.382812 15.15625 25.109375 14.785156 Z M 22.265625 13.101562 L 22.273438 13.101562 C 22.292969 13.101562 22.3125 13.097656 22.332031 13.097656 L 22.335938 13.097656 C 22.34375 13.097656 22.355469 13.097656 22.367188 13.09375 C 22.378906 13.09375 22.386719 13.09375 22.398438 13.09375 L 22.425781 13.09375 C 23.777344 13.0625 24.988281 13.960938 25.695312 15.050781 C 27.179688 17.335938 26.554688 20.734375 25.894531 23.171875 C 25.542969 24.464844 25.246094 25.761719 25.054688 27.042969 C 24.085938 33.5625 26.464844 38.648438 33.039062 40.871094 C 34.675781 41.425781 35.410156 42.25 35.703125 43.957031 C 35.855469 44.816406 35.863281 45.859375 35.769531 47.199219 C 35.757812 47.378906 35.738281 47.542969 35.707031 47.683594 C 35.558594 48.441406 34.984375 48.710938 34.332031 48.796875 C 34.128906 48.828125 33.917969 48.835938 33.710938 48.839844 C 32.9375 48.84375 32.246094 48.777344 31.460938 48.917969 C 31.1875 48.964844 30.921875 49.035156 30.664062 49.132812 C 30.414062 49.234375 30.1875 49.363281 30.097656 49.410156 C 30.09375 49.414062 30.359375 49.371094 30.707031 49.328125 C 31.488281 49.234375 32.207031 49.210938 32.988281 49.285156 C 33.824219 49.363281 34.472656 49.414062 35.300781 49.195312 C 35.382812 49.175781 35.457031 49.152344 35.53125 49.128906 C 36.394531 48.867188 36.566406 48.890625 37.410156 49.15625 C 37.671875 49.238281 37.972656 49.3125 38.226562 49.300781 C 38.285156 49.300781 38.335938 49.296875 38.335938 49.296875 C 38.332031 49.285156 38.214844 49.230469 38.183594 49.214844 C 37.519531 48.917969 37.019531 48.4375 36.894531 47.707031 C 36.871094 47.570312 36.859375 47.425781 36.84375 47.273438 C 36.726562 45.945312 36.757812 44.863281 36.933594 43.917969 C 37.128906 42.835938 37.382812 42.105469 37.855469 41.519531 C 38.363281 40.890625 39.097656 40.488281 39.898438 39.964844 C 41.660156 38.820312 43.148438 37.148438 43.527344 35.019531 C 43.5625 34.820312 43.585938 34.613281 43.597656 34.40625 C 41.429688 40.90625 31.796875 40.851562 30.945312 33.203125 C 30.878906 32.621094 30.871094 32.09375 30.882812 31.679688 C 33.046875 39.855469 41.183594 36.789062 41.113281 36.789062 C 36.476562 36.789062 33.21875 34.359375 32.285156 29.921875 C 32.265625 29.824219 32.246094 29.726562 32.226562 29.628906 C 33.578125 32.996094 36.546875 34.957031 41.160156 34.113281 C 37.375 34.082031 34.21875 31.402344 33.464844 27.839844 C 34.53125 30.253906 36.804688 31.890625 40.449219 32.105469 C 39.074219 31.757812 37.871094 31.066406 36.917969 30.148438 C 34.566406 27.894531 34.363281 24.917969 33.949219 21.929688 C 33.71875 20.273438 33.421875 18.734375 32.769531 17.167969 C 32.300781 16.046875 31.675781 15.007812 30.847656 14.167969 C 29.707031 13.003906 28.230469 12.316406 26.660156 12.097656 C 25.863281 11.984375 24.914062 11.988281 24.085938 12.152344 C 23.390625 12.292969 22.757812 12.554688 22.355469 12.96875 C 22.3125 13.011719 22.277344 13.058594 22.265625 13.097656 C 22.265625 13.101562 22.265625 13.101562 22.265625 13.101562 " fill-opacity="1" fill-rule="evenodd"/></g><path fill="#ed1f2c" d="M 42.066406 34.40625 C 43.730469 26.628906 50.386719 25.214844 54.980469 30.996094 C 50.109375 27.3125 44.820312 29.332031 42.066406 34.40625 " fill-opacity="1" fill-rule="nonzero"/><path fill="#ed1f2c" d="M 66.105469 14.058594 C 66.527344 15.070312 66.601562 16.507812 66.351562 17.660156 C 65.460938 21.792969 61.835938 23.335938 58.121094 23.316406 C 56.398438 23.308594 54.789062 22.945312 53.191406 22.660156 C 48.339844 21.785156 43.25 22.722656 41.917969 28.164062 C 41.671875 29.167969 41.5625 30.328125 41.617188 31.65625 C 41.03125 30.117188 40.761719 28.632812 40.769531 27.253906 C 40.789062 22.667969 43.871094 19.34375 48.5 19.253906 C 49.875 19.226562 51.292969 19.457031 52.699219 19.773438 C 56.542969 20.648438 62.878906 22.199219 65.355469 17.894531 C 65.917969 16.917969 66.199219 15.75 66.136719 14.460938 C 66.128906 14.328125 66.121094 14.191406 66.105469 14.058594 " fill-opacity="1" fill-rule="evenodd"/><g clip-path="url(#5f0231a1ce)"><path fill="#ed1f2c" d="M 70.007812 22.953125 C 70.160156 24.039062 69.871094 25.445312 69.339844 26.503906 C 67.4375 30.277344 63.542969 30.863281 59.953125 29.917969 C 58.285156 29.476562 56.820312 28.722656 55.347656 28.042969 C 50.867188 25.980469 45.707031 25.617188 43.050781 30.546875 C 42.558594 31.457031 42.164062 32.550781 41.882812 33.855469 C 41.703125 32.21875 41.8125 30.710938 42.167969 29.382812 C 43.339844 24.945312 47.152344 22.496094 51.660156 23.570312 C 52.996094 23.890625 54.3125 24.464844 55.589844 25.125 C 59.214844 26.996094 64.175781 30.066406 67.957031 26.808594 C 69.003906 25.90625 69.738281 24.597656 70.007812 22.953125 " fill-opacity="1" fill-rule="evenodd"/></g><path fill="#ed1f2c" d="M 42.296875 34.742188 C 46.316406 27.871094 53.078125 28.613281 55.628906 35.542969 C 52.15625 30.519531 46.5 30.785156 42.296875 34.742188 " fill-opacity="1" fill-rule="nonzero"/><g fill="#ffffff" fill-opacity="1"><g transform="translate(68.231525, 61.073108)"><g><path d="M 0.5 0.03125 C 0.414062 0.03125 0.34375 0.00390625 0.28125 -0.046875 C 0.226562 -0.109375 0.203125 -0.1875 0.203125 -0.28125 C 0.203125 -0.363281 0.226562 -0.429688 0.28125 -0.484375 C 0.34375 -0.546875 0.414062 -0.578125 0.5 -0.578125 C 0.582031 -0.578125 0.65625 -0.546875 0.71875 -0.484375 C 0.78125 -0.429688 0.8125 -0.363281 0.8125 -0.28125 C 0.8125 -0.1875 0.78125 -0.109375 0.71875 -0.046875 C 0.65625 0.00390625 0.582031 0.03125 0.5 0.03125 Z M 0.5 0.03125 "/></g></g></g><g fill="#ffffff" fill-opacity="1"><g transform="translate(69.24151, 61.073108)"><g><path d="M 1.28125 -1.921875 L 0.859375 -1.921875 L 0.859375 0 L 0.375 0 L 0.375 -1.921875 L 0.09375 -1.921875 L 0.09375 -2.3125 L 0.375 -2.3125 L 0.375 -2.46875 C 0.375 -2.738281 0.441406 -2.929688 0.578125 -3.046875 C 0.722656 -3.171875 0.945312 -3.234375 1.25 -3.234375 L 1.25 -2.828125 C 1.101562 -2.828125 1 -2.800781 0.9375 -2.75 C 0.882812 -2.695312 0.859375 -2.601562 0.859375 -2.46875 L 0.859375 -2.3125 L 1.28125 -2.3125 Z M 1.28125 -1.921875 "/></g></g></g><g fill="#ffffff" fill-opacity="1"><g transform="translate(70.632856, 61.073108)"><g><path d="M 0.796875 -1.96875 C 0.859375 -2.082031 0.945312 -2.171875 1.0625 -2.234375 C 1.1875 -2.304688 1.328125 -2.34375 1.484375 -2.34375 L 1.484375 -1.84375 L 1.359375 -1.84375 C 1.171875 -1.84375 1.03125 -1.796875 0.9375 -1.703125 C 0.84375 -1.609375 0.796875 -1.445312 0.796875 -1.21875 L 0.796875 0 L 0.3125 0 L 0.3125 -2.3125 L 0.796875 -2.3125 Z M 0.796875 -1.96875 "/></g></g></g></svg>