<svg xmlns="http://www.w3.org/2000/svg" xmlns:xlink="http://www.w3.org/1999/xlink" width="100" zoomAndPan="magnify" viewBox="0 0 75 74.999997" height="100" preserveAspectRatio="xMidYMid meet" version="1.0"><defs><g/></defs><g fill="#264289" fill-opacity="1"><g transform="translate(0.0000015, 49.269659)"><g><path d="M 20.09375 4.296875 L 16.875 -0.03125 C 15.925781 0.15625 15 0.25 14.09375 0.25 C 11.726562 0.25 9.5625 -0.296875 7.59375 -1.390625 C 5.632812 -2.492188 4.078125 -4.023438 2.921875 -5.984375 C 1.765625 -7.953125 1.1875 -10.164062 1.1875 -12.625 C 1.1875 -15.082031 1.765625 -17.285156 2.921875 -19.234375 C 4.078125 -21.191406 5.632812 -22.71875 7.59375 -23.8125 C 9.5625 -24.914062 11.726562 -25.46875 14.09375 -25.46875 C 16.445312 -25.46875 18.609375 -24.914062 20.578125 -23.8125 C 22.546875 -22.71875 24.097656 -21.191406 25.234375 -19.234375 C 26.367188 -17.285156 26.9375 -15.082031 26.9375 -12.625 C 26.9375 -10.476562 26.5 -8.515625 25.625 -6.734375 C 24.757812 -4.960938 23.550781 -3.492188 22 -2.328125 L 27.5 4.296875 Z M 7.4375 -12.625 C 7.4375 -10.40625 8.035156 -8.632812 9.234375 -7.3125 C 10.441406 -5.988281 12.0625 -5.328125 14.09375 -5.328125 C 16.09375 -5.328125 17.691406 -5.992188 18.890625 -7.328125 C 20.097656 -8.660156 20.703125 -10.425781 20.703125 -12.625 C 20.703125 -14.84375 20.097656 -16.613281 18.890625 -17.9375 C 17.691406 -19.257812 16.09375 -19.921875 14.09375 -19.921875 C 12.0625 -19.921875 10.441406 -19.265625 9.234375 -17.953125 C 8.035156 -16.640625 7.4375 -14.863281 7.4375 -12.625 Z M 7.4375 -12.625 "/></g></g></g><g fill="#264289" fill-opacity="1"><g transform="translate(28.18333, 49.269659)"><g><path d="M 1.1875 -12.59375 C 1.1875 -15.070312 1.722656 -17.28125 2.796875 -19.21875 C 3.867188 -21.164062 5.363281 -22.679688 7.28125 -23.765625 C 9.195312 -24.847656 11.375 -25.390625 13.8125 -25.390625 C 16.789062 -25.390625 19.335938 -24.601562 21.453125 -23.03125 C 23.578125 -21.457031 25 -19.3125 25.71875 -16.59375 L 18.984375 -16.59375 C 18.484375 -17.644531 17.773438 -18.441406 16.859375 -18.984375 C 15.941406 -19.535156 14.898438 -19.8125 13.734375 -19.8125 C 11.847656 -19.8125 10.320312 -19.15625 9.15625 -17.84375 C 7.988281 -16.53125 7.40625 -14.78125 7.40625 -12.59375 C 7.40625 -10.394531 7.988281 -8.640625 9.15625 -7.328125 C 10.320312 -6.015625 11.847656 -5.359375 13.734375 -5.359375 C 14.898438 -5.359375 15.941406 -5.632812 16.859375 -6.1875 C 17.773438 -6.738281 18.484375 -7.535156 18.984375 -8.578125 L 25.71875 -8.578125 C 25 -5.859375 23.578125 -3.71875 21.453125 -2.15625 C 19.335938 -0.601562 16.789062 0.171875 13.8125 0.171875 C 11.375 0.171875 9.195312 -0.367188 7.28125 -1.453125 C 5.363281 -2.535156 3.867188 -4.039062 2.796875 -5.96875 C 1.722656 -7.90625 1.1875 -10.113281 1.1875 -12.59375 Z M 1.1875 -12.59375 "/></g></g></g><g fill="#264289" fill-opacity="1"><g transform="translate(55.436757, 49.269659)"><g><path d="M 18.5625 -25.109375 L 18.5625 -20.203125 L 8.328125 -20.203125 L 8.328125 -14.921875 L 15.984375 -14.921875 L 15.984375 -10.15625 L 8.328125 -10.15625 L 8.328125 0 L 2.21875 0 L 2.21875 -25.109375 Z M 18.5625 -25.109375 "/></g></g></g></svg>