<svg xmlns="http://www.w3.org/2000/svg" xmlns:xlink="http://www.w3.org/1999/xlink" width="100" zoomAndPan="magnify" viewBox="0 0 75 74.999997" height="100" preserveAspectRatio="xMidYMid meet" version="1.0"><defs><g/><clipPath id="38852301d0"><path d="M 59.804688 56.789062 L 60.742188 56.789062 L 60.742188 57.726562 L 59.804688 57.726562 Z M 59.804688 56.789062 " clip-rule="nonzero"/></clipPath><clipPath id="0e7b50630d"><path d="M 43.957031 19.933594 L 50.289062 19.933594 L 50.289062 26.605469 L 43.957031 26.605469 Z M 43.957031 19.933594 " clip-rule="nonzero"/></clipPath><clipPath id="6d208a6aa1"><path d="M 47.121094 19.933594 C 45.375 19.933594 43.957031 21.425781 43.957031 23.269531 C 43.957031 25.113281 45.375 26.605469 47.121094 26.605469 C 48.871094 26.605469 50.289062 25.113281 50.289062 23.269531 C 50.289062 21.425781 48.871094 19.933594 47.121094 19.933594 " clip-rule="nonzero"/></clipPath><clipPath id="8481dbc4a1"><path d="M 46 13.8125 L 54 13.8125 L 54 17 L 46 17 Z M 46 13.8125 " clip-rule="nonzero"/></clipPath><clipPath id="93efc92cae"><path d="M 33 28 L 66 28 L 66 50.75 L 33 50.75 Z M 33 28 " clip-rule="nonzero"/></clipPath><clipPath id="50ed82a64d"><path d="M 30 41 L 41 41 L 41 50.75 L 30 50.75 Z M 30 41 " clip-rule="nonzero"/></clipPath><clipPath id="46b8a19338"><path d="M 29 41 L 41 41 L 41 50.75 L 29 50.75 Z M 29 41 " clip-rule="nonzero"/></clipPath><clipPath id="7e819e608a"><path d="M 38 39 L 67 39 L 67 50.75 L 38 50.75 Z M 38 39 " clip-rule="nonzero"/></clipPath><clipPath id="f1f1e26c5b"><path d="M 39 47 L 43 47 L 43 50.75 L 39 50.75 Z M 39 47 " clip-rule="nonzero"/></clipPath><clipPath id="38f00a7e79"><path d="M 40 48 L 44 48 L 44 50.75 L 40 50.75 Z M 40 48 " clip-rule="nonzero"/></clipPath><clipPath id="be4b31b9cf"><path d="M 14 36 L 38 36 L 38 50.75 L 14 50.75 Z M 14 36 " clip-rule="nonzero"/></clipPath><clipPath id="1ff9101557"><path d="M 34 49 L 47 49 L 47 50.75 L 34 50.75 Z M 34 49 " clip-rule="nonzero"/></clipPath><clipPath id="1d57172218"><path d="M 33 48 L 47 48 L 47 50.75 L 33 50.75 Z M 33 48 " clip-rule="nonzero"/></clipPath><clipPath id="3dd0b67684"><path d="M 13 36 L 36 36 L 36 50.75 L 13 50.75 Z M 13 36 " clip-rule="nonzero"/></clipPath><clipPath id="ce26f25451"><path d="M 13 36 L 37 36 L 37 50.75 L 13 50.75 Z M 13 36 " clip-rule="nonzero"/></clipPath><clipPath id="32e79b500a"><path d="M 42 48 L 45 48 L 45 50.75 L 42 50.75 Z M 42 48 " clip-rule="nonzero"/></clipPath><clipPath id="83b6b5e3d5"><path d="M 45 48 L 50 48 L 50 50.75 L 45 50.75 Z M 45 48 " clip-rule="nonzero"/></clipPath><clipPath id="f7c9ac0b8b"><path d="M 5.476562 41 L 10 41 L 10 45 L 5.476562 45 Z M 5.476562 41 " clip-rule="nonzero"/></clipPath><clipPath id="3b60409189"><path d="M 7 44 L 15 44 L 15 50.75 L 7 50.75 Z M 7 44 " clip-rule="nonzero"/></clipPath><clipPath id="489f796dec"><path d="M 43.957031 19.933594 L 49.9375 19.933594 L 49.9375 26.296875 L 43.957031 26.296875 Z M 43.957031 19.933594 " clip-rule="nonzero"/></clipPath><clipPath id="a3cb444ef3"><path d="M 46.945312 19.933594 C 45.296875 19.933594 43.957031 21.359375 43.957031 23.113281 C 43.957031 24.871094 45.296875 26.296875 46.945312 26.296875 C 48.597656 26.296875 49.9375 24.871094 49.9375 23.113281 C 49.9375 21.359375 48.597656 19.933594 46.945312 19.933594 " clip-rule="nonzero"/></clipPath><clipPath id="af755cfebc"><path d="M 43 19 L 49 19 L 49 25 L 43 25 Z M 43 19 " clip-rule="nonzero"/></clipPath><clipPath id="0adaf2235d"><path d="M 43.796875 24.15625 L 44.253906 19.933594 L 49.152344 20.460938 L 48.695312 24.683594 Z M 43.796875 24.15625 " clip-rule="nonzero"/></clipPath><clipPath id="674ad27601"><path d="M 48.734375 23.261719 C 48.828125 23.054688 48.898438 22.8125 48.925781 22.570312 C 48.949219 22.328125 48.9375 22.09375 48.890625 21.871094 C 48.886719 21.867188 48.890625 21.863281 48.886719 21.855469 C 48.695312 21.023438 48.027344 20.351562 47.171875 20.246094 L 44.253906 19.933594 L 43.796875 24.15625 L 46.714844 24.46875 C 47.578125 24.550781 48.375 24.046875 48.734375 23.261719 " clip-rule="nonzero"/></clipPath></defs><g fill="#ff1616" fill-opacity="1"><g transform="translate(0.202967, 57.383622)"><g><path d="M 3.25 -3.15625 L 3.25 0 L 2.71875 0 L 2.71875 -0.46875 C 2.625 -0.300781 2.484375 -0.171875 2.296875 -0.078125 C 2.117188 0.00390625 1.925781 0.046875 1.71875 0.046875 C 1.46875 0.046875 1.242188 -0.00390625 1.046875 -0.109375 C 0.847656 -0.210938 0.691406 -0.363281 0.578125 -0.5625 C 0.472656 -0.769531 0.421875 -1.019531 0.421875 -1.3125 L 0.421875 -3.15625 L 0.9375 -3.15625 L 0.9375 -1.375 C 0.9375 -1.0625 1.015625 -0.820312 1.171875 -0.65625 C 1.328125 -0.488281 1.539062 -0.40625 1.8125 -0.40625 C 2.09375 -0.40625 2.3125 -0.488281 2.46875 -0.65625 C 2.632812 -0.832031 2.71875 -1.085938 2.71875 -1.421875 L 2.71875 -3.15625 Z M 3.25 -3.15625 "/></g></g></g><g fill="#ff1616" fill-opacity="1"><g transform="translate(4.178977, 57.383622)"><g><path d="M 1.984375 -3.21875 C 2.367188 -3.21875 2.679688 -3.097656 2.921875 -2.859375 C 3.160156 -2.628906 3.28125 -2.296875 3.28125 -1.859375 L 3.28125 0 L 2.75 0 L 2.75 -1.78125 C 2.75 -2.101562 2.671875 -2.347656 2.515625 -2.515625 C 2.359375 -2.679688 2.144531 -2.765625 1.875 -2.765625 C 1.59375 -2.765625 1.367188 -2.675781 1.203125 -2.5 C 1.046875 -2.332031 0.96875 -2.082031 0.96875 -1.75 L 0.96875 0 L 0.4375 0 L 0.4375 -3.15625 L 0.96875 -3.15625 L 0.96875 -2.703125 C 1.070312 -2.867188 1.210938 -2.992188 1.390625 -3.078125 C 1.566406 -3.171875 1.765625 -3.21875 1.984375 -3.21875 Z M 1.984375 -3.21875 "/></g></g></g><g fill="#545454" fill-opacity="1"><g transform="translate(8.152393, 57.383622)"><g><path d="M 1.078125 -2.734375 L 1.078125 -0.859375 C 1.078125 -0.710938 1.109375 -0.601562 1.171875 -0.53125 C 1.242188 -0.46875 1.359375 -0.4375 1.515625 -0.4375 L 1.90625 -0.4375 L 1.90625 0 L 1.4375 0 C 1.144531 0 0.925781 -0.0664062 0.78125 -0.203125 C 0.632812 -0.335938 0.5625 -0.554688 0.5625 -0.859375 L 0.5625 -2.734375 L 0.15625 -2.734375 L 0.15625 -3.15625 L 0.5625 -3.15625 L 0.5625 -3.953125 L 1.078125 -3.953125 L 1.078125 -3.15625 L 1.90625 -3.15625 L 1.90625 -2.734375 Z M 1.078125 -2.734375 "/></g></g></g><g fill="#545454" fill-opacity="1"><g transform="translate(10.538019, 57.383622)"><g><path d="M 0.96875 -2.640625 C 1.0625 -2.828125 1.191406 -2.96875 1.359375 -3.0625 C 1.535156 -3.164062 1.742188 -3.21875 1.984375 -3.21875 L 1.984375 -2.671875 L 1.84375 -2.671875 C 1.257812 -2.671875 0.96875 -2.351562 0.96875 -1.71875 L 0.96875 0 L 0.4375 0 L 0.4375 -3.15625 L 0.96875 -3.15625 Z M 0.96875 -2.640625 "/></g></g></g><g fill="#545454" fill-opacity="1"><g transform="translate(12.975505, 57.383622)"><g><path d="M 0.25 -1.59375 C 0.25 -1.914062 0.3125 -2.195312 0.4375 -2.4375 C 0.570312 -2.6875 0.753906 -2.878906 0.984375 -3.015625 C 1.210938 -3.148438 1.46875 -3.21875 1.75 -3.21875 C 2.019531 -3.21875 2.253906 -3.15625 2.453125 -3.03125 C 2.660156 -2.914062 2.816406 -2.765625 2.921875 -2.578125 L 2.921875 -3.15625 L 3.453125 -3.15625 L 3.453125 0 L 2.921875 0 L 2.921875 -0.59375 C 2.816406 -0.40625 2.660156 -0.25 2.453125 -0.125 C 2.253906 -0.0078125 2.015625 0.046875 1.734375 0.046875 C 1.460938 0.046875 1.210938 -0.0195312 0.984375 -0.15625 C 0.753906 -0.289062 0.570312 -0.484375 0.4375 -0.734375 C 0.3125 -0.984375 0.25 -1.269531 0.25 -1.59375 Z M 2.921875 -1.578125 C 2.921875 -1.816406 2.875 -2.023438 2.78125 -2.203125 C 2.6875 -2.378906 2.554688 -2.515625 2.390625 -2.609375 C 2.222656 -2.703125 2.039062 -2.75 1.84375 -2.75 C 1.65625 -2.75 1.476562 -2.703125 1.3125 -2.609375 C 1.15625 -2.523438 1.023438 -2.394531 0.921875 -2.21875 C 0.828125 -2.039062 0.78125 -1.832031 0.78125 -1.59375 C 0.78125 -1.351562 0.828125 -1.140625 0.921875 -0.953125 C 1.023438 -0.773438 1.15625 -0.640625 1.3125 -0.546875 C 1.476562 -0.453125 1.65625 -0.40625 1.84375 -0.40625 C 2.039062 -0.40625 2.222656 -0.453125 2.390625 -0.546875 C 2.554688 -0.640625 2.6875 -0.773438 2.78125 -0.953125 C 2.875 -1.140625 2.921875 -1.347656 2.921875 -1.578125 Z M 2.921875 -1.578125 "/></g></g></g><g fill="#545454" fill-opacity="1"><g transform="translate(17.158956, 57.383622)"><g><path d="M 1.625 -0.484375 L 2.59375 -3.15625 L 3.15625 -3.15625 L 1.921875 0 L 1.3125 0 L 0.0625 -3.15625 L 0.640625 -3.15625 Z M 1.625 -0.484375 "/></g></g></g><g fill="#545454" fill-opacity="1"><g transform="translate(20.679746, 57.383622)"><g><path d="M 0.25 -1.59375 C 0.25 -1.914062 0.3125 -2.195312 0.4375 -2.4375 C 0.570312 -2.6875 0.753906 -2.878906 0.984375 -3.015625 C 1.210938 -3.148438 1.46875 -3.21875 1.75 -3.21875 C 2.019531 -3.21875 2.253906 -3.15625 2.453125 -3.03125 C 2.660156 -2.914062 2.816406 -2.765625 2.921875 -2.578125 L 2.921875 -3.15625 L 3.453125 -3.15625 L 3.453125 0 L 2.921875 0 L 2.921875 -0.59375 C 2.816406 -0.40625 2.660156 -0.25 2.453125 -0.125 C 2.253906 -0.0078125 2.015625 0.046875 1.734375 0.046875 C 1.460938 0.046875 1.210938 -0.0195312 0.984375 -0.15625 C 0.753906 -0.289062 0.570312 -0.484375 0.4375 -0.734375 C 0.3125 -0.984375 0.25 -1.269531 0.25 -1.59375 Z M 2.921875 -1.578125 C 2.921875 -1.816406 2.875 -2.023438 2.78125 -2.203125 C 2.6875 -2.378906 2.554688 -2.515625 2.390625 -2.609375 C 2.222656 -2.703125 2.039062 -2.75 1.84375 -2.75 C 1.65625 -2.75 1.476562 -2.703125 1.3125 -2.609375 C 1.15625 -2.523438 1.023438 -2.394531 0.921875 -2.21875 C 0.828125 -2.039062 0.78125 -1.832031 0.78125 -1.59375 C 0.78125 -1.351562 0.828125 -1.140625 0.921875 -0.953125 C 1.023438 -0.773438 1.15625 -0.640625 1.3125 -0.546875 C 1.476562 -0.453125 1.65625 -0.40625 1.84375 -0.40625 C 2.039062 -0.40625 2.222656 -0.453125 2.390625 -0.546875 C 2.554688 -0.640625 2.6875 -0.773438 2.78125 -0.953125 C 2.875 -1.140625 2.921875 -1.347656 2.921875 -1.578125 Z M 2.921875 -1.578125 "/></g></g></g><g fill="#545454" fill-opacity="1"><g transform="translate(24.863196, 57.383622)"><g><path d="M 0.71875 -3.671875 C 0.613281 -3.671875 0.523438 -3.703125 0.453125 -3.765625 C 0.390625 -3.835938 0.359375 -3.925781 0.359375 -4.03125 C 0.359375 -4.132812 0.390625 -4.21875 0.453125 -4.28125 C 0.523438 -4.351562 0.613281 -4.390625 0.71875 -4.390625 C 0.8125 -4.390625 0.890625 -4.351562 0.953125 -4.28125 C 1.023438 -4.21875 1.0625 -4.132812 1.0625 -4.03125 C 1.0625 -3.925781 1.023438 -3.835938 0.953125 -3.765625 C 0.890625 -3.703125 0.8125 -3.671875 0.71875 -3.671875 Z M 0.96875 -3.15625 L 0.96875 0 L 0.4375 0 L 0.4375 -3.15625 Z M 0.96875 -3.15625 "/></g></g></g><g fill="#545454" fill-opacity="1"><g transform="translate(26.568875, 57.383622)"><g><path d="M 0.96875 -4.265625 L 0.96875 0 L 0.4375 0 L 0.4375 -4.265625 Z M 0.96875 -4.265625 "/></g></g></g><g fill="#ff1616" fill-opacity="1"><g transform="translate(28.274114, 57.383622)"><g><path d="M 0.25 -1.59375 C 0.25 -1.914062 0.3125 -2.195312 0.4375 -2.4375 C 0.570312 -2.6875 0.753906 -2.878906 0.984375 -3.015625 C 1.210938 -3.148438 1.46875 -3.21875 1.75 -3.21875 C 2.019531 -3.21875 2.253906 -3.15625 2.453125 -3.03125 C 2.660156 -2.914062 2.816406 -2.765625 2.921875 -2.578125 L 2.921875 -3.15625 L 3.453125 -3.15625 L 3.453125 0 L 2.921875 0 L 2.921875 -0.59375 C 2.816406 -0.40625 2.660156 -0.25 2.453125 -0.125 C 2.253906 -0.0078125 2.015625 0.046875 1.734375 0.046875 C 1.460938 0.046875 1.210938 -0.0195312 0.984375 -0.15625 C 0.753906 -0.289062 0.570312 -0.484375 0.4375 -0.734375 C 0.3125 -0.984375 0.25 -1.269531 0.25 -1.59375 Z M 2.921875 -1.578125 C 2.921875 -1.816406 2.875 -2.023438 2.78125 -2.203125 C 2.6875 -2.378906 2.554688 -2.515625 2.390625 -2.609375 C 2.222656 -2.703125 2.039062 -2.75 1.84375 -2.75 C 1.65625 -2.75 1.476562 -2.703125 1.3125 -2.609375 C 1.15625 -2.523438 1.023438 -2.394531 0.921875 -2.21875 C 0.828125 -2.039062 0.78125 -1.832031 0.78125 -1.59375 C 0.78125 -1.351562 0.828125 -1.140625 0.921875 -0.953125 C 1.023438 -0.773438 1.15625 -0.640625 1.3125 -0.546875 C 1.476562 -0.453125 1.65625 -0.40625 1.84375 -0.40625 C 2.039062 -0.40625 2.222656 -0.453125 2.390625 -0.546875 C 2.554688 -0.640625 2.6875 -0.773438 2.78125 -0.953125 C 2.875 -1.140625 2.921875 -1.347656 2.921875 -1.578125 Z M 2.921875 -1.578125 "/></g></g></g><g fill="#545454" fill-opacity="1"><g transform="translate(32.454924, 57.383622)"><g><path d="M 0.25 -1.59375 C 0.25 -1.914062 0.3125 -2.195312 0.4375 -2.4375 C 0.570312 -2.6875 0.753906 -2.878906 0.984375 -3.015625 C 1.210938 -3.148438 1.46875 -3.21875 1.75 -3.21875 C 2 -3.21875 2.226562 -3.160156 2.4375 -3.046875 C 2.644531 -2.929688 2.804688 -2.78125 2.921875 -2.59375 L 2.921875 -4.265625 L 3.453125 -4.265625 L 3.453125 0 L 2.921875 0 L 2.921875 -0.59375 C 2.816406 -0.40625 2.660156 -0.25 2.453125 -0.125 C 2.253906 -0.0078125 2.019531 0.046875 1.75 0.046875 C 1.46875 0.046875 1.210938 -0.0195312 0.984375 -0.15625 C 0.753906 -0.289062 0.570312 -0.484375 0.4375 -0.734375 C 0.3125 -0.984375 0.25 -1.269531 0.25 -1.59375 Z M 2.921875 -1.578125 C 2.921875 -1.816406 2.875 -2.023438 2.78125 -2.203125 C 2.6875 -2.378906 2.554688 -2.515625 2.390625 -2.609375 C 2.222656 -2.703125 2.039062 -2.75 1.84375 -2.75 C 1.65625 -2.75 1.476562 -2.703125 1.3125 -2.609375 C 1.15625 -2.523438 1.023438 -2.394531 0.921875 -2.21875 C 0.828125 -2.039062 0.78125 -1.832031 0.78125 -1.59375 C 0.78125 -1.351562 0.828125 -1.140625 0.921875 -0.953125 C 1.023438 -0.773438 1.15625 -0.640625 1.3125 -0.546875 C 1.476562 -0.453125 1.65625 -0.40625 1.84375 -0.40625 C 2.039062 -0.40625 2.222656 -0.453125 2.390625 -0.546875 C 2.554688 -0.640625 2.6875 -0.773438 2.78125 -0.953125 C 2.875 -1.140625 2.921875 -1.347656 2.921875 -1.578125 Z M 2.921875 -1.578125 "/></g></g></g><g fill="#545454" fill-opacity="1"><g transform="translate(36.638374, 57.383622)"><g><path d="M 1.828125 0.046875 C 1.523438 0.046875 1.253906 -0.0195312 1.015625 -0.15625 C 0.773438 -0.289062 0.585938 -0.476562 0.453125 -0.71875 C 0.316406 -0.96875 0.25 -1.253906 0.25 -1.578125 C 0.25 -1.898438 0.316406 -2.1875 0.453125 -2.4375 C 0.597656 -2.6875 0.789062 -2.878906 1.03125 -3.015625 C 1.269531 -3.148438 1.539062 -3.21875 1.84375 -3.21875 C 2.144531 -3.21875 2.414062 -3.148438 2.65625 -3.015625 C 2.894531 -2.878906 3.082031 -2.6875 3.21875 -2.4375 C 3.363281 -2.195312 3.4375 -1.910156 3.4375 -1.578125 C 3.4375 -1.253906 3.363281 -0.96875 3.21875 -0.71875 C 3.082031 -0.476562 2.890625 -0.289062 2.640625 -0.15625 C 2.390625 -0.0195312 2.117188 0.046875 1.828125 0.046875 Z M 1.828125 -0.40625 C 2.015625 -0.40625 2.1875 -0.445312 2.34375 -0.53125 C 2.507812 -0.625 2.644531 -0.757812 2.75 -0.9375 C 2.851562 -1.113281 2.90625 -1.328125 2.90625 -1.578125 C 2.90625 -1.835938 2.851562 -2.054688 2.75 -2.234375 C 2.65625 -2.410156 2.523438 -2.539062 2.359375 -2.625 C 2.203125 -2.707031 2.03125 -2.75 1.84375 -2.75 C 1.644531 -2.75 1.46875 -2.707031 1.3125 -2.625 C 1.15625 -2.539062 1.023438 -2.410156 0.921875 -2.234375 C 0.828125 -2.054688 0.78125 -1.835938 0.78125 -1.578125 C 0.78125 -1.328125 0.828125 -1.113281 0.921875 -0.9375 C 1.015625 -0.757812 1.140625 -0.625 1.296875 -0.53125 C 1.460938 -0.445312 1.640625 -0.40625 1.828125 -0.40625 Z M 1.828125 -0.40625 "/></g></g></g><g fill="#545454" fill-opacity="1"><g transform="translate(40.614384, 57.383622)"><g><path d="M 4.25 -3.21875 C 4.488281 -3.21875 4.703125 -3.164062 4.890625 -3.0625 C 5.085938 -2.957031 5.242188 -2.800781 5.359375 -2.59375 C 5.472656 -2.394531 5.53125 -2.148438 5.53125 -1.859375 L 5.53125 0 L 5 0 L 5 -1.78125 C 5 -2.101562 4.921875 -2.347656 4.765625 -2.515625 C 4.609375 -2.679688 4.398438 -2.765625 4.140625 -2.765625 C 3.867188 -2.765625 3.648438 -2.675781 3.484375 -2.5 C 3.328125 -2.320312 3.25 -2.066406 3.25 -1.734375 L 3.25 0 L 2.734375 0 L 2.734375 -1.78125 C 2.734375 -2.101562 2.65625 -2.347656 2.5 -2.515625 C 2.34375 -2.679688 2.128906 -2.765625 1.859375 -2.765625 C 1.585938 -2.765625 1.367188 -2.675781 1.203125 -2.5 C 1.046875 -2.320312 0.96875 -2.066406 0.96875 -1.734375 L 0.96875 0 L 0.4375 0 L 0.4375 -3.15625 L 0.96875 -3.15625 L 0.96875 -2.703125 C 1.070312 -2.867188 1.210938 -2.992188 1.390625 -3.078125 C 1.566406 -3.171875 1.757812 -3.21875 1.96875 -3.21875 C 2.226562 -3.21875 2.457031 -3.15625 2.65625 -3.03125 C 2.863281 -2.914062 3.019531 -2.742188 3.125 -2.515625 C 3.207031 -2.734375 3.351562 -2.90625 3.5625 -3.03125 C 3.769531 -3.15625 4 -3.21875 4.25 -3.21875 Z M 4.25 -3.21875 "/></g></g></g><g fill="#545454" fill-opacity="1"><g transform="translate(46.837675, 57.383622)"><g><path d="M 0.71875 -3.671875 C 0.613281 -3.671875 0.523438 -3.703125 0.453125 -3.765625 C 0.390625 -3.835938 0.359375 -3.925781 0.359375 -4.03125 C 0.359375 -4.132812 0.390625 -4.21875 0.453125 -4.28125 C 0.523438 -4.351562 0.613281 -4.390625 0.71875 -4.390625 C 0.8125 -4.390625 0.890625 -4.351562 0.953125 -4.28125 C 1.023438 -4.21875 1.0625 -4.132812 1.0625 -4.03125 C 1.0625 -3.925781 1.023438 -3.835938 0.953125 -3.765625 C 0.890625 -3.703125 0.8125 -3.671875 0.71875 -3.671875 Z M 0.96875 -3.15625 L 0.96875 0 L 0.4375 0 L 0.4375 -3.15625 Z M 0.96875 -3.15625 "/></g></g></g><g fill="#545454" fill-opacity="1"><g transform="translate(48.543354, 57.383622)"><g><path d="M 0.25 -1.578125 C 0.25 -1.910156 0.3125 -2.195312 0.4375 -2.4375 C 0.570312 -2.6875 0.753906 -2.878906 0.984375 -3.015625 C 1.222656 -3.148438 1.488281 -3.21875 1.78125 -3.21875 C 2.175781 -3.21875 2.5 -3.117188 2.75 -2.921875 C 3 -2.734375 3.164062 -2.472656 3.25 -2.140625 L 2.6875 -2.140625 C 2.625 -2.335938 2.515625 -2.488281 2.359375 -2.59375 C 2.210938 -2.707031 2.019531 -2.765625 1.78125 -2.765625 C 1.488281 -2.765625 1.25 -2.660156 1.0625 -2.453125 C 0.875 -2.253906 0.78125 -1.960938 0.78125 -1.578125 C 0.78125 -1.203125 0.875 -0.910156 1.0625 -0.703125 C 1.25 -0.492188 1.488281 -0.390625 1.78125 -0.390625 C 2.019531 -0.390625 2.210938 -0.441406 2.359375 -0.546875 C 2.515625 -0.660156 2.625 -0.816406 2.6875 -1.015625 L 3.25 -1.015625 C 3.164062 -0.691406 2.992188 -0.429688 2.734375 -0.234375 C 2.484375 -0.046875 2.164062 0.046875 1.78125 0.046875 C 1.488281 0.046875 1.222656 -0.0195312 0.984375 -0.15625 C 0.753906 -0.289062 0.570312 -0.476562 0.4375 -0.71875 C 0.3125 -0.96875 0.25 -1.253906 0.25 -1.578125 Z M 0.25 -1.578125 "/></g></g></g><g fill="#545454" fill-opacity="1"><g transform="translate(52.32921, 57.383622)"><g><path d="M 0.71875 -3.671875 C 0.613281 -3.671875 0.523438 -3.703125 0.453125 -3.765625 C 0.390625 -3.835938 0.359375 -3.925781 0.359375 -4.03125 C 0.359375 -4.132812 0.390625 -4.21875 0.453125 -4.28125 C 0.523438 -4.351562 0.613281 -4.390625 0.71875 -4.390625 C 0.8125 -4.390625 0.890625 -4.351562 0.953125 -4.28125 C 1.023438 -4.21875 1.0625 -4.132812 1.0625 -4.03125 C 1.0625 -3.925781 1.023438 -3.835938 0.953125 -3.765625 C 0.890625 -3.703125 0.8125 -3.671875 0.71875 -3.671875 Z M 0.96875 -3.15625 L 0.96875 0 L 0.4375 0 L 0.4375 -3.15625 Z M 0.96875 -3.15625 "/></g></g></g><g fill="#545454" fill-opacity="1"><g transform="translate(54.034889, 57.383622)"><g><path d="M 0.96875 -4.265625 L 0.96875 0 L 0.4375 0 L 0.4375 -4.265625 Z M 0.96875 -4.265625 "/></g></g></g><g fill="#545454" fill-opacity="1"><g transform="translate(55.740566, 57.383622)"><g><path d="M 3.328125 -1.703125 C 3.328125 -1.597656 3.320312 -1.492188 3.3125 -1.390625 L 0.78125 -1.390625 C 0.800781 -1.078125 0.90625 -0.832031 1.09375 -0.65625 C 1.289062 -0.476562 1.53125 -0.390625 1.8125 -0.390625 C 2.039062 -0.390625 2.226562 -0.441406 2.375 -0.546875 C 2.53125 -0.648438 2.640625 -0.789062 2.703125 -0.96875 L 3.265625 -0.96875 C 3.179688 -0.664062 3.007812 -0.421875 2.75 -0.234375 C 2.5 -0.046875 2.1875 0.046875 1.8125 0.046875 C 1.507812 0.046875 1.238281 -0.0195312 1 -0.15625 C 0.769531 -0.289062 0.585938 -0.476562 0.453125 -0.71875 C 0.316406 -0.96875 0.25 -1.253906 0.25 -1.578125 C 0.25 -1.910156 0.3125 -2.195312 0.4375 -2.4375 C 0.570312 -2.6875 0.753906 -2.878906 0.984375 -3.015625 C 1.222656 -3.148438 1.5 -3.21875 1.8125 -3.21875 C 2.113281 -3.21875 2.378906 -3.148438 2.609375 -3.015625 C 2.835938 -2.878906 3.015625 -2.695312 3.140625 -2.46875 C 3.265625 -2.25 3.328125 -1.992188 3.328125 -1.703125 Z M 2.78125 -1.8125 C 2.78125 -2.007812 2.734375 -2.179688 2.640625 -2.328125 C 2.554688 -2.472656 2.4375 -2.582031 2.28125 -2.65625 C 2.132812 -2.726562 1.96875 -2.765625 1.78125 -2.765625 C 1.519531 -2.765625 1.296875 -2.679688 1.109375 -2.515625 C 0.921875 -2.347656 0.816406 -2.113281 0.796875 -1.8125 Z M 2.78125 -1.8125 "/></g></g></g><g fill="#545454" fill-opacity="1"><g transform="translate(59.601332, 57.383622)"><g><path d="M 0.609375 0.03125 C 0.515625 0.03125 0.429688 0 0.359375 -0.0625 C 0.285156 -0.132812 0.25 -0.222656 0.25 -0.328125 C 0.25 -0.421875 0.285156 -0.503906 0.359375 -0.578125 C 0.429688 -0.648438 0.515625 -0.6875 0.609375 -0.6875 C 0.703125 -0.6875 0.78125 -0.648438 0.84375 -0.578125 C 0.914062 -0.503906 0.953125 -0.421875 0.953125 -0.328125 C 0.953125 -0.222656 0.914062 -0.132812 0.84375 -0.0625 C 0.78125 0 0.703125 0.03125 0.609375 0.03125 Z M 0.609375 0.03125 "/></g></g></g><g fill="#545454" fill-opacity="1"><g transform="translate(61.099569, 57.383622)"><g><path d="M 0.25 -1.578125 C 0.25 -1.910156 0.3125 -2.195312 0.4375 -2.4375 C 0.570312 -2.6875 0.753906 -2.878906 0.984375 -3.015625 C 1.222656 -3.148438 1.488281 -3.21875 1.78125 -3.21875 C 2.175781 -3.21875 2.5 -3.117188 2.75 -2.921875 C 3 -2.734375 3.164062 -2.472656 3.25 -2.140625 L 2.6875 -2.140625 C 2.625 -2.335938 2.515625 -2.488281 2.359375 -2.59375 C 2.210938 -2.707031 2.019531 -2.765625 1.78125 -2.765625 C 1.488281 -2.765625 1.25 -2.660156 1.0625 -2.453125 C 0.875 -2.253906 0.78125 -1.960938 0.78125 -1.578125 C 0.78125 -1.203125 0.875 -0.910156 1.0625 -0.703125 C 1.25 -0.492188 1.488281 -0.390625 1.78125 -0.390625 C 2.019531 -0.390625 2.210938 -0.441406 2.359375 -0.546875 C 2.515625 -0.660156 2.625 -0.816406 2.6875 -1.015625 L 3.25 -1.015625 C 3.164062 -0.691406 2.992188 -0.429688 2.734375 -0.234375 C 2.484375 -0.046875 2.164062 0.046875 1.78125 0.046875 C 1.488281 0.046875 1.222656 -0.0195312 0.984375 -0.15625 C 0.753906 -0.289062 0.570312 -0.476562 0.4375 -0.71875 C 0.3125 -0.96875 0.25 -1.253906 0.25 -1.578125 Z M 0.25 -1.578125 "/></g></g></g><g fill="#545454" fill-opacity="1"><g transform="translate(64.885423, 57.383622)"><g><path d="M 1.828125 0.046875 C 1.523438 0.046875 1.253906 -0.0195312 1.015625 -0.15625 C 0.773438 -0.289062 0.585938 -0.476562 0.453125 -0.71875 C 0.316406 -0.96875 0.25 -1.253906 0.25 -1.578125 C 0.25 -1.898438 0.316406 -2.1875 0.453125 -2.4375 C 0.597656 -2.6875 0.789062 -2.878906 1.03125 -3.015625 C 1.269531 -3.148438 1.539062 -3.21875 1.84375 -3.21875 C 2.144531 -3.21875 2.414062 -3.148438 2.65625 -3.015625 C 2.894531 -2.878906 3.082031 -2.6875 3.21875 -2.4375 C 3.363281 -2.195312 3.4375 -1.910156 3.4375 -1.578125 C 3.4375 -1.253906 3.363281 -0.96875 3.21875 -0.71875 C 3.082031 -0.476562 2.890625 -0.289062 2.640625 -0.15625 C 2.390625 -0.0195312 2.117188 0.046875 1.828125 0.046875 Z M 1.828125 -0.40625 C 2.015625 -0.40625 2.1875 -0.445312 2.34375 -0.53125 C 2.507812 -0.625 2.644531 -0.757812 2.75 -0.9375 C 2.851562 -1.113281 2.90625 -1.328125 2.90625 -1.578125 C 2.90625 -1.835938 2.851562 -2.054688 2.75 -2.234375 C 2.65625 -2.410156 2.523438 -2.539062 2.359375 -2.625 C 2.203125 -2.707031 2.03125 -2.75 1.84375 -2.75 C 1.644531 -2.75 1.46875 -2.707031 1.3125 -2.625 C 1.15625 -2.539062 1.023438 -2.410156 0.921875 -2.234375 C 0.828125 -2.054688 0.78125 -1.835938 0.78125 -1.578125 C 0.78125 -1.328125 0.828125 -1.113281 0.921875 -0.9375 C 1.015625 -0.757812 1.140625 -0.625 1.296875 -0.53125 C 1.460938 -0.445312 1.640625 -0.40625 1.828125 -0.40625 Z M 1.828125 -0.40625 "/></g></g></g><g fill="#545454" fill-opacity="1"><g transform="translate(68.861434, 57.383622)"><g><path d="M 4.25 -3.21875 C 4.488281 -3.21875 4.703125 -3.164062 4.890625 -3.0625 C 5.085938 -2.957031 5.242188 -2.800781 5.359375 -2.59375 C 5.472656 -2.394531 5.53125 -2.148438 5.53125 -1.859375 L 5.53125 0 L 5 0 L 5 -1.78125 C 5 -2.101562 4.921875 -2.347656 4.765625 -2.515625 C 4.609375 -2.679688 4.398438 -2.765625 4.140625 -2.765625 C 3.867188 -2.765625 3.648438 -2.675781 3.484375 -2.5 C 3.328125 -2.320312 3.25 -2.066406 3.25 -1.734375 L 3.25 0 L 2.734375 0 L 2.734375 -1.78125 C 2.734375 -2.101562 2.65625 -2.347656 2.5 -2.515625 C 2.34375 -2.679688 2.128906 -2.765625 1.859375 -2.765625 C 1.585938 -2.765625 1.367188 -2.675781 1.203125 -2.5 C 1.046875 -2.320312 0.96875 -2.066406 0.96875 -1.734375 L 0.96875 0 L 0.4375 0 L 0.4375 -3.15625 L 0.96875 -3.15625 L 0.96875 -2.703125 C 1.070312 -2.867188 1.210938 -2.992188 1.390625 -3.078125 C 1.566406 -3.171875 1.757812 -3.21875 1.96875 -3.21875 C 2.226562 -3.21875 2.457031 -3.15625 2.65625 -3.03125 C 2.863281 -2.914062 3.019531 -2.742188 3.125 -2.515625 C 3.207031 -2.734375 3.351562 -2.90625 3.5625 -3.03125 C 3.769531 -3.15625 4 -3.21875 4.25 -3.21875 Z M 4.25 -3.21875 "/></g></g></g><g clip-path="url(#38852301d0)"><path fill="#ff1616" d="M 60.742188 57.257812 C 60.742188 57.519531 60.53125 57.726562 60.273438 57.726562 C 60.128906 57.726562 59.996094 57.664062 59.910156 57.558594 C 59.847656 57.480469 59.808594 57.382812 59.804688 57.277344 C 59.804688 57.269531 59.804688 57.265625 59.804688 57.257812 C 59.804688 57 60.011719 56.789062 60.273438 56.789062 C 60.324219 56.789062 60.375 56.800781 60.425781 56.816406 C 60.523438 56.847656 60.605469 56.914062 60.664062 57 C 60.710938 57.074219 60.742188 57.164062 60.742188 57.257812 " fill-opacity="1" fill-rule="nonzero"/></g><g fill="#545454" fill-opacity="1"><g transform="translate(1.0295, 60.610661)"><g><path d="M 1.140625 0 L 0.96875 0 L 0.3125 -1.015625 L 0.3125 0 L 0.140625 0 L 0.140625 -1.28125 L 0.3125 -1.28125 L 0.96875 -0.265625 L 0.96875 -1.28125 L 1.140625 -1.28125 Z M 1.140625 0 "/></g></g></g><g fill="#545454" fill-opacity="1"><g transform="translate(2.959869, 60.610661)"><g><path d="M 0.21875 -1.453125 L 0.203125 -1.09375 L 0.09375 -1.09375 L 0.0625 -1.453125 Z M 0.21875 -1.453125 "/></g></g></g><g fill="#545454" fill-opacity="1"><g transform="translate(3.896744, 60.610661)"><g><path d="M 0.078125 -0.5 C 0.078125 -0.601562 0.0976562 -0.691406 0.140625 -0.765625 C 0.179688 -0.847656 0.238281 -0.910156 0.3125 -0.953125 C 0.382812 -0.992188 0.460938 -1.015625 0.546875 -1.015625 C 0.640625 -1.015625 0.71875 -0.992188 0.78125 -0.953125 C 0.84375 -0.921875 0.890625 -0.875 0.921875 -0.8125 L 0.921875 -1 L 1.09375 -1 L 1.09375 0 L 0.921875 0 L 0.921875 -0.1875 C 0.890625 -0.125 0.84375 -0.0703125 0.78125 -0.03125 C 0.71875 0 0.640625 0.015625 0.546875 0.015625 C 0.460938 0.015625 0.382812 -0.00390625 0.3125 -0.046875 C 0.238281 -0.0859375 0.179688 -0.148438 0.140625 -0.234375 C 0.0976562 -0.316406 0.078125 -0.40625 0.078125 -0.5 Z M 0.921875 -0.5 C 0.921875 -0.570312 0.90625 -0.632812 0.875 -0.6875 C 0.84375 -0.75 0.800781 -0.796875 0.75 -0.828125 C 0.707031 -0.859375 0.65625 -0.875 0.59375 -0.875 C 0.53125 -0.875 0.472656 -0.859375 0.421875 -0.828125 C 0.367188 -0.796875 0.328125 -0.753906 0.296875 -0.703125 C 0.265625 -0.648438 0.25 -0.582031 0.25 -0.5 C 0.25 -0.425781 0.265625 -0.359375 0.296875 -0.296875 C 0.328125 -0.242188 0.367188 -0.203125 0.421875 -0.171875 C 0.472656 -0.140625 0.53125 -0.125 0.59375 -0.125 C 0.65625 -0.125 0.707031 -0.140625 0.75 -0.171875 C 0.800781 -0.203125 0.84375 -0.242188 0.875 -0.296875 C 0.90625 -0.359375 0.921875 -0.425781 0.921875 -0.5 Z M 0.921875 -0.5 "/></g></g></g><g fill="#545454" fill-opacity="1"><g transform="translate(5.777803, 60.610661)"><g><path d="M 0.3125 -1.359375 L 0.3125 0 L 0.140625 0 L 0.140625 -1.359375 Z M 0.3125 -1.359375 "/></g></g></g><g fill="#545454" fill-opacity="1"><g transform="translate(6.873564, 60.610661)"><g><path d="M 0.3125 -1.359375 L 0.3125 0 L 0.140625 0 L 0.140625 -1.359375 Z M 0.3125 -1.359375 "/></g></g></g><g fill="#545454" fill-opacity="1"><g transform="translate(7.969326, 60.610661)"><g><path d="M 1.0625 -0.546875 C 1.0625 -0.503906 1.054688 -0.46875 1.046875 -0.4375 L 0.25 -0.4375 C 0.25 -0.34375 0.28125 -0.265625 0.34375 -0.203125 C 0.40625 -0.148438 0.484375 -0.125 0.578125 -0.125 C 0.648438 -0.125 0.707031 -0.140625 0.75 -0.171875 C 0.800781 -0.203125 0.835938 -0.25 0.859375 -0.3125 L 1.03125 -0.3125 C 1.007812 -0.21875 0.957031 -0.140625 0.875 -0.078125 C 0.789062 -0.015625 0.691406 0.015625 0.578125 0.015625 C 0.484375 0.015625 0.394531 -0.00390625 0.3125 -0.046875 C 0.238281 -0.0859375 0.179688 -0.144531 0.140625 -0.21875 C 0.0976562 -0.300781 0.078125 -0.394531 0.078125 -0.5 C 0.078125 -0.601562 0.0976562 -0.691406 0.140625 -0.765625 C 0.179688 -0.847656 0.238281 -0.910156 0.3125 -0.953125 C 0.382812 -0.992188 0.472656 -1.015625 0.578125 -1.015625 C 0.671875 -1.015625 0.753906 -0.992188 0.828125 -0.953125 C 0.898438 -0.910156 0.957031 -0.851562 1 -0.78125 C 1.039062 -0.707031 1.0625 -0.628906 1.0625 -0.546875 Z M 0.890625 -0.578125 C 0.890625 -0.640625 0.875 -0.691406 0.84375 -0.734375 C 0.8125 -0.785156 0.769531 -0.820312 0.71875 -0.84375 C 0.675781 -0.863281 0.625 -0.875 0.5625 -0.875 C 0.476562 -0.875 0.40625 -0.847656 0.34375 -0.796875 C 0.289062 -0.742188 0.257812 -0.671875 0.25 -0.578125 Z M 0.890625 -0.578125 "/></g></g></g><g fill="#545454" fill-opacity="1"><g transform="translate(9.748112, 60.610661)"><g><path d="M 0.265625 -0.140625 L 0.75 -0.140625 L 0.75 0 L 0.078125 0 L 0.078125 -0.140625 L 0.5625 -0.859375 L 0.078125 -0.859375 L 0.078125 -1 L 0.75 -1 L 0.75 -0.859375 Z M 0.265625 -0.140625 "/></g></g></g><g fill="#545454" fill-opacity="1"><g transform="translate(11.225564, 60.610661)"><g/></g></g><g fill="#545454" fill-opacity="1"><g transform="translate(12.359676, 60.610661)"><g><path d="M 0.3125 -0.8125 C 0.34375 -0.875 0.390625 -0.921875 0.453125 -0.953125 C 0.515625 -0.992188 0.59375 -1.015625 0.6875 -1.015625 C 0.769531 -1.015625 0.847656 -0.992188 0.921875 -0.953125 C 0.992188 -0.910156 1.050781 -0.847656 1.09375 -0.765625 C 1.132812 -0.691406 1.15625 -0.601562 1.15625 -0.5 C 1.15625 -0.40625 1.132812 -0.316406 1.09375 -0.234375 C 1.050781 -0.148438 0.992188 -0.0859375 0.921875 -0.046875 C 0.847656 -0.00390625 0.769531 0.015625 0.6875 0.015625 C 0.59375 0.015625 0.515625 0 0.453125 -0.03125 C 0.390625 -0.0703125 0.34375 -0.125 0.3125 -0.1875 L 0.3125 0.46875 L 0.140625 0.46875 L 0.140625 -1 L 0.3125 -1 Z M 0.984375 -0.5 C 0.984375 -0.582031 0.96875 -0.648438 0.9375 -0.703125 C 0.90625 -0.753906 0.863281 -0.796875 0.8125 -0.828125 C 0.757812 -0.859375 0.703125 -0.875 0.640625 -0.875 C 0.585938 -0.875 0.535156 -0.859375 0.484375 -0.828125 C 0.429688 -0.796875 0.390625 -0.75 0.359375 -0.6875 C 0.328125 -0.632812 0.3125 -0.570312 0.3125 -0.5 C 0.3125 -0.425781 0.328125 -0.359375 0.359375 -0.296875 C 0.390625 -0.242188 0.429688 -0.203125 0.484375 -0.171875 C 0.535156 -0.140625 0.585938 -0.125 0.640625 -0.125 C 0.703125 -0.125 0.757812 -0.140625 0.8125 -0.171875 C 0.863281 -0.203125 0.90625 -0.242188 0.9375 -0.296875 C 0.96875 -0.359375 0.984375 -0.425781 0.984375 -0.5 Z M 0.984375 -0.5 "/></g></g></g><g fill="#545454" fill-opacity="1"><g transform="translate(14.240736, 60.610661)"><g><path d="M 0.3125 -1.359375 L 0.3125 0 L 0.140625 0 L 0.140625 -1.359375 Z M 0.3125 -1.359375 "/></g></g></g><g fill="#545454" fill-opacity="1"><g transform="translate(15.336497, 60.610661)"><g><path d="M 1.03125 -1 L 1.03125 0 L 0.859375 0 L 0.859375 -0.140625 C 0.828125 -0.0976562 0.78125 -0.0625 0.71875 -0.03125 C 0.664062 0 0.609375 0.015625 0.546875 0.015625 C 0.460938 0.015625 0.390625 0 0.328125 -0.03125 C 0.265625 -0.0625 0.210938 -0.109375 0.171875 -0.171875 C 0.140625 -0.242188 0.125 -0.328125 0.125 -0.421875 L 0.125 -1 L 0.296875 -1 L 0.296875 -0.4375 C 0.296875 -0.332031 0.320312 -0.253906 0.375 -0.203125 C 0.425781 -0.148438 0.492188 -0.125 0.578125 -0.125 C 0.660156 -0.125 0.726562 -0.148438 0.78125 -0.203125 C 0.832031 -0.265625 0.859375 -0.347656 0.859375 -0.453125 L 0.859375 -1 Z M 1.03125 -1 "/></g></g></g><g fill="#545454" fill-opacity="1"><g transform="translate(17.15181, 60.610661)"><g><path d="M 0.5 0.015625 C 0.414062 0.015625 0.34375 0.00390625 0.28125 -0.015625 C 0.226562 -0.046875 0.179688 -0.0820312 0.140625 -0.125 C 0.109375 -0.175781 0.0859375 -0.234375 0.078125 -0.296875 L 0.25 -0.296875 C 0.257812 -0.242188 0.285156 -0.203125 0.328125 -0.171875 C 0.367188 -0.140625 0.425781 -0.125 0.5 -0.125 C 0.5625 -0.125 0.609375 -0.132812 0.640625 -0.15625 C 0.679688 -0.1875 0.703125 -0.222656 0.703125 -0.265625 C 0.703125 -0.316406 0.679688 -0.351562 0.640625 -0.375 C 0.597656 -0.394531 0.535156 -0.414062 0.453125 -0.4375 C 0.378906 -0.457031 0.316406 -0.472656 0.265625 -0.484375 C 0.222656 -0.503906 0.1875 -0.535156 0.15625 -0.578125 C 0.125 -0.617188 0.109375 -0.671875 0.109375 -0.734375 C 0.109375 -0.785156 0.125 -0.832031 0.15625 -0.875 C 0.1875 -0.914062 0.226562 -0.945312 0.28125 -0.96875 C 0.332031 -1 0.394531 -1.015625 0.46875 -1.015625 C 0.582031 -1.015625 0.671875 -0.984375 0.734375 -0.921875 C 0.804688 -0.867188 0.847656 -0.796875 0.859375 -0.703125 L 0.6875 -0.703125 C 0.6875 -0.753906 0.664062 -0.796875 0.625 -0.828125 C 0.582031 -0.859375 0.53125 -0.875 0.46875 -0.875 C 0.40625 -0.875 0.351562 -0.859375 0.3125 -0.828125 C 0.28125 -0.804688 0.265625 -0.773438 0.265625 -0.734375 C 0.265625 -0.703125 0.273438 -0.675781 0.296875 -0.65625 C 0.328125 -0.632812 0.359375 -0.617188 0.390625 -0.609375 C 0.421875 -0.597656 0.460938 -0.582031 0.515625 -0.5625 C 0.585938 -0.539062 0.644531 -0.519531 0.6875 -0.5 C 0.738281 -0.488281 0.78125 -0.460938 0.8125 -0.421875 C 0.84375 -0.378906 0.859375 -0.328125 0.859375 -0.265625 C 0.859375 -0.210938 0.84375 -0.164062 0.8125 -0.125 C 0.78125 -0.0820312 0.738281 -0.046875 0.6875 -0.015625 C 0.632812 0.00390625 0.570312 0.015625 0.5 0.015625 Z M 0.5 0.015625 "/></g></g></g><g fill="#545454" fill-opacity="1"><g transform="translate(18.751621, 60.610661)"><g/></g></g><g fill="#545454" fill-opacity="1"><g transform="translate(19.885734, 60.610661)"><g><path d="M 0.078125 -0.5 C 0.078125 -0.601562 0.0976562 -0.691406 0.140625 -0.765625 C 0.179688 -0.847656 0.238281 -0.910156 0.3125 -0.953125 C 0.382812 -0.992188 0.460938 -1.015625 0.546875 -1.015625 C 0.640625 -1.015625 0.71875 -0.992188 0.78125 -0.953125 C 0.84375 -0.921875 0.890625 -0.875 0.921875 -0.8125 L 0.921875 -1 L 1.09375 -1 L 1.09375 0 L 0.921875 0 L 0.921875 -0.1875 C 0.890625 -0.125 0.84375 -0.0703125 0.78125 -0.03125 C 0.71875 0 0.640625 0.015625 0.546875 0.015625 C 0.460938 0.015625 0.382812 -0.00390625 0.3125 -0.046875 C 0.238281 -0.0859375 0.179688 -0.148438 0.140625 -0.234375 C 0.0976562 -0.316406 0.078125 -0.40625 0.078125 -0.5 Z M 0.921875 -0.5 C 0.921875 -0.570312 0.90625 -0.632812 0.875 -0.6875 C 0.84375 -0.75 0.800781 -0.796875 0.75 -0.828125 C 0.707031 -0.859375 0.65625 -0.875 0.59375 -0.875 C 0.53125 -0.875 0.472656 -0.859375 0.421875 -0.828125 C 0.367188 -0.796875 0.328125 -0.753906 0.296875 -0.703125 C 0.265625 -0.648438 0.25 -0.582031 0.25 -0.5 C 0.25 -0.425781 0.265625 -0.359375 0.296875 -0.296875 C 0.328125 -0.242188 0.367188 -0.203125 0.421875 -0.171875 C 0.472656 -0.140625 0.53125 -0.125 0.59375 -0.125 C 0.65625 -0.125 0.707031 -0.140625 0.75 -0.171875 C 0.800781 -0.203125 0.84375 -0.242188 0.875 -0.296875 C 0.90625 -0.359375 0.921875 -0.425781 0.921875 -0.5 Z M 0.921875 -0.5 "/></g></g></g><g fill="#545454" fill-opacity="1"><g transform="translate(21.766792, 60.610661)"><g><path d="M 1.03125 -1 L 1.03125 0 L 0.859375 0 L 0.859375 -0.140625 C 0.828125 -0.0976562 0.78125 -0.0625 0.71875 -0.03125 C 0.664062 0 0.609375 0.015625 0.546875 0.015625 C 0.460938 0.015625 0.390625 0 0.328125 -0.03125 C 0.265625 -0.0625 0.210938 -0.109375 0.171875 -0.171875 C 0.140625 -0.242188 0.125 -0.328125 0.125 -0.421875 L 0.125 -1 L 0.296875 -1 L 0.296875 -0.4375 C 0.296875 -0.332031 0.320312 -0.253906 0.375 -0.203125 C 0.425781 -0.148438 0.492188 -0.125 0.578125 -0.125 C 0.660156 -0.125 0.726562 -0.148438 0.78125 -0.203125 C 0.832031 -0.265625 0.859375 -0.347656 0.859375 -0.453125 L 0.859375 -1 Z M 1.03125 -1 "/></g></g></g><g fill="#545454" fill-opacity="1"><g transform="translate(23.582105, 60.610661)"><g/></g></g><g fill="#545454" fill-opacity="1"><g transform="translate(24.716217, 60.610661)"><g><path d="M 0.34375 -0.859375 L 0.34375 -0.28125 C 0.34375 -0.226562 0.351562 -0.191406 0.375 -0.171875 C 0.394531 -0.148438 0.429688 -0.140625 0.484375 -0.140625 L 0.609375 -0.140625 L 0.609375 0 L 0.453125 0 C 0.359375 0 0.285156 -0.0195312 0.234375 -0.0625 C 0.191406 -0.101562 0.171875 -0.175781 0.171875 -0.28125 L 0.171875 -0.859375 L 0.046875 -0.859375 L 0.046875 -1 L 0.171875 -1 L 0.171875 -1.25 L 0.34375 -1.25 L 0.34375 -1 L 0.609375 -1 L 0.609375 -0.859375 Z M 0.34375 -0.859375 "/></g></g></g><g fill="#545454" fill-opacity="1"><g transform="translate(26.027478, 60.610661)"><g><path d="M 0.3125 -0.84375 C 0.332031 -0.894531 0.367188 -0.9375 0.421875 -0.96875 C 0.484375 -1 0.550781 -1.015625 0.625 -1.015625 L 0.625 -0.84375 L 0.59375 -0.84375 C 0.40625 -0.84375 0.3125 -0.742188 0.3125 -0.546875 L 0.3125 0 L 0.140625 0 L 0.140625 -1 L 0.3125 -1 Z M 0.3125 -0.84375 "/></g></g></g><g fill="#545454" fill-opacity="1"><g transform="translate(27.355175, 60.610661)"><g><path d="M 0.078125 -0.5 C 0.078125 -0.601562 0.0976562 -0.691406 0.140625 -0.765625 C 0.179688 -0.847656 0.238281 -0.910156 0.3125 -0.953125 C 0.382812 -0.992188 0.460938 -1.015625 0.546875 -1.015625 C 0.640625 -1.015625 0.71875 -0.992188 0.78125 -0.953125 C 0.84375 -0.921875 0.890625 -0.875 0.921875 -0.8125 L 0.921875 -1 L 1.09375 -1 L 1.09375 0 L 0.921875 0 L 0.921875 -0.1875 C 0.890625 -0.125 0.84375 -0.0703125 0.78125 -0.03125 C 0.71875 0 0.640625 0.015625 0.546875 0.015625 C 0.460938 0.015625 0.382812 -0.00390625 0.3125 -0.046875 C 0.238281 -0.0859375 0.179688 -0.148438 0.140625 -0.234375 C 0.0976562 -0.316406 0.078125 -0.40625 0.078125 -0.5 Z M 0.921875 -0.5 C 0.921875 -0.570312 0.90625 -0.632812 0.875 -0.6875 C 0.84375 -0.75 0.800781 -0.796875 0.75 -0.828125 C 0.707031 -0.859375 0.65625 -0.875 0.59375 -0.875 C 0.53125 -0.875 0.472656 -0.859375 0.421875 -0.828125 C 0.367188 -0.796875 0.328125 -0.753906 0.296875 -0.703125 C 0.265625 -0.648438 0.25 -0.582031 0.25 -0.5 C 0.25 -0.425781 0.265625 -0.359375 0.296875 -0.296875 C 0.328125 -0.242188 0.367188 -0.203125 0.421875 -0.171875 C 0.472656 -0.140625 0.53125 -0.125 0.59375 -0.125 C 0.65625 -0.125 0.707031 -0.140625 0.75 -0.171875 C 0.800781 -0.203125 0.84375 -0.242188 0.875 -0.296875 C 0.90625 -0.359375 0.921875 -0.425781 0.921875 -0.5 Z M 0.921875 -0.5 "/></g></g></g><g fill="#545454" fill-opacity="1"><g transform="translate(29.236234, 60.610661)"><g><path d="M 0.515625 -0.15625 L 0.828125 -1 L 1 -1 L 0.609375 0 L 0.421875 0 L 0.015625 -1 L 0.203125 -1 Z M 0.515625 -0.15625 "/></g></g></g><g fill="#545454" fill-opacity="1"><g transform="translate(30.90727, 60.610661)"><g><path d="M 0.078125 -0.5 C 0.078125 -0.601562 0.0976562 -0.691406 0.140625 -0.765625 C 0.179688 -0.847656 0.238281 -0.910156 0.3125 -0.953125 C 0.382812 -0.992188 0.460938 -1.015625 0.546875 -1.015625 C 0.640625 -1.015625 0.71875 -0.992188 0.78125 -0.953125 C 0.84375 -0.921875 0.890625 -0.875 0.921875 -0.8125 L 0.921875 -1 L 1.09375 -1 L 1.09375 0 L 0.921875 0 L 0.921875 -0.1875 C 0.890625 -0.125 0.84375 -0.0703125 0.78125 -0.03125 C 0.71875 0 0.640625 0.015625 0.546875 0.015625 C 0.460938 0.015625 0.382812 -0.00390625 0.3125 -0.046875 C 0.238281 -0.0859375 0.179688 -0.148438 0.140625 -0.234375 C 0.0976562 -0.316406 0.078125 -0.40625 0.078125 -0.5 Z M 0.921875 -0.5 C 0.921875 -0.570312 0.90625 -0.632812 0.875 -0.6875 C 0.84375 -0.75 0.800781 -0.796875 0.75 -0.828125 C 0.707031 -0.859375 0.65625 -0.875 0.59375 -0.875 C 0.53125 -0.875 0.472656 -0.859375 0.421875 -0.828125 C 0.367188 -0.796875 0.328125 -0.753906 0.296875 -0.703125 C 0.265625 -0.648438 0.25 -0.582031 0.25 -0.5 C 0.25 -0.425781 0.265625 -0.359375 0.296875 -0.296875 C 0.328125 -0.242188 0.367188 -0.203125 0.421875 -0.171875 C 0.472656 -0.140625 0.53125 -0.125 0.59375 -0.125 C 0.65625 -0.125 0.707031 -0.140625 0.75 -0.171875 C 0.800781 -0.203125 0.84375 -0.242188 0.875 -0.296875 C 0.90625 -0.359375 0.921875 -0.425781 0.921875 -0.5 Z M 0.921875 -0.5 "/></g></g></g><g fill="#545454" fill-opacity="1"><g transform="translate(32.788329, 60.610661)"><g><path d="M 0.234375 -1.171875 C 0.191406 -1.171875 0.160156 -1.179688 0.140625 -1.203125 C 0.117188 -1.222656 0.109375 -1.25 0.109375 -1.28125 C 0.109375 -1.3125 0.117188 -1.335938 0.140625 -1.359375 C 0.160156 -1.378906 0.191406 -1.390625 0.234375 -1.390625 C 0.253906 -1.390625 0.273438 -1.378906 0.296875 -1.359375 C 0.328125 -1.335938 0.34375 -1.3125 0.34375 -1.28125 C 0.34375 -1.25 0.328125 -1.222656 0.296875 -1.203125 C 0.273438 -1.179688 0.253906 -1.171875 0.234375 -1.171875 Z M 0.3125 -1 L 0.3125 0 L 0.140625 0 L 0.140625 -1 Z M 0.3125 -1 "/></g></g></g><g fill="#545454" fill-opacity="1"><g transform="translate(33.884091, 60.610661)"><g><path d="M 0.3125 -1.359375 L 0.3125 0 L 0.140625 0 L 0.140625 -1.359375 Z M 0.3125 -1.359375 "/></g></g></g><g fill="#545454" fill-opacity="1"><g transform="translate(34.979852, 60.610661)"><g><path d="M 0.53125 0.015625 C 0.5 0.015625 0.472656 0.00390625 0.453125 -0.015625 C 0.429688 -0.046875 0.421875 -0.078125 0.421875 -0.109375 C 0.421875 -0.140625 0.429688 -0.164062 0.453125 -0.1875 C 0.472656 -0.207031 0.5 -0.21875 0.53125 -0.21875 C 0.5625 -0.21875 0.585938 -0.207031 0.609375 -0.1875 C 0.628906 -0.164062 0.640625 -0.140625 0.640625 -0.109375 C 0.640625 -0.078125 0.628906 -0.046875 0.609375 -0.015625 C 0.585938 0.00390625 0.5625 0.015625 0.53125 0.015625 Z M 0.875 0.015625 C 0.84375 0.015625 0.816406 0.00390625 0.796875 -0.015625 C 0.773438 -0.046875 0.765625 -0.078125 0.765625 -0.109375 C 0.765625 -0.140625 0.773438 -0.164062 0.796875 -0.1875 C 0.816406 -0.207031 0.84375 -0.21875 0.875 -0.21875 C 0.90625 -0.21875 0.929688 -0.207031 0.953125 -0.1875 C 0.972656 -0.164062 0.984375 -0.140625 0.984375 -0.109375 C 0.984375 -0.078125 0.972656 -0.046875 0.953125 -0.015625 C 0.929688 0.00390625 0.90625 0.015625 0.875 0.015625 Z M 0.1875 0.015625 C 0.15625 0.015625 0.128906 0.00390625 0.109375 -0.015625 C 0.0859375 -0.046875 0.078125 -0.078125 0.078125 -0.109375 C 0.078125 -0.140625 0.0859375 -0.164062 0.109375 -0.1875 C 0.128906 -0.207031 0.15625 -0.21875 0.1875 -0.21875 C 0.21875 -0.21875 0.242188 -0.207031 0.265625 -0.1875 C 0.285156 -0.164062 0.296875 -0.140625 0.296875 -0.109375 C 0.296875 -0.078125 0.285156 -0.046875 0.265625 -0.015625 C 0.242188 0.00390625 0.21875 0.015625 0.1875 0.015625 Z M 0.1875 0.015625 "/></g></g></g><g fill="#545454" fill-opacity="1"><g transform="translate(36.687414, 60.610661)"><g/></g></g><g fill="#545454" fill-opacity="1"><g transform="translate(37.821527, 60.610661)"><g><path d="M 0.3125 -0.140625 L 0.75 -0.140625 L 0.75 0 L 0.140625 0 L 0.140625 -1.28125 L 0.3125 -1.28125 Z M 0.3125 -0.140625 "/></g></g></g><g fill="#545454" fill-opacity="1"><g transform="translate(39.256975, 60.610661)"><g><path d="M 1.0625 -0.546875 C 1.0625 -0.503906 1.054688 -0.46875 1.046875 -0.4375 L 0.25 -0.4375 C 0.25 -0.34375 0.28125 -0.265625 0.34375 -0.203125 C 0.40625 -0.148438 0.484375 -0.125 0.578125 -0.125 C 0.648438 -0.125 0.707031 -0.140625 0.75 -0.171875 C 0.800781 -0.203125 0.835938 -0.25 0.859375 -0.3125 L 1.03125 -0.3125 C 1.007812 -0.21875 0.957031 -0.140625 0.875 -0.078125 C 0.789062 -0.015625 0.691406 0.015625 0.578125 0.015625 C 0.484375 0.015625 0.394531 -0.00390625 0.3125 -0.046875 C 0.238281 -0.0859375 0.179688 -0.144531 0.140625 -0.21875 C 0.0976562 -0.300781 0.078125 -0.394531 0.078125 -0.5 C 0.078125 -0.601562 0.0976562 -0.691406 0.140625 -0.765625 C 0.179688 -0.847656 0.238281 -0.910156 0.3125 -0.953125 C 0.382812 -0.992188 0.472656 -1.015625 0.578125 -1.015625 C 0.671875 -1.015625 0.753906 -0.992188 0.828125 -0.953125 C 0.898438 -0.910156 0.957031 -0.851562 1 -0.78125 C 1.039062 -0.707031 1.0625 -0.628906 1.0625 -0.546875 Z M 0.890625 -0.578125 C 0.890625 -0.640625 0.875 -0.691406 0.84375 -0.734375 C 0.8125 -0.785156 0.769531 -0.820312 0.71875 -0.84375 C 0.675781 -0.863281 0.625 -0.875 0.5625 -0.875 C 0.476562 -0.875 0.40625 -0.847656 0.34375 -0.796875 C 0.289062 -0.742188 0.257812 -0.671875 0.25 -0.578125 Z M 0.890625 -0.578125 "/></g></g></g><g fill="#545454" fill-opacity="1"><g transform="translate(41.035759, 60.610661)"><g/></g></g><g fill="#545454" fill-opacity="1"><g transform="translate(42.169872, 60.610661)"><g><path d="M 0.34375 -0.859375 L 0.34375 -0.28125 C 0.34375 -0.226562 0.351562 -0.191406 0.375 -0.171875 C 0.394531 -0.148438 0.429688 -0.140625 0.484375 -0.140625 L 0.609375 -0.140625 L 0.609375 0 L 0.453125 0 C 0.359375 0 0.285156 -0.0195312 0.234375 -0.0625 C 0.191406 -0.101562 0.171875 -0.175781 0.171875 -0.28125 L 0.171875 -0.859375 L 0.046875 -0.859375 L 0.046875 -1 L 0.171875 -1 L 0.171875 -1.25 L 0.34375 -1.25 L 0.34375 -1 L 0.609375 -1 L 0.609375 -0.859375 Z M 0.34375 -0.859375 "/></g></g></g><g fill="#545454" fill-opacity="1"><g transform="translate(43.481132, 60.610661)"><g><path d="M 0.3125 -0.84375 C 0.332031 -0.894531 0.367188 -0.9375 0.421875 -0.96875 C 0.484375 -1 0.550781 -1.015625 0.625 -1.015625 L 0.625 -0.84375 L 0.59375 -0.84375 C 0.40625 -0.84375 0.3125 -0.742188 0.3125 -0.546875 L 0.3125 0 L 0.140625 0 L 0.140625 -1 L 0.3125 -1 Z M 0.3125 -0.84375 "/></g></g></g><g fill="#545454" fill-opacity="1"><g transform="translate(44.808829, 60.610661)"><g><path d="M 0.078125 -0.5 C 0.078125 -0.601562 0.0976562 -0.691406 0.140625 -0.765625 C 0.179688 -0.847656 0.238281 -0.910156 0.3125 -0.953125 C 0.382812 -0.992188 0.460938 -1.015625 0.546875 -1.015625 C 0.640625 -1.015625 0.71875 -0.992188 0.78125 -0.953125 C 0.84375 -0.921875 0.890625 -0.875 0.921875 -0.8125 L 0.921875 -1 L 1.09375 -1 L 1.09375 0 L 0.921875 0 L 0.921875 -0.1875 C 0.890625 -0.125 0.84375 -0.0703125 0.78125 -0.03125 C 0.71875 0 0.640625 0.015625 0.546875 0.015625 C 0.460938 0.015625 0.382812 -0.00390625 0.3125 -0.046875 C 0.238281 -0.0859375 0.179688 -0.148438 0.140625 -0.234375 C 0.0976562 -0.316406 0.078125 -0.40625 0.078125 -0.5 Z M 0.921875 -0.5 C 0.921875 -0.570312 0.90625 -0.632812 0.875 -0.6875 C 0.84375 -0.75 0.800781 -0.796875 0.75 -0.828125 C 0.707031 -0.859375 0.65625 -0.875 0.59375 -0.875 C 0.53125 -0.875 0.472656 -0.859375 0.421875 -0.828125 C 0.367188 -0.796875 0.328125 -0.753906 0.296875 -0.703125 C 0.265625 -0.648438 0.25 -0.582031 0.25 -0.5 C 0.25 -0.425781 0.265625 -0.359375 0.296875 -0.296875 C 0.328125 -0.242188 0.367188 -0.203125 0.421875 -0.171875 C 0.472656 -0.140625 0.53125 -0.125 0.59375 -0.125 C 0.65625 -0.125 0.707031 -0.140625 0.75 -0.171875 C 0.800781 -0.203125 0.84375 -0.242188 0.875 -0.296875 C 0.90625 -0.359375 0.921875 -0.425781 0.921875 -0.5 Z M 0.921875 -0.5 "/></g></g></g><g fill="#545454" fill-opacity="1"><g transform="translate(46.689886, 60.610661)"><g><path d="M 0.515625 -0.15625 L 0.828125 -1 L 1 -1 L 0.609375 0 L 0.421875 0 L 0.015625 -1 L 0.203125 -1 Z M 0.515625 -0.15625 "/></g></g></g><g fill="#545454" fill-opacity="1"><g transform="translate(48.360922, 60.610661)"><g><path d="M 0.078125 -0.5 C 0.078125 -0.601562 0.0976562 -0.691406 0.140625 -0.765625 C 0.179688 -0.847656 0.238281 -0.910156 0.3125 -0.953125 C 0.382812 -0.992188 0.460938 -1.015625 0.546875 -1.015625 C 0.640625 -1.015625 0.71875 -0.992188 0.78125 -0.953125 C 0.84375 -0.921875 0.890625 -0.875 0.921875 -0.8125 L 0.921875 -1 L 1.09375 -1 L 1.09375 0 L 0.921875 0 L 0.921875 -0.1875 C 0.890625 -0.125 0.84375 -0.0703125 0.78125 -0.03125 C 0.71875 0 0.640625 0.015625 0.546875 0.015625 C 0.460938 0.015625 0.382812 -0.00390625 0.3125 -0.046875 C 0.238281 -0.0859375 0.179688 -0.148438 0.140625 -0.234375 C 0.0976562 -0.316406 0.078125 -0.40625 0.078125 -0.5 Z M 0.921875 -0.5 C 0.921875 -0.570312 0.90625 -0.632812 0.875 -0.6875 C 0.84375 -0.75 0.800781 -0.796875 0.75 -0.828125 C 0.707031 -0.859375 0.65625 -0.875 0.59375 -0.875 C 0.53125 -0.875 0.472656 -0.859375 0.421875 -0.828125 C 0.367188 -0.796875 0.328125 -0.753906 0.296875 -0.703125 C 0.265625 -0.648438 0.25 -0.582031 0.25 -0.5 C 0.25 -0.425781 0.265625 -0.359375 0.296875 -0.296875 C 0.328125 -0.242188 0.367188 -0.203125 0.421875 -0.171875 C 0.472656 -0.140625 0.53125 -0.125 0.59375 -0.125 C 0.65625 -0.125 0.707031 -0.140625 0.75 -0.171875 C 0.800781 -0.203125 0.84375 -0.242188 0.875 -0.296875 C 0.90625 -0.359375 0.921875 -0.425781 0.921875 -0.5 Z M 0.921875 -0.5 "/></g></g></g><g fill="#545454" fill-opacity="1"><g transform="translate(50.241979, 60.610661)"><g><path d="M 0.234375 -1.171875 C 0.191406 -1.171875 0.160156 -1.179688 0.140625 -1.203125 C 0.117188 -1.222656 0.109375 -1.25 0.109375 -1.28125 C 0.109375 -1.3125 0.117188 -1.335938 0.140625 -1.359375 C 0.160156 -1.378906 0.191406 -1.390625 0.234375 -1.390625 C 0.253906 -1.390625 0.273438 -1.378906 0.296875 -1.359375 C 0.328125 -1.335938 0.34375 -1.3125 0.34375 -1.28125 C 0.34375 -1.25 0.328125 -1.222656 0.296875 -1.203125 C 0.273438 -1.179688 0.253906 -1.171875 0.234375 -1.171875 Z M 0.3125 -1 L 0.3125 0 L 0.140625 0 L 0.140625 -1 Z M 0.3125 -1 "/></g></g></g><g fill="#545454" fill-opacity="1"><g transform="translate(51.337738, 60.610661)"><g><path d="M 0.3125 -1.359375 L 0.3125 0 L 0.140625 0 L 0.140625 -1.359375 Z M 0.3125 -1.359375 "/></g></g></g><g fill="#545454" fill-opacity="1"><g transform="translate(52.433497, 60.610661)"><g/></g></g><g fill="#545454" fill-opacity="1"><g transform="translate(53.56761, 60.610661)"><g><path d="M 0.515625 -0.15625 L 0.828125 -1 L 1 -1 L 0.609375 0 L 0.421875 0 L 0.015625 -1 L 0.203125 -1 Z M 0.515625 -0.15625 "/></g></g></g><g fill="#545454" fill-opacity="1"><g transform="translate(55.238646, 60.610661)"><g><path d="M 0.234375 -1.171875 C 0.191406 -1.171875 0.160156 -1.179688 0.140625 -1.203125 C 0.117188 -1.222656 0.109375 -1.25 0.109375 -1.28125 C 0.109375 -1.3125 0.117188 -1.335938 0.140625 -1.359375 C 0.160156 -1.378906 0.191406 -1.390625 0.234375 -1.390625 C 0.253906 -1.390625 0.273438 -1.378906 0.296875 -1.359375 C 0.328125 -1.335938 0.34375 -1.3125 0.34375 -1.28125 C 0.34375 -1.25 0.328125 -1.222656 0.296875 -1.203125 C 0.273438 -1.179688 0.253906 -1.171875 0.234375 -1.171875 Z M 0.3125 -1 L 0.3125 0 L 0.140625 0 L 0.140625 -1 Z M 0.3125 -1 "/></g></g></g><g fill="#545454" fill-opacity="1"><g transform="translate(56.334405, 60.610661)"><g><path d="M 1.0625 -0.546875 C 1.0625 -0.503906 1.054688 -0.46875 1.046875 -0.4375 L 0.25 -0.4375 C 0.25 -0.34375 0.28125 -0.265625 0.34375 -0.203125 C 0.40625 -0.148438 0.484375 -0.125 0.578125 -0.125 C 0.648438 -0.125 0.707031 -0.140625 0.75 -0.171875 C 0.800781 -0.203125 0.835938 -0.25 0.859375 -0.3125 L 1.03125 -0.3125 C 1.007812 -0.21875 0.957031 -0.140625 0.875 -0.078125 C 0.789062 -0.015625 0.691406 0.015625 0.578125 0.015625 C 0.484375 0.015625 0.394531 -0.00390625 0.3125 -0.046875 C 0.238281 -0.0859375 0.179688 -0.144531 0.140625 -0.21875 C 0.0976562 -0.300781 0.078125 -0.394531 0.078125 -0.5 C 0.078125 -0.601562 0.0976562 -0.691406 0.140625 -0.765625 C 0.179688 -0.847656 0.238281 -0.910156 0.3125 -0.953125 C 0.382812 -0.992188 0.472656 -1.015625 0.578125 -1.015625 C 0.671875 -1.015625 0.753906 -0.992188 0.828125 -0.953125 C 0.898438 -0.910156 0.957031 -0.851562 1 -0.78125 C 1.039062 -0.707031 1.0625 -0.628906 1.0625 -0.546875 Z M 0.890625 -0.578125 C 0.890625 -0.640625 0.875 -0.691406 0.84375 -0.734375 C 0.8125 -0.785156 0.769531 -0.820312 0.71875 -0.84375 C 0.675781 -0.863281 0.625 -0.875 0.5625 -0.875 C 0.476562 -0.875 0.40625 -0.847656 0.34375 -0.796875 C 0.289062 -0.742188 0.257812 -0.671875 0.25 -0.578125 Z M 0.890625 -0.578125 "/></g></g></g><g fill="#545454" fill-opacity="1"><g transform="translate(58.113191, 60.610661)"><g><path d="M 0.625 -1.015625 C 0.75 -1.015625 0.847656 -0.976562 0.921875 -0.90625 C 0.992188 -0.832031 1.03125 -0.726562 1.03125 -0.59375 L 1.03125 0 L 0.875 0 L 0.875 -0.5625 C 0.875 -0.664062 0.847656 -0.742188 0.796875 -0.796875 C 0.742188 -0.847656 0.675781 -0.875 0.59375 -0.875 C 0.507812 -0.875 0.441406 -0.847656 0.390625 -0.796875 C 0.335938 -0.742188 0.3125 -0.660156 0.3125 -0.546875 L 0.3125 0 L 0.140625 0 L 0.140625 -1 L 0.3125 -1 L 0.3125 -0.859375 C 0.34375 -0.910156 0.382812 -0.945312 0.4375 -0.96875 C 0.5 -1 0.5625 -1.015625 0.625 -1.015625 Z M 0.625 -1.015625 "/></g></g></g><g fill="#545454" fill-opacity="1"><g transform="translate(59.928502, 60.610661)"><g><path d="M 0.34375 -0.859375 L 0.34375 -0.28125 C 0.34375 -0.226562 0.351562 -0.191406 0.375 -0.171875 C 0.394531 -0.148438 0.429688 -0.140625 0.484375 -0.140625 L 0.609375 -0.140625 L 0.609375 0 L 0.453125 0 C 0.359375 0 0.285156 -0.0195312 0.234375 -0.0625 C 0.191406 -0.101562 0.171875 -0.175781 0.171875 -0.28125 L 0.171875 -0.859375 L 0.046875 -0.859375 L 0.046875 -1 L 0.171875 -1 L 0.171875 -1.25 L 0.34375 -1.25 L 0.34375 -1 L 0.609375 -1 L 0.609375 -0.859375 Z M 0.34375 -0.859375 "/></g></g></g><g fill="#545454" fill-opacity="1"><g transform="translate(61.239762, 60.610661)"><g/></g></g><g fill="#545454" fill-opacity="1"><g transform="translate(62.373875, 60.610661)"><g><path d="M 0.078125 -0.5 C 0.078125 -0.601562 0.0976562 -0.691406 0.140625 -0.765625 C 0.179688 -0.847656 0.238281 -0.910156 0.3125 -0.953125 C 0.382812 -0.992188 0.460938 -1.015625 0.546875 -1.015625 C 0.640625 -1.015625 0.71875 -0.992188 0.78125 -0.953125 C 0.84375 -0.921875 0.890625 -0.875 0.921875 -0.8125 L 0.921875 -1 L 1.09375 -1 L 1.09375 0 L 0.921875 0 L 0.921875 -0.1875 C 0.890625 -0.125 0.84375 -0.0703125 0.78125 -0.03125 C 0.71875 0 0.640625 0.015625 0.546875 0.015625 C 0.460938 0.015625 0.382812 -0.00390625 0.3125 -0.046875 C 0.238281 -0.0859375 0.179688 -0.148438 0.140625 -0.234375 C 0.0976562 -0.316406 0.078125 -0.40625 0.078125 -0.5 Z M 0.921875 -0.5 C 0.921875 -0.570312 0.90625 -0.632812 0.875 -0.6875 C 0.84375 -0.75 0.800781 -0.796875 0.75 -0.828125 C 0.707031 -0.859375 0.65625 -0.875 0.59375 -0.875 C 0.53125 -0.875 0.472656 -0.859375 0.421875 -0.828125 C 0.367188 -0.796875 0.328125 -0.753906 0.296875 -0.703125 C 0.265625 -0.648438 0.25 -0.582031 0.25 -0.5 C 0.25 -0.425781 0.265625 -0.359375 0.296875 -0.296875 C 0.328125 -0.242188 0.367188 -0.203125 0.421875 -0.171875 C 0.472656 -0.140625 0.53125 -0.125 0.59375 -0.125 C 0.65625 -0.125 0.707031 -0.140625 0.75 -0.171875 C 0.800781 -0.203125 0.84375 -0.242188 0.875 -0.296875 C 0.90625 -0.359375 0.921875 -0.425781 0.921875 -0.5 Z M 0.796875 -1.203125 L 0.796875 -1.078125 L 0.40625 -1.28125 L 0.40625 -1.421875 Z M 0.796875 -1.203125 "/></g></g></g><g fill="#545454" fill-opacity="1"><g transform="translate(64.254932, 60.610661)"><g/></g></g><g fill="#545454" fill-opacity="1"><g transform="translate(65.389045, 60.610661)"><g><path d="M 0.515625 -0.15625 L 0.828125 -1 L 1 -1 L 0.609375 0 L 0.421875 0 L 0.015625 -1 L 0.203125 -1 Z M 0.515625 -0.15625 "/></g></g></g><g fill="#545454" fill-opacity="1"><g transform="translate(67.060081, 60.610661)"><g><path d="M 0.578125 0.015625 C 0.484375 0.015625 0.394531 -0.00390625 0.3125 -0.046875 C 0.238281 -0.0859375 0.179688 -0.144531 0.140625 -0.21875 C 0.0976562 -0.300781 0.078125 -0.394531 0.078125 -0.5 C 0.078125 -0.601562 0.0976562 -0.691406 0.140625 -0.765625 C 0.191406 -0.847656 0.253906 -0.910156 0.328125 -0.953125 C 0.398438 -0.992188 0.484375 -1.015625 0.578125 -1.015625 C 0.679688 -1.015625 0.769531 -0.992188 0.84375 -0.953125 C 0.914062 -0.910156 0.972656 -0.847656 1.015625 -0.765625 C 1.066406 -0.691406 1.09375 -0.601562 1.09375 -0.5 C 1.09375 -0.394531 1.066406 -0.300781 1.015625 -0.21875 C 0.972656 -0.144531 0.910156 -0.0859375 0.828125 -0.046875 C 0.753906 -0.00390625 0.671875 0.015625 0.578125 0.015625 Z M 0.578125 -0.125 C 0.640625 -0.125 0.695312 -0.140625 0.75 -0.171875 C 0.800781 -0.203125 0.84375 -0.242188 0.875 -0.296875 C 0.90625 -0.347656 0.921875 -0.414062 0.921875 -0.5 C 0.921875 -0.582031 0.90625 -0.648438 0.875 -0.703125 C 0.84375 -0.765625 0.800781 -0.804688 0.75 -0.828125 C 0.695312 -0.859375 0.640625 -0.875 0.578125 -0.875 C 0.515625 -0.875 0.457031 -0.859375 0.40625 -0.828125 C 0.363281 -0.804688 0.328125 -0.765625 0.296875 -0.703125 C 0.265625 -0.648438 0.25 -0.582031 0.25 -0.5 C 0.25 -0.414062 0.265625 -0.347656 0.296875 -0.296875 C 0.328125 -0.242188 0.363281 -0.203125 0.40625 -0.171875 C 0.457031 -0.140625 0.515625 -0.125 0.578125 -0.125 Z M 0.578125 -0.125 "/></g></g></g><g fill="#545454" fill-opacity="1"><g transform="translate(68.875391, 60.610661)"><g><path d="M 1.03125 -1 L 1.03125 0 L 0.859375 0 L 0.859375 -0.140625 C 0.828125 -0.0976562 0.78125 -0.0625 0.71875 -0.03125 C 0.664062 0 0.609375 0.015625 0.546875 0.015625 C 0.460938 0.015625 0.390625 0 0.328125 -0.03125 C 0.265625 -0.0625 0.210938 -0.109375 0.171875 -0.171875 C 0.140625 -0.242188 0.125 -0.328125 0.125 -0.421875 L 0.125 -1 L 0.296875 -1 L 0.296875 -0.4375 C 0.296875 -0.332031 0.320312 -0.253906 0.375 -0.203125 C 0.425781 -0.148438 0.492188 -0.125 0.578125 -0.125 C 0.660156 -0.125 0.726562 -0.148438 0.78125 -0.203125 C 0.832031 -0.265625 0.859375 -0.347656 0.859375 -0.453125 L 0.859375 -1 Z M 1.03125 -1 "/></g></g></g><g fill="#545454" fill-opacity="1"><g transform="translate(70.690701, 60.610661)"><g><path d="M 0.5 0.015625 C 0.414062 0.015625 0.34375 0.00390625 0.28125 -0.015625 C 0.226562 -0.046875 0.179688 -0.0820312 0.140625 -0.125 C 0.109375 -0.175781 0.0859375 -0.234375 0.078125 -0.296875 L 0.25 -0.296875 C 0.257812 -0.242188 0.285156 -0.203125 0.328125 -0.171875 C 0.367188 -0.140625 0.425781 -0.125 0.5 -0.125 C 0.5625 -0.125 0.609375 -0.132812 0.640625 -0.15625 C 0.679688 -0.1875 0.703125 -0.222656 0.703125 -0.265625 C 0.703125 -0.316406 0.679688 -0.351562 0.640625 -0.375 C 0.597656 -0.394531 0.535156 -0.414062 0.453125 -0.4375 C 0.378906 -0.457031 0.316406 -0.472656 0.265625 -0.484375 C 0.222656 -0.503906 0.1875 -0.535156 0.15625 -0.578125 C 0.125 -0.617188 0.109375 -0.671875 0.109375 -0.734375 C 0.109375 -0.785156 0.125 -0.832031 0.15625 -0.875 C 0.1875 -0.914062 0.226562 -0.945312 0.28125 -0.96875 C 0.332031 -1 0.394531 -1.015625 0.46875 -1.015625 C 0.582031 -1.015625 0.671875 -0.984375 0.734375 -0.921875 C 0.804688 -0.867188 0.847656 -0.796875 0.859375 -0.703125 L 0.6875 -0.703125 C 0.6875 -0.753906 0.664062 -0.796875 0.625 -0.828125 C 0.582031 -0.859375 0.53125 -0.875 0.46875 -0.875 C 0.40625 -0.875 0.351562 -0.859375 0.3125 -0.828125 C 0.28125 -0.804688 0.265625 -0.773438 0.265625 -0.734375 C 0.265625 -0.703125 0.273438 -0.675781 0.296875 -0.65625 C 0.328125 -0.632812 0.359375 -0.617188 0.390625 -0.609375 C 0.421875 -0.597656 0.460938 -0.582031 0.515625 -0.5625 C 0.585938 -0.539062 0.644531 -0.519531 0.6875 -0.5 C 0.738281 -0.488281 0.78125 -0.460938 0.8125 -0.421875 C 0.84375 -0.378906 0.859375 -0.328125 0.859375 -0.265625 C 0.859375 -0.210938 0.84375 -0.164062 0.8125 -0.125 C 0.78125 -0.0820312 0.738281 -0.046875 0.6875 -0.015625 C 0.632812 0.00390625 0.570312 0.015625 0.5 0.015625 Z M 0.5 0.015625 "/></g></g></g><g fill="#545454" fill-opacity="1"><g transform="translate(72.290511, 60.610661)"><g/></g></g><g fill="#545454" fill-opacity="1"><g transform="translate(73.424623, 60.610661)"><g><path d="M 0.359375 -1.28125 L 0.34375 -0.359375 L 0.203125 -0.359375 L 0.171875 -1.28125 Z M 0.28125 0.015625 C 0.25 0.015625 0.21875 0.00390625 0.1875 -0.015625 C 0.164062 -0.046875 0.15625 -0.078125 0.15625 -0.109375 C 0.15625 -0.140625 0.164062 -0.164062 0.1875 -0.1875 C 0.21875 -0.207031 0.25 -0.21875 0.28125 -0.21875 C 0.300781 -0.21875 0.320312 -0.207031 0.34375 -0.1875 C 0.375 -0.164062 0.390625 -0.140625 0.390625 -0.109375 C 0.390625 -0.078125 0.375 -0.046875 0.34375 -0.015625 C 0.320312 0.00390625 0.300781 0.015625 0.28125 0.015625 Z M 0.28125 0.015625 "/></g></g></g><g clip-path="url(#0e7b50630d)"><g clip-path="url(#6d208a6aa1)"><path fill="#ffffff" d="M 43.957031 19.933594 L 50.289062 19.933594 L 50.289062 26.605469 L 43.957031 26.605469 Z M 43.957031 19.933594 " fill-opacity="1" fill-rule="nonzero"/></g></g><path fill="#ffffff" d="M 51.738281 31.882812 L 51.53125 25.101562 L 53.464844 24.484375 L 53.378906 20.511719 L 49.976562 18.660156 L 44.261719 18.660156 C 44.261719 18.660156 41.875 28.167969 45.945312 27.578125 L 45.589844 31.539062 Z M 51.738281 31.882812 " fill-opacity="1" fill-rule="nonzero"/><path fill="#545454" d="M 45.429688 31.679688 L 45.789062 27.753906 C 45.160156 27.800781 44.644531 27.609375 44.253906 27.183594 C 43.511719 26.351562 43.265625 24.65625 43.523438 22.144531 C 43.710938 20.289062 44.121094 18.652344 44.125 18.636719 L 44.15625 18.53125 L 50.019531 18.53125 L 53.515625 20.433594 L 53.609375 24.589844 L 51.675781 25.210938 L 51.890625 32.039062 Z M 53.238281 20.605469 L 49.9375 18.808594 L 44.378906 18.808594 C 44.175781 19.664062 42.929688 25.273438 44.46875 26.992188 C 44.828125 27.394531 45.308594 27.535156 45.925781 27.449219 L 46.105469 27.421875 L 45.738281 31.40625 L 51.589844 31.730469 L 51.378906 25 L 53.316406 24.382812 Z M 53.238281 20.605469 " fill-opacity="1" fill-rule="nonzero"/><path fill="#545454" d="M 45.429688 25.210938 C 45.816406 25.210938 46.277344 25.066406 46.535156 24.5625 L 46.277344 24.433594 C 45.917969 25.128906 45.09375 24.878906 45.066406 24.863281 L 44.980469 25.136719 C 45.09375 25.171875 45.25 25.210938 45.429688 25.210938 Z M 45.429688 25.210938 " fill-opacity="1" fill-rule="nonzero"/><path fill="#545454" d="M 44.988281 24.339844 L 45.050781 24.058594 L 44.550781 23.953125 L 45.378906 22.222656 L 45.121094 22.097656 L 44.132812 24.152344 Z M 44.988281 24.339844 " fill-opacity="1" fill-rule="nonzero"/><path fill="#545454" d="M 46.507812 22.179688 C 46.507812 22.386719 46.621094 22.550781 46.765625 22.550781 C 46.90625 22.550781 47.023438 22.386719 47.023438 22.179688 C 47.023438 21.96875 46.90625 21.804688 46.765625 21.804688 C 46.621094 21.804688 46.507812 21.96875 46.507812 22.179688 Z M 46.507812 22.179688 " fill-opacity="1" fill-rule="nonzero"/><path fill="#545454" d="M 43.992188 22.0625 C 43.992188 22.273438 44.105469 22.4375 44.25 22.4375 C 44.390625 22.4375 44.507812 22.273438 44.507812 22.0625 C 44.507812 21.855469 44.390625 21.691406 44.25 21.691406 C 44.105469 21.699219 43.992188 21.863281 43.992188 22.0625 Z M 43.992188 22.0625 " fill-opacity="1" fill-rule="nonzero"/><path fill="#545454" d="M 48.148438 21.296875 L 48.371094 21.117188 C 48.363281 21.101562 47.386719 19.929688 46.191406 20.742188 L 46.347656 20.980469 C 47.332031 20.316406 48.113281 21.257812 48.148438 21.296875 Z M 48.148438 21.296875 " fill-opacity="1" fill-rule="nonzero"/><path fill="#545454" d="M 45.035156 20.898438 L 45.265625 20.734375 C 45.246094 20.699219 44.6875 19.945312 43.960938 20.066406 L 44.011719 20.347656 C 44.5625 20.253906 45.035156 20.894531 45.035156 20.898438 Z M 45.035156 20.898438 " fill-opacity="1" fill-rule="nonzero"/><path fill="#545454" d="M 51.023438 22.179688 C 51.023438 22.179688 52.011719 21.042969 52.742188 22.0625 C 53.472656 23.082031 52.503906 24.449219 51.351562 24.914062 L 51.464844 26.855469 C 51.464844 26.855469 54.320312 26.113281 54.527344 22.710938 C 54.527344 22.710938 55.917969 19.027344 53.207031 17.324219 C 53.207031 17.324219 52.140625 16.578125 50.71875 16.648438 C 50.71875 16.648438 49.359375 15.507812 47.726562 15.089844 C 45.625 14.550781 42.414062 14.925781 41.949219 17.511719 C 41.28125 21.160156 48.253906 19.527344 48.253906 19.527344 C 48.253906 19.527344 49.28125 20.792969 50.519531 20.8125 Z M 51.023438 22.179688 " fill-opacity="1" fill-rule="nonzero"/><path fill="#545454" d="M 51.5 22.816406 C 51.652344 22.410156 52.269531 22.464844 52.277344 22.472656 L 52.304688 22.1875 C 52.269531 22.179688 51.453125 22.09375 51.230469 22.722656 Z M 51.5 22.816406 " fill-opacity="1" fill-rule="nonzero"/><g clip-path="url(#8481dbc4a1)"><path fill="#545454" d="M 50.671875 16.890625 L 50.820312 16.753906 C 51.507812 16.132812 53.257812 16.582031 53.28125 16.582031 L 53.351562 16.304688 C 53.28125 16.28125 51.636719 15.863281 50.777344 16.425781 C 50.65625 16.179688 50.375 15.722656 49.859375 15.242188 C 49.195312 14.621094 48.003906 13.875 46.070312 13.8125 L 46.0625 14.097656 C 47.898438 14.164062 49.027344 14.867188 49.660156 15.441406 C 50.339844 16.066406 50.589844 16.691406 50.589844 16.699219 Z M 50.671875 16.890625 " fill-opacity="1" fill-rule="nonzero"/></g><g clip-path="url(#93efc92cae)"><path fill="#545454" d="M 45.6875 29.417969 C 45.6875 29.417969 44.9375 33.851562 51.910156 28.320312 C 51.910156 28.320312 60.058594 30.4375 60.804688 30.839844 C 61.550781 31.242188 63.816406 32.621094 65.207031 39.90625 L 59.972656 46.039062 L 60.390625 50.957031 L 33.847656 50.957031 L 35.5625 37.628906 C 35.5625 37.628906 35.796875 34.324219 38.75 32.429688 C 41.710938 30.53125 45.6875 29.417969 45.6875 29.417969 Z M 45.6875 29.417969 " fill-opacity="1" fill-rule="nonzero"/><path fill="#545454" d="M 35.417969 37.605469 C 35.433594 37.460938 35.746094 34.179688 38.679688 32.304688 C 41.617188 30.417969 45.609375 29.296875 45.652344 29.28125 L 45.867188 29.222656 L 45.832031 29.445312 C 45.832031 29.453125 45.667969 30.472656 46.269531 30.824219 C 47.335938 31.457031 49.882812 29.75 51.824219 28.210938 L 51.882812 28.167969 L 51.953125 28.183594 C 52.289062 28.269531 60.125 30.308594 60.882812 30.71875 C 62.898438 31.804688 64.402344 34.882812 65.355469 39.882812 L 65.371094 39.949219 L 60.140625 46.089844 L 60.5625 51.101562 L 33.683594 51.101562 Z M 59.835938 45.988281 L 65.0625 39.863281 C 64.125 34.992188 62.667969 31.996094 60.75 30.960938 C 60.175781 30.652344 54.785156 29.210938 51.953125 28.46875 C 49.625 30.308594 47.902344 31.234375 46.8125 31.234375 C 46.550781 31.234375 46.3125 31.179688 46.125 31.0625 C 45.554688 30.71875 45.511719 29.980469 45.53125 29.605469 C 44.6875 29.855469 41.367188 30.914062 38.835938 32.535156 C 35.976562 34.367188 35.710938 37.59375 35.710938 37.621094 L 34.019531 50.800781 L 60.253906 50.800781 Z M 59.835938 45.988281 " fill-opacity="1" fill-rule="nonzero"/></g><g clip-path="url(#50ed82a64d)"><path fill="#ffffff" d="M 35.023438 41.828125 L 40.277344 41.828125 L 39.683594 50.957031 L 30.1875 50.957031 Z M 35.023438 41.828125 " fill-opacity="1" fill-rule="nonzero"/></g><g clip-path="url(#46b8a19338)"><path fill="#545454" d="M 34.9375 41.6875 L 40.429688 41.6875 L 39.820312 51.09375 L 29.941406 51.09375 Z M 40.121094 41.972656 L 35.101562 41.972656 L 30.414062 50.808594 L 39.539062 50.808594 Z M 40.121094 41.972656 " fill-opacity="1" fill-rule="nonzero"/></g><g clip-path="url(#7e819e608a)"><path fill="#ffffff" d="M 58.273438 40.464844 L 65.214844 39.90625 C 65.214844 39.90625 66.445312 46.417969 66.308594 47.519531 C 66.195312 48.445312 66.015625 51.074219 58.984375 50.949219 L 47.644531 50.949219 C 47.644531 50.949219 46.226562 50.375 45.796875 49.730469 C 45.796875 49.730469 41.640625 50.949219 38.914062 49.867188 C 38.914062 49.867188 38.484375 49.355469 39.605469 48.421875 C 40.722656 47.488281 43.152344 45.519531 43.152344 45.519531 C 43.152344 45.519531 43.898438 44.941406 44.785156 45.429688 L 48.765625 47.382812 L 59.480469 44.941406 Z M 58.273438 40.464844 " fill-opacity="1" fill-rule="nonzero"/><path fill="#545454" d="M 58.976562 51.101562 L 47.617188 51.101562 L 47.589844 51.09375 C 47.53125 51.074219 46.242188 50.542969 45.730469 49.902344 C 45.4375 49.980469 44.519531 50.21875 43.386719 50.355469 C 42.113281 50.511719 40.292969 50.578125 38.859375 50.011719 L 38.824219 49.996094 L 38.800781 49.96875 C 38.785156 49.953125 38.664062 49.792969 38.6875 49.515625 C 38.722656 49.140625 38.996094 48.738281 39.511719 48.316406 C 40.621094 47.394531 43.035156 45.429688 43.058594 45.40625 C 43.09375 45.378906 43.890625 44.773438 44.84375 45.296875 L 48.777344 47.222656 L 59.292969 44.832031 L 58.082031 40.335938 L 65.320312 39.746094 L 65.34375 39.875 C 65.394531 40.140625 66.582031 46.425781 66.4375 47.53125 L 66.433594 47.589844 C 66.308594 48.558594 65.996094 51.09375 59.421875 51.09375 C 59.285156 51.101562 59.136719 51.101562 58.976562 51.101562 Z M 58.460938 40.59375 L 59.660156 45.046875 L 48.75 47.53125 L 44.722656 45.558594 C 43.933594 45.117188 43.265625 45.613281 43.246094 45.636719 C 43.222656 45.65625 40.808594 47.617188 39.695312 48.539062 C 38.953125 49.148438 38.914062 49.585938 39.007812 49.75 C 41.652344 50.777344 45.710938 49.609375 45.753906 49.59375 L 45.855469 49.566406 L 45.910156 49.652344 C 46.285156 50.210938 47.480469 50.734375 47.675781 50.816406 L 58.984375 50.816406 C 61.902344 50.863281 63.960938 50.441406 65.089844 49.566406 C 66 48.867188 66.101562 48.050781 66.160156 47.5625 L 66.167969 47.496094 C 66.289062 46.519531 65.269531 40.96875 65.097656 40.054688 Z M 58.460938 40.59375 " fill-opacity="1" fill-rule="nonzero"/></g><g clip-path="url(#f1f1e26c5b)"><path fill="#545454" d="M 39.339844 49.9375 L 42.09375 47.449219 L 42.285156 47.664062 L 39.53125 50.148438 Z M 39.339844 49.9375 " fill-opacity="1" fill-rule="nonzero"/></g><g clip-path="url(#38f00a7e79)"><path fill="#545454" d="M 40.714844 50.179688 L 43.019531 48.203125 L 43.207031 48.421875 L 40.902344 50.398438 Z M 40.714844 50.179688 " fill-opacity="1" fill-rule="nonzero"/></g><g clip-path="url(#be4b31b9cf)"><path fill="#545454" d="M 15.601562 36.449219 L 32.910156 36.449219 C 33.269531 36.449219 33.574219 36.6875 33.667969 37.03125 L 37.058594 49.96875 C 37.1875 50.460938 36.816406 50.949219 36.300781 50.949219 L 18.988281 50.949219 C 18.632812 50.949219 18.324219 50.714844 18.230469 50.371094 L 14.839844 37.433594 C 14.710938 36.9375 15.089844 36.449219 15.601562 36.449219 Z M 15.601562 36.449219 " fill-opacity="1" fill-rule="nonzero"/><path fill="#545454" d="M 18.09375 50.414062 L 14.703125 37.476562 C 14.632812 37.195312 14.691406 36.902344 14.867188 36.671875 C 15.046875 36.441406 15.3125 36.3125 15.601562 36.3125 L 32.910156 36.3125 C 33.332031 36.3125 33.699219 36.601562 33.804688 37.003906 L 37.195312 49.9375 C 37.265625 50.21875 37.210938 50.511719 37.03125 50.742188 C 36.851562 50.972656 36.585938 51.101562 36.300781 51.101562 L 18.988281 51.101562 C 18.566406 51.101562 18.203125 50.820312 18.09375 50.414062 Z M 15.601562 36.59375 C 15.398438 36.59375 15.210938 36.6875 15.089844 36.84375 C 14.96875 37.003906 14.925781 37.203125 14.976562 37.398438 L 18.367188 50.332031 C 18.4375 50.613281 18.695312 50.816406 18.984375 50.816406 L 36.292969 50.816406 C 36.492188 50.816406 36.679688 50.722656 36.800781 50.5625 C 36.921875 50.40625 36.964844 50.203125 36.914062 50.011719 L 33.527344 37.074219 C 33.453125 36.792969 33.195312 36.59375 32.910156 36.59375 Z M 15.601562 36.59375 " fill-opacity="1" fill-rule="nonzero"/></g><g clip-path="url(#1ff9101557)"><path fill="#545454" d="M 34.113281 49.125 L 46.765625 49.125 L 46.765625 50.957031 L 34.113281 50.957031 Z M 34.113281 49.125 " fill-opacity="1" fill-rule="nonzero"/></g><g clip-path="url(#1d57172218)"><path fill="#545454" d="M 33.96875 48.984375 L 46.90625 48.984375 L 46.90625 51.101562 L 33.96875 51.101562 Z M 46.621094 49.269531 L 34.257812 49.269531 L 34.257812 50.816406 L 46.621094 50.816406 Z M 46.621094 49.269531 " fill-opacity="1" fill-rule="nonzero"/></g><g clip-path="url(#3dd0b67684)"><path fill="#ffffff" d="M 14.386719 36.449219 L 31.699219 36.449219 C 32.054688 36.449219 32.363281 36.6875 32.457031 37.03125 L 35.847656 49.96875 C 35.976562 50.460938 35.605469 50.949219 35.089844 50.949219 L 17.773438 50.949219 C 17.414062 50.949219 17.105469 50.714844 17.011719 50.371094 L 13.621094 37.433594 C 13.5 36.9375 13.871094 36.449219 14.386719 36.449219 Z M 14.386719 36.449219 " fill-opacity="1" fill-rule="nonzero"/></g><g clip-path="url(#ce26f25451)"><path fill="#545454" d="M 16.882812 50.414062 L 13.492188 37.476562 C 13.421875 37.195312 13.476562 36.902344 13.65625 36.671875 C 13.835938 36.441406 14.101562 36.3125 14.386719 36.3125 L 31.699219 36.3125 C 32.121094 36.3125 32.488281 36.601562 32.59375 37.003906 L 35.984375 49.9375 C 36.054688 50.21875 36 50.511719 35.820312 50.742188 C 35.640625 50.972656 35.375 51.101562 35.089844 51.101562 L 17.773438 51.101562 C 17.355469 51.101562 16.984375 50.820312 16.882812 50.414062 Z M 14.386719 36.59375 C 14.1875 36.59375 14 36.6875 13.878906 36.84375 C 13.757812 37.003906 13.714844 37.203125 13.765625 37.398438 L 17.15625 50.332031 C 17.226562 50.613281 17.484375 50.816406 17.773438 50.816406 L 35.082031 50.816406 C 35.28125 50.816406 35.46875 50.722656 35.589844 50.5625 C 35.710938 50.40625 35.753906 50.203125 35.703125 50.011719 L 32.3125 37.074219 C 32.242188 36.792969 31.984375 36.59375 31.699219 36.59375 Z M 14.386719 36.59375 " fill-opacity="1" fill-rule="nonzero"/></g><path fill="#ffffff" d="M 24.214844 42.527344 C 24.542969 43.222656 24.359375 44.011719 23.792969 44.277344 C 23.226562 44.550781 22.503906 44.199219 22.171875 43.503906 C 21.84375 42.804688 22.027344 42.015625 22.59375 41.75 C 23.160156 41.476562 23.886719 41.824219 24.214844 42.527344 Z M 24.214844 42.527344 " fill-opacity="1" fill-rule="nonzero"/><path fill="#545454" d="M 22.839844 44.378906 C 22.503906 44.222656 22.222656 43.925781 22.042969 43.558594 C 21.871094 43.195312 21.820312 42.792969 21.90625 42.425781 C 22 42.050781 22.214844 41.765625 22.53125 41.613281 C 22.847656 41.464844 23.203125 41.46875 23.554688 41.644531 C 23.890625 41.800781 24.171875 42.09375 24.351562 42.460938 L 24.222656 42.527344 L 24.351562 42.460938 C 24.523438 42.828125 24.574219 43.230469 24.488281 43.597656 C 24.394531 43.96875 24.179688 44.257812 23.863281 44.40625 C 23.714844 44.480469 23.554688 44.515625 23.390625 44.515625 C 23.210938 44.507812 23.019531 44.464844 22.839844 44.378906 Z M 22.660156 41.871094 C 22.421875 41.980469 22.257812 42.203125 22.195312 42.492188 C 22.121094 42.792969 22.164062 43.121094 22.308594 43.429688 C 22.453125 43.738281 22.6875 43.984375 22.96875 44.113281 C 23.234375 44.242188 23.511719 44.25 23.742188 44.140625 C 23.980469 44.035156 24.144531 43.8125 24.207031 43.523438 C 24.28125 43.222656 24.238281 42.890625 24.09375 42.582031 C 23.949219 42.273438 23.714844 42.03125 23.433594 41.902344 C 23.289062 41.828125 23.148438 41.800781 23.003906 41.800781 C 22.882812 41.800781 22.765625 41.824219 22.660156 41.871094 Z M 22.660156 41.871094 " fill-opacity="1" fill-rule="nonzero"/><g clip-path="url(#32e79b500a)"><path fill="#545454" d="M 42.335938 50.183594 L 44.179688 48.746094 L 44.355469 48.972656 L 42.511719 50.410156 Z M 42.335938 50.183594 " fill-opacity="1" fill-rule="nonzero"/></g><g clip-path="url(#83b6b5e3d5)"><path fill="#545454" d="M 49.195312 50.347656 L 49.214844 50.0625 C 49.195312 50.0625 47.386719 49.917969 47.03125 49.0625 L 46.972656 48.917969 L 45.394531 49.6875 L 45.515625 49.945312 L 46.828125 49.304688 C 47.359375 50.203125 49.113281 50.339844 49.195312 50.347656 Z M 49.195312 50.347656 " fill-opacity="1" fill-rule="nonzero"/></g><path fill="#ffffff" d="M 39.8125 42.363281 L 40.082031 39.628906 L 40.367188 39.65625 L 40.097656 42.394531 Z M 39.8125 42.363281 " fill-opacity="1" fill-rule="nonzero"/><path fill="#ffffff" d="M 57.707031 38.570312 L 57.980469 38.480469 L 58.695312 40.632812 L 58.425781 40.722656 Z M 57.707031 38.570312 " fill-opacity="1" fill-rule="nonzero"/><path fill="#ff1616" d="M 16.507812 40.117188 C 16.570312 40.226562 16.585938 40.355469 16.554688 40.507812 C 16.523438 40.660156 16.449219 40.820312 16.332031 40.992188 C 16.210938 41.164062 16.058594 41.332031 15.867188 41.496094 C 15.675781 41.664062 15.46875 41.8125 15.234375 41.945312 C 15.003906 42.082031 14.769531 42.1875 14.53125 42.269531 C 14.292969 42.351562 14.070312 42.402344 13.863281 42.417969 C 13.65625 42.4375 13.480469 42.421875 13.332031 42.371094 C 13.1875 42.324219 13.082031 42.242188 13.019531 42.132812 C 12.957031 42.027344 12.941406 41.894531 12.96875 41.742188 C 13 41.589844 13.074219 41.429688 13.195312 41.257812 C 13.3125 41.085938 13.46875 40.917969 13.660156 40.753906 C 13.847656 40.585938 14.058594 40.4375 14.289062 40.304688 C 14.519531 40.171875 14.753906 40.0625 14.992188 39.980469 C 15.230469 39.898438 15.453125 39.847656 15.660156 39.832031 C 15.871094 39.8125 16.046875 39.828125 16.191406 39.878906 C 16.339844 39.929688 16.445312 40.007812 16.507812 40.117188 Z M 16.507812 40.117188 " fill-opacity="1" fill-rule="nonzero"/><path fill="#ff1616" d="M 12.875 37.46875 C 13.34375 37.714844 14.136719 37.101562 14.644531 36.113281 C 15.15625 35.121094 15.199219 34.121094 14.734375 33.878906 C 14.265625 33.632812 13.472656 34.246094 12.960938 35.234375 C 12.445312 36.226562 12.410156 37.226562 12.875 37.46875 Z M 12.875 37.46875 " fill-opacity="1" fill-rule="nonzero"/><path fill="#ff1616" d="M 12.117188 36.097656 C 12.183594 36.402344 12.226562 36.699219 12.242188 36.988281 C 12.257812 37.28125 12.246094 37.542969 12.207031 37.777344 C 12.167969 38.007812 12.105469 38.195312 12.015625 38.339844 C 11.929688 38.480469 11.824219 38.5625 11.703125 38.589844 C 11.578125 38.617188 11.449219 38.585938 11.308594 38.496094 C 11.171875 38.40625 11.035156 38.261719 10.898438 38.066406 C 10.765625 37.871094 10.644531 37.640625 10.535156 37.371094 C 10.425781 37.101562 10.335938 36.816406 10.269531 36.511719 C 10.203125 36.210938 10.160156 35.914062 10.144531 35.621094 C 10.128906 35.332031 10.140625 35.070312 10.179688 34.835938 C 10.21875 34.601562 10.28125 34.414062 10.371094 34.273438 C 10.457031 34.132812 10.5625 34.046875 10.683594 34.019531 C 10.804688 33.992188 10.9375 34.023438 11.078125 34.117188 C 11.214844 34.207031 11.351562 34.347656 11.484375 34.542969 C 11.621094 34.738281 11.742188 34.972656 11.851562 35.242188 C 11.960938 35.511719 12.050781 35.796875 12.117188 36.097656 Z M 12.117188 36.097656 " fill-opacity="1" fill-rule="nonzero"/><path fill="#545454" d="M 11.558594 43.746094 C 12.1875 42.410156 14.625 41.277344 14.652344 41.261719 L 14.582031 41.109375 C 14.574219 41.109375 13.945312 41.40625 13.25 41.859375 C 12.300781 42.476562 11.6875 43.085938 11.40625 43.667969 Z M 11.558594 43.746094 " fill-opacity="1" fill-rule="nonzero"/><g clip-path="url(#f7c9ac0b8b)"><path fill="#ff1616" d="M 8.066406 41.917969 C 8.292969 42.0625 8.496094 42.21875 8.679688 42.390625 C 8.863281 42.566406 9.007812 42.738281 9.121094 42.914062 C 9.234375 43.09375 9.300781 43.257812 9.328125 43.410156 C 9.351562 43.5625 9.328125 43.691406 9.261719 43.796875 C 9.195312 43.90625 9.089844 43.980469 8.941406 44.023438 C 8.792969 44.066406 8.613281 44.074219 8.40625 44.050781 C 8.199219 44.023438 7.980469 43.964844 7.746094 43.875 C 7.511719 43.78125 7.28125 43.664062 7.054688 43.523438 C 6.828125 43.378906 6.625 43.222656 6.441406 43.046875 C 6.257812 42.875 6.109375 42.699219 6 42.523438 C 5.886719 42.347656 5.816406 42.183594 5.792969 42.03125 C 5.769531 41.878906 5.789062 41.75 5.859375 41.640625 C 5.925781 41.535156 6.03125 41.460938 6.179688 41.417969 C 6.328125 41.375 6.507812 41.363281 6.714844 41.390625 C 6.921875 41.417969 7.140625 41.476562 7.375 41.566406 C 7.609375 41.660156 7.839844 41.777344 8.066406 41.917969 Z M 8.066406 41.917969 " fill-opacity="1" fill-rule="nonzero"/></g><path fill="#ff1616" d="M 9.59375 39.136719 C 9.121094 39.359375 8.351562 38.71875 7.878906 37.707031 C 7.40625 36.695312 7.40625 35.695312 7.886719 35.472656 C 8.359375 35.25 9.128906 35.890625 9.601562 36.902344 C 10.066406 37.914062 10.066406 38.914062 9.59375 39.136719 Z M 9.59375 39.136719 " fill-opacity="1" fill-rule="nonzero"/><path fill="#545454" d="M 11.464844 44.976562 C 11.601562 42.023438 12.246094 39.683594 12.769531 38.230469 C 13.328125 36.660156 13.863281 35.773438 13.871094 35.769531 L 13.730469 35.679688 C 13.722656 35.6875 13.175781 36.585938 12.609375 38.171875 C 12.085938 39.632812 11.433594 41.996094 11.300781 44.96875 Z M 11.464844 44.976562 " fill-opacity="1" fill-rule="nonzero"/><path fill="#545454" d="M 11.800781 41.871094 C 11.816406 39.152344 11.277344 36.3125 11.269531 36.285156 L 11.105469 36.3125 C 11.113281 36.34375 11.652344 39.15625 11.636719 41.867188 Z M 11.800781 41.871094 " fill-opacity="1" fill-rule="nonzero"/><path fill="#545454" d="M 10.660156 45.472656 L 10.8125 45.40625 C 10.5625 44.808594 9.964844 44.179688 9.046875 43.523438 C 8.367188 43.042969 7.75 42.726562 7.742188 42.71875 L 7.671875 42.863281 C 7.695312 42.878906 10.089844 44.105469 10.660156 45.472656 Z M 10.660156 45.472656 " fill-opacity="1" fill-rule="nonzero"/><path fill="#545454" d="M 10.703125 46.699219 L 10.871094 46.699219 C 10.847656 43.726562 10.289062 41.332031 9.828125 39.855469 C 9.328125 38.246094 8.820312 37.332031 8.8125 37.320312 L 8.667969 37.398438 C 8.675781 37.40625 9.175781 38.308594 9.671875 39.90625 C 10.132812 41.378906 10.683594 43.746094 10.703125 46.699219 Z M 10.703125 46.699219 " fill-opacity="1" fill-rule="nonzero"/><g clip-path="url(#3b60409189)"><path fill="#ffffff" d="M 14.222656 44.617188 L 7.265625 44.617188 L 8.167969 51.136719 L 13.320312 51.136719 Z M 14.222656 44.617188 " fill-opacity="1" fill-rule="nonzero"/><path fill="#545454" d="M 7.171875 44.539062 L 14.316406 44.539062 L 13.40625 51.144531 L 13.398438 51.21875 L 8.09375 51.21875 Z M 14.125 44.703125 L 7.355469 44.703125 L 8.230469 51.050781 L 13.25 51.050781 Z M 14.125 44.703125 " fill-opacity="1" fill-rule="nonzero"/></g><g clip-path="url(#489f796dec)"><g clip-path="url(#a3cb444ef3)"><path fill="#ffffff" d="M 43.957031 19.933594 L 49.9375 19.933594 L 49.9375 26.296875 L 43.957031 26.296875 Z M 43.957031 19.933594 " fill-opacity="1" fill-rule="nonzero"/></g></g><g clip-path="url(#af755cfebc)"><g clip-path="url(#0adaf2235d)"><g clip-path="url(#674ad27601)"><path fill="#ffffff" d="M 43.796875 24.15625 L 44.253906 19.933594 L 49.152344 20.460938 L 48.695312 24.683594 Z M 43.796875 24.15625 " fill-opacity="1" fill-rule="nonzero"/></g></g></g><path stroke-linecap="butt" transform="matrix(0.1875, 0, 0, 0.1875, 0.0000015, 50.642469)" fill="none" stroke-linejoin="miter" d="M -0.000008 0.490164 L 400.000025 0.490164 " stroke="#545454" stroke-width="1" stroke-opacity="1" stroke-miterlimit="4"/></svg>